<svg width="282" height="113" viewBox="0 0 282 113" fill="none" xmlns="http://www.w3.org/2000/svg">
<path opacity="0.8" d="M0 66.9376V113H0.880526V67.9353H51.31V60.9217H51.06V59.6267H50.6303V58.9662H51.31V44.946H51.06V43.652H50.6303V42.9906H51.3153L51.3276 42.5067C51.3655 41.0242 51.4729 39.5616 51.6455 38.1698C52.0576 35.2796 52.6977 31.0335 53.1177 28.6999C53.5254 31.0574 54.1453 35.3634 54.5433 38.2895C54.693 39.5556 54.7819 40.9344 54.818 42.5047L54.8295 42.9906H55.5277V43.652H55.0989V44.946H54.848V58.9662H55.5277V59.6267H55.0989V60.9217H54.848V67.9353H57.2096L57.2483 67.4853C57.7995 61.1751 61.864 56.1937 66.9129 55.641L67.311 55.5981V54.782H68.3949V55.5981L68.7929 55.641C73.8409 56.1947 77.9063 61.1751 78.4575 67.4853L78.4963 67.9353H80.2732V57.1555H78.6565V56.6816H79.4701V55.212H80.2732V33.8519H78.6565V33.379H79.4701V31.9094H80.2732V22.241H79.9492V21.7681H80.2697L80.2899 21.2933C80.3454 19.9973 81.1652 18.9228 82.2817 18.6804L82.7299 18.5826L83.1904 18.6774C84.3227 18.9088 85.1522 19.9853 85.2085 21.2933L85.2288 21.7681H85.5167V22.241H85.227V31.9094H85.9957V33.379H86.8102V33.8519H85.227V55.212H85.9957V56.6816H86.8102V57.1555H85.227V67.9353H88.9499V55.4325H90.0928L90.1492 55.0085C91.0676 48.1206 96.1896 42.795 102.328 42.3471L102.74 42.3012V41.9879H103.594V42.3171L104.007 42.3461C110.165 42.7751 115.303 48.1016 116.224 55.0105L116.281 55.4345H117.53V40.4914H116.146V40.23H116.842V38.9729H117.529V30.5526H117.253V30.2902H117.524L117.544 29.8153C117.591 28.7389 118.271 27.8469 119.198 27.6454L119.505 27.5516L119.952 27.6434C120.892 27.836 121.581 28.7289 121.628 29.8153L121.648 30.2902H121.891V30.5526H121.646V38.9729H122.304V40.23H123.002V40.4914H121.646V49.1212L122.467 47.531C124.454 43.6809 128.04 40.6161 133.43 38.1608C139.261 35.505 141.387 31.6451 142.145 29.4931C142.905 31.6491 145.033 35.506 150.861 38.1608C158.092 41.4541 162.052 45.782 163.323 51.783L163.47 52.4774L163.995 52.0823C165.802 50.7205 167.784 49.8854 169.884 49.6001L170.273 49.5472V48.3421C170.273 48.2692 170.284 48.2134 170.295 48.1754H171.272L171.476 45.8658L171.677 48.1754H172.649C172.661 48.2124 172.672 48.2682 172.672 48.3421V49.5462L173.06 49.5991C180.339 50.5908 185.899 58.2619 185.993 67.4424L185.998 67.9353H187.346V62.0371H187.114V60.8219H186.716V60.2632H187.346V44.3514H187.114V43.1372H186.716V42.5785H187.346V29.3634H187.114V28.1492H186.716V27.5905H187.35L187.363 27.1057C187.397 25.7159 187.497 24.3451 187.657 23.0402C188.108 19.8406 188.633 16.3717 188.99 14.3405C189.336 16.3927 189.846 19.9115 190.281 23.1519C190.418 24.3381 190.502 25.6311 190.534 27.1047L190.546 27.5905H191.192V28.1492H190.793V29.3634H190.562V42.5785H191.191V43.1372H190.792V44.3514H190.561V59.8801H191.853L191.91 59.4561C192.481 55.1641 195.67 51.8219 199.491 51.5097L199.9 51.4767V50.921H200.149V51.4757L200.565 51.5017C204.454 51.7501 207.698 55.0943 208.278 59.4551L208.334 59.8791H209.043V70.4833L209.911 66.4597C211.074 61.0703 214.831 57.1225 219.262 56.6367L219.66 56.5938V55.7777H220.745V56.5928L221.143 56.6357C225.306 57.0926 228.888 60.5894 230.27 65.5459L231.13 68.6297V57.2672H230.588V56.2775H231.13V41.518H230.588V40.5283H231.13V33.6693H231.122L231.143 33.1984C231.176 32.3973 231.682 31.7339 232.373 31.5832L232.698 31.5333L232.935 31.5822C233.634 31.7249 234.148 32.3903 234.182 33.1984L234.194 40.5283H234.713V41.518H234.194V56.2775H234.713V57.2672H234.194V67.9323H281.119V112.997H282V66.9346H235.075V58.2649H236.145V56.2735H235.594V55.2798H235.075V42.5157H236.145V40.5233H235.594V39.5306H235.075V34.667H235.27V32.6757H235.005C234.827 31.7778 234.264 31.0475 233.504 30.7282C233.481 30.5416 233.411 30.369 233.301 30.2284L233.17 23.4183L233.094 22.9304H232.238L232.01 30.2144C231.893 30.3601 231.817 30.5406 231.795 30.7362C231.049 31.0614 230.495 31.7887 230.319 32.6757H230.03V34.667H230.249V39.5306H229.706V40.5233H229.157V42.5157H230.249V55.2798H229.706V56.2735H229.157V58.2649H230.249V62.8771C228.465 58.9563 225.274 56.2546 221.625 55.6949V55.6799C221.625 55.2409 221.346 54.8728 220.979 54.794L220.794 49.5073C221.328 49.6221 221.883 49.6271 222.423 49.5193C223.635 49.2779 224.687 48.5137 225.386 47.3653L226.579 45.4059L224.792 46.658C224.392 46.9393 223.953 47.1279 223.49 47.2197C221.495 47.6197 219.593 46.1013 219.242 43.8446C219.075 42.7611 219.285 41.6687 219.833 40.7688L221.042 38.7874L219.239 40.0624C217.651 41.1848 216.835 43.2539 217.158 45.3331C217.41 46.9583 218.32 48.3281 219.618 49.0564L219.425 54.792C219.269 54.8239 219.122 54.9097 219.01 55.0384C218.861 55.207 218.779 55.4305 218.779 55.6669V55.6939C214.958 56.2815 211.647 59.2316 209.925 63.4178V58.8794H209.084C208.319 54.4139 205.016 50.9998 201.022 50.5399C200.989 50.2935 200.846 50.087 200.652 49.9862L200.559 47.3444C200.819 47.3783 201.078 47.3713 201.332 47.3204C202.079 47.1718 202.727 46.7009 203.159 45.9935L204.348 44.0441L202.566 45.2852C202.354 45.4319 202.124 45.5316 201.881 45.5795C201.377 45.6793 200.867 45.5516 200.446 45.2174C200.026 44.8831 199.745 44.3843 199.657 43.8106C199.569 43.244 199.679 42.6713 199.966 42.2014L201.17 40.224L199.371 41.4941C198.395 42.1824 197.891 43.4575 198.089 44.7395C198.236 45.6922 198.753 46.5024 199.496 46.9653L199.394 49.9842C199.325 50.0201 199.261 50.069 199.208 50.1299C199.106 50.2436 199.041 50.3953 199.024 50.5559C195.533 51.0208 192.58 53.7714 191.441 57.4687V45.3471H191.672V44.1329H192.071V41.5789H191.441V30.3611H191.673V29.1469H192.072V26.5929H191.401C191.361 25.2829 191.279 24.1097 191.152 23.0122C189.654 11.8503 189.463 11.8493 189.001 11.8453C188.552 11.8413 188.343 11.8344 186.785 22.8935C186.638 24.0907 186.541 25.3328 186.496 26.5929H185.835V29.1469H186.233V30.3611H186.465V41.5808H185.835V44.1349H186.233V45.349H186.465V59.2655H185.835V60.7471C183.853 54.3859 179.221 49.6201 173.551 48.6673V48.3411C173.551 47.6776 173.207 47.1768 172.752 47.1768H172.473L171.984 41.5579H170.971L170.473 47.1768H170.185C169.732 47.1768 169.389 47.6776 169.389 48.3411V48.6673C167.493 48.9846 165.691 49.7258 164.023 50.8771C162.535 44.8841 158.438 40.5363 151.187 37.235C146.034 34.8875 143.952 31.6052 143.122 29.55C144.022 29.2736 144.612 28.6421 144.612 27.8998C144.612 27.1595 144.02 26.527 143.104 26.2517L142.989 22.7309C143.288 22.5344 143.459 22.244 143.459 21.9128C143.459 21.5576 143.268 21.2523 142.935 21.0578L142.829 17.8453C144.103 18.0518 145.402 17.9231 146.616 17.4592C148.72 16.6551 150.414 14.964 151.385 12.6973L152.308 10.5434L150.703 12.1007C149.991 12.7911 149.177 13.3149 148.282 13.6571C144.446 15.1207 140.278 12.7801 138.986 8.43828C138.366 6.35615 138.488 4.12636 139.333 2.15796L140.258 0L138.65 1.56035C136.086 4.04854 135.126 7.99433 136.205 11.6139C137.052 14.4602 139.044 16.6451 141.573 17.529L141.39 20.98C140.974 21.1635 140.721 21.5058 140.721 21.9128C140.721 22.2829 140.937 22.6052 141.293 22.7997L141.111 26.2407C140.174 26.5111 139.569 27.1486 139.569 27.8998C139.569 28.676 140.197 29.3155 141.153 29.5739C140.318 31.6281 138.234 34.8955 133.098 37.235C128.186 39.4708 124.711 42.2214 122.523 45.6094V41.4881H123.879V39.2313H123.18V37.9743H122.527V31.5493H122.775V29.2916H122.46C122.262 28.1243 121.535 27.1735 120.547 26.7894C120.532 26.534 120.438 26.2966 120.282 26.112L120.114 17.4363L120.02 16.9484H119.164L118.877 26.098C118.713 26.2856 118.615 26.532 118.602 26.7984C117.63 27.1895 116.913 28.1373 116.716 29.2916H116.373V31.5493H116.649V37.9743H115.963V39.2313H115.266V41.4881H116.65V52.632C114.996 46.4724 110.115 41.9101 104.349 41.3723C104.246 41.1967 104.088 41.0661 103.902 41.0142L103.743 36.4638C104.201 36.5536 104.675 36.5536 105.137 36.4628C106.22 36.2473 107.161 35.5629 107.787 34.5363L108.984 32.5719L107.193 33.828C106.845 34.0714 106.464 34.236 106.06 34.3158C104.325 34.659 102.673 33.3431 102.37 31.3817C102.225 30.4399 102.407 29.4911 102.884 28.7109L104.095 26.7305L102.29 28.0036C100.87 29.0042 100.14 30.8539 100.428 32.7176C100.65 34.1582 101.453 35.3744 102.6 36.0298L102.432 41.0122C102.244 41.0631 102.085 41.1948 101.982 41.3753C95.6886 41.9859 90.4538 47.4013 89.3417 54.4348H88.0702V66.9376H86.1084V58.1531H87.6916V55.6839H86.8771V54.2143H86.1084V34.8496H87.6916V32.3813H86.8771V30.9118H86.1084V23.2387H86.3981V20.7705H86.0424C85.8311 19.3867 84.9699 18.2583 83.7979 17.8244C83.7926 17.5131 83.6799 17.2238 83.4853 17.0063L83.2802 6.35116H82.3266L81.9929 16.9913C81.7886 17.2118 81.6706 17.5111 81.6679 17.8343C80.5145 18.2773 79.6665 19.4017 79.4561 20.7705H79.0677V23.2387H79.3918V30.9118H78.5887V32.3813H77.7751V34.8496H79.3918V54.2143H78.5887V55.6839H77.7751V58.1531H79.3918V66.9376H79.2879C78.5632 60.5326 74.4353 55.4914 69.2754 54.7002V54.6842C69.2754 54.2453 68.9963 53.8781 68.6282 53.7993L68.4433 48.5137C68.9787 48.6294 69.5325 48.6324 70.0732 48.5266C71.2839 48.2852 72.3361 47.521 73.037 46.3727L74.2372 44.4062L72.4427 45.6643C72.042 45.9457 71.6035 46.1342 71.1395 46.226C69.1495 46.6191 67.2432 45.1076 66.8936 42.8499C66.7254 41.7674 66.935 40.675 67.4835 39.7751L68.6863 37.8007L66.8883 39.0687C65.3016 40.1871 64.4853 42.2553 64.8076 44.3384C65.0594 45.9636 65.9699 47.3324 67.2678 48.0607L67.0741 53.7963C66.7078 53.8721 66.4304 54.2363 66.4304 54.6723V54.6992C61.2705 55.4894 57.1426 60.5316 56.4171 66.9366H55.7285V61.9183H55.9795V60.6234H56.4083V57.9676H55.7285V45.9427H55.9795V44.6487H56.4083V41.9919H55.6862C55.6431 40.5832 55.555 39.3231 55.4159 38.1459C53.8046 26.2796 53.5932 26.2776 53.1301 26.2716C52.6696 26.2726 52.453 26.2616 50.7764 38.0192C50.6171 39.3052 50.5123 40.6391 50.4638 41.9919H49.7515V44.6487H50.1812V45.9427H50.4313V57.9676H49.7515V60.6234H50.1812V61.9183H50.4313V66.9366L0 66.9376ZM218.029 45.1635C217.893 44.2905 218.007 43.4186 218.327 42.6573C218.292 43.1063 218.308 43.5642 218.378 44.0211C218.779 46.6001 220.821 48.383 223.065 48.2792C222.814 48.3979 222.549 48.4857 222.276 48.5396C221.674 48.6603 221.051 48.6064 220.476 48.3869L220.4 48.358L220.243 48.2842C219.073 47.7335 218.245 46.5682 218.029 45.1635ZM198.988 44.7185C199.191 45.2443 199.518 45.6982 199.944 46.0364C200.044 46.1163 200.148 46.1881 200.255 46.2509C200.25 46.2489 200.246 46.2479 200.241 46.246L200.104 46.1931C199.54 45.9217 199.132 45.378 198.988 44.7185ZM137.042 11.2936C136.305 8.82039 136.635 6.17657 137.856 4.07548C137.601 5.61987 137.698 7.22412 138.155 8.75554C139.603 13.6192 144.273 16.2391 148.567 14.5999C148.87 14.4842 149.165 14.3495 149.451 14.1968C148.617 15.2504 147.554 16.0475 146.338 16.5124C145.098 16.9863 143.759 17.0701 142.465 16.7559L142.218 16.696L142.148 16.675C139.741 15.9627 137.832 13.9504 137.042 11.2936ZM140.453 27.8988C140.453 27.6324 140.892 27.2693 141.601 27.1446L141.951 27.0827L142.137 23.5659L142.253 27.0827L142.608 27.1486C143.304 27.2763 143.734 27.6364 143.734 27.8978C143.734 28.1572 143.291 28.5722 142.458 28.678L142.159 28.7159L141.816 28.683C140.939 28.5992 140.453 28.1662 140.453 27.8988ZM101.295 32.545C101.195 31.9005 101.252 31.257 101.441 30.6713C101.437 30.9637 101.457 31.259 101.503 31.5543C101.843 33.7452 103.502 35.3055 105.393 35.3674C105.26 35.4143 105.123 35.4522 104.985 35.4791C104.461 35.5829 103.921 35.536 103.42 35.3454L103.361 35.3225L103.219 35.2556C102.202 34.7767 101.482 33.7641 101.295 32.545ZM82.6453 17.6757L82.7325 17.6188L82.8214 17.6797C82.8566 17.7036 82.9165 17.7575 82.9165 17.8473C82.9165 17.8682 82.906 17.9012 82.8848 17.9421L82.7325 18.2464L82.5802 17.9441C82.559 17.9022 82.5476 17.8692 82.5476 17.8473C82.5485 17.7505 82.6163 17.6947 82.6453 17.6757ZM65.6741 44.1668C65.5385 43.2919 65.652 42.4199 65.9734 41.6577C65.9373 42.1076 65.9541 42.5665 66.0245 43.0235C66.4243 45.6025 68.4838 47.4013 70.708 47.2825C70.458 47.4013 70.1938 47.488 69.9191 47.5429C69.3168 47.6636 68.6943 47.6088 68.1193 47.3893L68.0462 47.3613L67.8868 47.2865C66.7184 46.7368 65.8907 45.5705 65.6741 44.1668Z" fill="#E9BE6E"/>
</svg>
