<svg width="4" height="61" viewBox="0 0 4 61" fill="none" xmlns="http://www.w3.org/2000/svg">
<path fill-rule="evenodd" clip-rule="evenodd" d="M2.04125 53.1229H2.07373V53.1213H2.07548L2.07724 53.1199V53.1185H2.0787V53.1171L2.08016 53.1154H2.08192V53.114L2.08338 53.1123V53.1109H2.08499V53.1094L2.0866 53.1079V53.1065H2.08836V53.105L2.08953 53.1033V53.1019H2.09114V53.1001L2.0926 53.0988V53.0974L2.09435 53.0957V53.0944H2.09596V53.0926V53.0912L2.09743 53.0897V53.0885L2.09889 53.0866V53.0855L2.10079 53.0838V53.0822V53.0808L2.10211 53.079V53.0775V53.0761V53.0746L2.10342 53.0732V53.0715V53.07L2.10503 53.0686V53.0671V53.0656V53.0642V53.0625L2.10679 53.0613V53.0594V53.0584V53.0567V53.0553V53.0537V53.0523L2.10825 53.0506V53.0492V53.0478V53.0459V53.0445V53.0434V53.042V53.0386V53.037V53.0342V53.0311L2.10679 53.0281V53.0251V53.0233V53.0209L2.10503 53.0175V53.0148V53.0129L2.10342 53.0098V53.007L2.10211 53.004V53.0023L2.10079 52.9996L2.09889 52.9966V52.9951L2.09743 52.9921L2.09596 52.9888V52.9874L2.09435 52.9844L2.0926 52.9812L2.09114 52.9798L2.08953 52.9768L2.08836 52.9754L2.0866 52.9724L2.08499 52.9708L2.08338 52.9679L2.08192 52.9666L2.08016 52.9637L2.0787 52.962L2.07724 52.9603L2.07548 52.9575L2.07241 52.956L2.0708 52.9545L2.06919 52.9517L2.06612 52.95L2.06466 52.9484L2.0629 52.9469L2.05998 52.9453L2.05822 52.9423L2.05676 52.9411L2.05368 52.9392L2.05208 52.9378L2.04886 52.9363L2.04739 52.9347L2.04432 52.9333L2.04286 52.9319H2.04125V53.1229ZM1.91706 52.93L1.9153 52.9317L1.91267 52.9331H1.91091L1.90769 52.9346L1.90638 52.9361L1.90316 52.9377L1.9017 52.9391L1.89862 52.9409L1.89701 52.9439L1.89409 52.9452L1.89248 52.9467L1.89087 52.9483L1.8878 52.9499L1.88619 52.9516L1.88473 52.9544L1.88165 52.9558L1.88019 52.9574L1.87888 52.9588L1.87697 52.9618L1.87536 52.9635L1.87229 52.9647L1.87112 52.9676L1.86907 52.9693L1.86761 52.9721L1.86615 52.9738L1.86483 52.9766L1.86322 52.9783L1.86147 52.9812V52.983L1.86015 52.986L1.85869 52.9874L1.85708 52.9904L1.85532 52.9921V52.9951L1.85372 52.998L1.85225 52.9996V53.0023L1.85079 53.0057V53.007L1.84918 53.0098V53.0129L1.84743 53.0148V53.0175V53.0209L1.84611 53.0233V53.0251V53.0281V53.0311V53.0342V53.037V53.0386V53.042V53.0434V53.0445V53.0459V53.0478V53.0492V53.0506V53.0523V53.0537V53.0553L1.84743 53.0567V53.0584V53.0594V53.0613V53.0625L1.84918 53.0642V53.0656V53.0671V53.0686L1.85079 53.07V53.0715V53.0732H1.85225V53.0746V53.0761L1.85372 53.0775V53.079V53.0808L1.85532 53.0822V53.0838V53.0855L1.85708 53.0866V53.0885L1.85869 53.0897V53.0912H1.86015V53.0926L1.86147 53.0944V53.0957L1.86322 53.0974V53.0988L1.86483 53.1001V53.1019H1.86615V53.1033L1.86761 53.105V53.1065L1.86907 53.1079V53.1094L1.87112 53.1109H1.87229V53.1123L1.8739 53.114V53.1154L1.87536 53.1171L1.87697 53.1185L1.87888 53.1199V53.1213L1.88019 53.1229L1.88165 53.1243L1.88312 53.1257L1.88473 53.1271C1.89526 53.1257 1.90652 53.1257 1.91735 53.1243V52.93H1.91706ZM2.04125 0V52.8064C2.0474 52.8183 2.05222 52.8321 2.05222 52.8473V52.8502C2.1299 52.8803 2.18578 52.9557 2.18578 53.0386C2.18578 53.0734 2.17627 53.1021 2.16399 53.1273C3.13795 53.2075 3.91004 53.9867 3.94427 54.9498C3.89745 54.9257 3.80749 54.8911 3.64277 54.8533C3.22498 54.7525 0.814218 54.7525 0.396429 54.8533C0.177295 54.9076 0.0902568 54.9451 0.0560263 54.9708C0.0778227 54.0109 0.831187 53.2316 1.79286 53.1321C1.77575 53.1066 1.76785 53.0734 1.76785 53.0386C1.76785 52.9557 1.82373 52.8848 1.9017 52.8548V52.8474C1.9017 52.8293 1.90638 52.8142 1.9172 52.8006V0.000283285H2.04125V0ZM0.306171 56.1648C0.306171 55.943 0.486395 55.7666 0.714598 55.7666C0.939876 55.7666 1.12463 55.943 1.12463 56.1648V57.8736C1.12463 58.0922 0.93973 58.2716 0.714598 58.2716C0.486395 58.2716 0.306171 58.0922 0.306171 57.8736V56.1648ZM1.43534 55.9222C1.43534 55.6325 1.67627 55.3989 1.9744 55.3989C2.27106 55.3974 2.5136 55.6323 2.5136 55.9222V58.1632C2.5136 58.4529 2.27106 58.6877 1.9744 58.6877C1.67627 58.6877 1.43534 58.4527 1.43534 58.1632V55.9222ZM2.80998 56.1648C2.80998 55.943 2.99634 55.7666 3.22001 55.7666C3.44836 55.7666 3.63034 55.943 3.63034 56.1648V57.8736C3.63034 58.0922 3.44836 58.2716 3.22001 58.2716C2.99634 58.2716 2.80998 58.0922 2.80998 57.8736V56.1648ZM0.146137 55.2514V58.528V58.5397V58.7584L0.0343769 58.7914V58.9426C0.0343769 58.9426 0.03891 58.9466 0.055879 58.9588C0.0901095 58.9798 0.17715 59.0219 0.396284 59.072C0.814073 59.1773 3.22484 59.1773 3.64263 59.072C3.80734 59.0341 3.89731 59.0008 3.94412 58.9798C3.99678 58.9541 4 58.9425 4 58.9425V58.7913L3.88356 58.7583H3.81056V58.5396V58.5278V55.2436C3.82782 55.2554 3.84157 55.2676 3.84933 55.2813L3.96592 55.2464V55.0958C3.96592 55.0958 3.93914 55.0415 3.60386 54.9614C3.18607 54.862 0.779841 54.862 0.357372 54.9614C0.0250136 55.0414 0 55.0958 0 55.0958V55.2464L0.116733 55.2813C0.124633 55.2677 0.133557 55.2605 0.146137 55.2514ZM0.396284 59.2649C0.17715 59.2155 0.0901095 59.1731 0.055879 59.152C0.0807473 60.1738 0.939876 61 1.99927 61C3.05252 61 3.91003 60.1875 3.94412 59.1684C3.89731 59.1945 3.80734 59.2271 3.64263 59.2649C3.22499 59.3706 0.814219 59.3706 0.396284 59.2649Z" fill="#E9BE6E"/>
</svg>
