<svg width="6" height="88" viewBox="0 0 6 88" fill="none" xmlns="http://www.w3.org/2000/svg">
<path fill-rule="evenodd" clip-rule="evenodd" d="M3.06177 76.6363H3.11046V76.634H3.11287L3.11528 76.6319V76.63H3.11769V76.6278L3.11999 76.6254H3.12228V76.6232L3.12469 76.621V76.6189H3.12687V76.6167L3.12929 76.6146V76.6121H3.13204V76.6104L3.13388 76.6079V76.606H3.13629V76.6033L3.13859 76.6014V76.5995L3.14111 76.5968V76.5949H3.14329V76.5924V76.5905L3.14559 76.5883V76.5863L3.14777 76.5841V76.5819L3.15053 76.5798V76.5773V76.5754L3.15271 76.573V76.5708V76.5687V76.5664L3.15466 76.5643V76.5619V76.5598L3.15707 76.5577V76.5554V76.5533V76.5511V76.5488L3.15971 76.5466V76.5442V76.5427V76.54V76.5381V76.5358V76.5339L3.16201 76.531V76.5293V76.5272V76.5247V76.5222V76.5208V76.5186V76.5138V76.5117V76.5075V76.5031L3.15971 76.4989V76.4941V76.4919V76.4881L3.15707 76.4835V76.4796V76.4769L3.15466 76.4725V76.4683L3.15271 76.4642V76.4617L3.15053 76.4575L3.14777 76.4534V76.451L3.14559 76.4466L3.14329 76.442V76.4407L3.14111 76.4366L3.13859 76.4317L3.13629 76.4296L3.13388 76.4252L3.13204 76.4231L3.12929 76.4189L3.12687 76.4165L3.12469 76.4122L3.12228 76.4102L3.11999 76.4061L3.11769 76.4036L3.11528 76.4012L3.11287 76.3971L3.1085 76.3948L3.10575 76.3925L3.10357 76.3887L3.09897 76.3863L3.09668 76.3841L3.09438 76.3819L3.08979 76.3798L3.08726 76.3754L3.08497 76.3735L3.08049 76.3709L3.07808 76.3689L3.07325 76.3666L3.07119 76.3643L3.06637 76.3624L3.06418 76.3602H3.06189L3.06177 76.6363ZM2.87531 76.3579L2.87278 76.3603L2.86888 76.3625H2.86623L2.86141 76.3644L2.85935 76.3667L2.85452 76.369L2.85234 76.371L2.84775 76.3736L2.84534 76.3778L2.84074 76.38L2.83833 76.3821L2.83604 76.3843L2.83144 76.3865L2.8288 76.3889L2.82674 76.3927L2.82192 76.395L2.81973 76.3973L2.81755 76.3995L2.81502 76.4037L2.8125 76.4062L2.80791 76.4081L2.80584 76.4123L2.8032 76.4149L2.80079 76.4189L2.79861 76.4212L2.79665 76.4251L2.79401 76.4276L2.7916 76.4315V76.4342L2.78942 76.4384L2.78747 76.4405L2.78483 76.4449L2.78253 76.447V76.4514L2.78001 76.456L2.77771 76.458V76.4621L2.77553 76.4669V76.4689L2.77312 76.473V76.4774L2.77059 76.4801V76.4841V76.4887L2.76852 76.4924V76.4946V76.4995V76.5036V76.508V76.5122V76.5143V76.5191V76.5213V76.5228V76.5252V76.5277V76.5298V76.5316V76.5344V76.5364V76.5386L2.77059 76.5405V76.5432V76.5447V76.5472V76.5493L2.77312 76.5517V76.5538V76.5559V76.5582L2.77553 76.5603V76.5625V76.5648H2.77771V76.567V76.5692L2.78001 76.5714V76.5735V76.576L2.78253 76.5779V76.5803V76.5825L2.78483 76.5846V76.5869L2.78747 76.5888V76.591H2.78942V76.593L2.7916 76.5954V76.5973L2.79401 76.6V76.602L2.79665 76.6039V76.6066H2.79861V76.6085L2.80079 76.6109V76.6126L2.8032 76.6151V76.6172L2.80584 76.6194H2.80791V76.6215L2.8102 76.6238V76.6259L2.8125 76.6284L2.81502 76.6305L2.81755 76.6324V76.6346L2.81973 76.6368L2.82192 76.6392L2.82421 76.6411L2.82674 76.643C2.8427 76.6411 2.85946 76.6411 2.87554 76.6393L2.87531 76.3579ZM3.06177 0.000323218V76.1797C3.07119 76.197 3.07808 76.2169 3.07808 76.2384V76.243C3.19462 76.286 3.27832 76.3949 3.27832 76.5144C3.27832 76.5646 3.2642 76.6061 3.2456 76.6423C4.70679 76.758 5.86474 77.8824 5.91607 79.2717C5.84603 79.2368 5.711 79.1868 5.46391 79.1325C4.83711 78.9869 1.22099 78.9869 0.59419 79.1325C0.265577 79.2108 0.135142 79.2652 0.0838176 79.302C0.116541 77.9171 1.24671 76.7927 2.68907 76.6491C2.66323 76.6121 2.65152 76.5645 2.65152 76.5143C2.65152 76.3948 2.73546 76.2927 2.85211 76.2491V76.2382C2.85211 76.2123 2.85912 76.1904 2.87519 76.1709V0L3.06177 0.000323218ZM0.459277 81.0246C0.459277 80.7047 0.729677 80.45 1.07184 80.45C1.40987 80.45 1.68704 80.7047 1.68704 81.0246V83.49C1.68704 83.8052 1.40975 84.0639 1.07184 84.0639C0.729677 84.0639 0.459277 83.8052 0.459277 83.49V81.0246ZM2.15286 80.6746C2.15286 80.2566 2.51408 79.9199 2.96142 79.9199C3.40635 79.9174 3.77021 80.2566 3.77021 80.6746V83.9075C3.77021 84.3254 3.40635 84.6641 2.96142 84.6641C2.51408 84.6641 2.15286 84.3254 2.15286 83.9075V80.6746ZM4.21502 81.0246C4.21502 80.7047 4.4946 80.45 4.8301 80.45C5.17261 80.45 5.44554 80.7047 5.44554 81.0246V83.49C5.44554 83.8052 5.17261 84.0639 4.8301 84.0639C4.4946 84.0639 4.21502 83.8052 4.21502 83.49V81.0246ZM0.219075 79.7068V84.4338V84.4507V84.7664L0.0513241 84.814V85.0319C0.0513241 85.0319 0.0583277 85.038 0.0838176 85.0555C0.135257 85.0858 0.265691 85.1467 0.59419 85.2189C1.22099 85.3706 4.83722 85.3706 5.46391 85.2189C5.711 85.1641 5.84614 85.1161 5.91607 85.0858C5.99529 85.049 6 85.0319 6 85.0319V84.814L5.82524 84.7664H5.71571V84.4507V84.4338V79.6961C5.74154 79.713 5.76244 79.7305 5.77381 79.7504L5.94879 79.7V79.4827C5.94879 79.4827 5.90895 79.4047 5.40581 79.2888C4.77901 79.1454 1.16978 79.1454 0.535862 79.2888C0.0374311 79.4045 0 79.4827 0 79.4827V79.7L0.174984 79.7504C0.18681 79.7306 0.200474 79.7199 0.219075 79.7068ZM0.59419 85.4969C0.265577 85.4255 0.135142 85.3643 0.0838176 85.3338C0.121134 86.8079 1.40987 88 2.99885 88C4.57877 88 5.86486 86.828 5.91618 85.3579C5.84614 85.3953 5.71111 85.4425 5.46402 85.4971C4.83711 85.6493 1.22099 85.6493 0.59419 85.4969Z" fill="#E9BE6E"/>
</svg>
