<svg width="57" height="57" viewBox="0 0 57 57" fill="none" xmlns="http://www.w3.org/2000/svg">
<path d="M29.9487 3.41603C29.9041 3.4016 29.8287 3.37701 29.1458 3.73545C28.7245 3.95977 28.0733 4.32753 27.2808 4.93138C26.8087 5.29338 26.4242 5.63713 26.0716 6.01182C25.8481 6.2456 25.6461 6.49041 25.4694 6.73762C25.2566 7.02867 25.0808 7.3313 24.9452 7.63577C24.7816 8.00065 24.6757 8.36892 24.6289 8.73532L24.6214 8.82418C24.2331 9.08562 23.8581 9.41749 23.5029 9.81288C23.0948 10.2761 22.7628 10.732 22.5011 11.1932C22.2632 11.5735 22.0518 12.0172 21.8506 12.5146C21.6036 12.3959 21.3494 12.2932 21.0863 12.2161C20.597 12.0868 20.0938 12.0573 19.6343 12.13C19.1954 12.1887 18.7582 12.3751 18.3305 12.6877L18.0666 12.8988C18.0137 12.9497 17.9642 13.0035 17.9147 13.0572L17.8486 13.1286C17.7171 13.2563 17.6202 13.3951 17.5268 13.5296L17.4636 13.6204C17.3451 13.7717 17.2611 13.9357 17.1796 14.0951L17.1584 14.1368C17.0703 14.2853 17.0172 14.4409 16.9662 14.5924L16.9349 14.6839C16.8258 15.0103 16.7748 15.3767 16.7844 15.7757C16.7904 15.8917 16.8088 16.0049 16.8267 16.1163C16.8352 16.1686 16.8437 16.2202 16.856 16.2951C16.8867 16.3914 16.9095 16.4885 16.9315 16.5849C16.9436 16.6366 16.9559 16.6878 16.9727 16.7524C16.9961 16.816 17.0154 16.8819 17.0346 16.9471C17.0579 17.0276 17.0816 17.1085 17.115 17.1924C17.1366 17.2404 17.1571 17.2897 17.1773 17.3394C17.2147 17.4305 17.2524 17.5211 17.3018 17.6099C17.3787 17.7347 17.4568 17.859 17.5499 17.98C17.6417 18.0807 17.7407 18.1771 17.8551 18.2741C18.1055 18.4504 18.3288 18.5563 18.5354 18.5976L18.6112 18.6151C18.6922 18.6349 18.776 18.6547 18.8621 18.6551C18.9664 18.6586 19.0651 18.6551 19.1812 18.6456C19.2199 18.6425 19.2574 18.6391 19.3079 18.6305L19.4291 18.5974C19.5077 18.5745 19.5785 18.5515 19.6379 18.5299C19.7668 18.4886 19.8701 18.4276 19.9616 18.3735C20.0351 18.3314 20.0883 18.3053 20.1237 18.2867C20.1819 18.2581 20.2628 18.2157 20.2551 18.116C20.2462 18.0161 20.1587 17.9938 20.1064 17.9808C20.0693 17.9712 20.0098 17.9566 19.9234 17.9271C19.7824 17.8857 19.5516 17.7505 19.363 17.641C19.279 17.5944 19.194 17.5439 19.1045 17.4911C18.9452 17.397 18.7736 17.2954 18.5867 17.2015C18.5034 17.1473 18.4175 17.1013 18.338 17.068L18.2373 17.0063C18.1845 16.9738 18.1304 16.9394 18.0767 16.9104C18.0135 16.8698 17.9545 16.8208 17.8926 16.7694L17.8254 16.7142C17.7593 16.6525 17.701 16.5724 17.6401 16.4879L17.6173 16.4573C17.5591 16.3543 17.5177 16.2318 17.4865 16.1445C17.4818 16.091 17.4747 16.0362 17.4675 15.9813C17.4572 15.9008 17.4459 15.8188 17.4446 15.7386C17.4479 15.4171 17.4941 15.1381 17.5844 14.8902L17.6208 14.792C17.6633 14.6739 17.704 14.5631 17.7726 14.4533L17.8081 14.3883C17.8763 14.2604 17.9407 14.1404 18.035 14.0259L18.1056 13.9289C18.1863 13.8168 18.2626 13.7107 18.3608 13.6194L18.4335 13.5427C18.4706 13.5027 18.5077 13.4635 18.563 13.4147L18.7549 13.2669C19.3004 12.8451 20.0918 12.7227 20.8688 12.939C21.1176 13.0134 21.3579 13.1206 21.5934 13.2427C21.3154 14.1644 21.1609 15.1901 21.1499 16.3125C21.1358 17.3644 21.2361 18.4298 21.3333 19.46L21.3894 20.0843C21.4117 20.3598 21.4328 20.64 21.4475 20.9193C21.3459 21.0113 21.2513 21.1085 21.1436 21.1967C20.6957 21.5565 20.1873 21.8852 19.6326 22.1737C19.6038 22.1889 19.5708 22.2006 19.5411 22.2159C19.41 21.6937 19.1693 21.1978 18.824 20.7645C17.9314 19.6271 16.4055 18.9577 14.8425 19.0168C14.0486 19.041 13.2036 19.3348 12.4631 19.8449C11.7437 20.3472 11.1378 21.0108 10.7103 21.767C10.3643 22.386 10.1451 23.0468 10.0611 23.7087C9.30023 23.8054 8.50972 23.9411 7.72011 24.1507C7.48421 24.2195 7.24867 24.2937 7.01276 24.3684L6.64404 24.4848C6.23999 24.6434 5.90614 24.7822 5.58519 24.9261L4.99037 25.243C4.93343 25.2734 4.87722 25.303 4.81367 25.3403L4.57172 25.5029C4.51722 25.5406 4.46226 25.5771 4.4073 25.6136C4.29852 25.6861 4.18968 25.7579 4.08172 25.8429L3.62801 26.2273C2.98529 26.8269 2.51421 27.4985 2.22545 28.2248C2.14787 28.4141 2.09283 28.6117 2.03173 28.8306L2.02168 28.8811C1.98351 29.0664 1.94383 29.2586 1.93402 29.4571C1.90594 29.8926 1.9406 30.3146 2.03505 30.7078C2.20776 31.5048 2.56876 32.2618 3.07291 32.8892C3.16339 33.0234 3.2728 33.1346 3.37924 33.2426L3.69123 33.5624C3.74048 33.6067 3.79306 33.648 3.84523 33.6888L3.92648 33.7538C3.97974 33.7934 4.03118 33.8352 4.08262 33.8769C4.18258 33.9579 4.28587 34.0418 4.40131 34.1131L4.89037 34.4077C5.00918 34.4885 5.13683 34.5422 5.2589 34.5948C5.31426 34.6184 5.36963 34.6421 5.43081 34.6708C5.49019 34.6956 5.54893 34.7229 5.60799 34.749C5.72625 34.8036 5.84484 34.8569 5.96968 34.8978L6.57309 35.0847C6.73473 35.1356 6.90234 35.188 7.07176 35.2139L7.62242 35.3209C7.80672 35.358 7.99701 35.3965 8.18946 35.408C8.31938 35.4186 8.44911 35.4319 8.57841 35.4449C8.8192 35.4689 9.05958 35.4926 9.30424 35.5037L10.4014 35.5104C10.4337 35.5106 10.4648 35.5062 10.4977 35.5055C10.4847 35.7811 10.4873 36.0552 10.52 36.321C10.6266 37.1997 10.9868 38.0528 11.5636 38.788C12.0903 39.4531 12.78 39.9938 13.5584 40.3517C14.3599 40.7145 15.2342 40.844 16.0197 40.7166C17.5722 40.4778 18.9862 39.5267 19.7081 38.2322C20.0645 37.6036 20.2477 36.9091 20.2379 36.2239C20.2363 36.0438 20.2166 35.8629 20.1878 35.681C20.5543 35.7711 20.9115 35.8687 21.2486 35.9847C21.5343 36.0817 21.8085 36.1897 22.0738 36.3064C22.0832 36.3476 22.0929 36.3884 22.1035 36.4308C22.1371 36.5541 22.1573 36.688 22.1791 36.8419C22.2637 37.3486 22.2952 37.8905 22.3259 38.4147L22.3566 39.0393C22.4034 40.0746 22.4526 41.1443 22.6122 42.1799C22.7569 43.1369 22.9933 44.0068 23.3152 44.7799C22.8346 44.8369 22.3545 44.7871 21.9304 44.6027C21.6479 44.4884 21.3724 44.3062 21.085 44.0436C20.8649 43.8555 20.6754 43.6012 20.5239 43.2899C20.2935 42.7997 20.2242 42.2447 20.3376 41.8053C20.4419 41.3876 20.6308 41.0621 20.8002 40.7998C21.0027 40.4956 21.223 40.2192 21.393 40.0127C21.5475 39.8226 21.6843 39.6735 21.787 39.5618C21.9905 39.3397 22.0681 39.2539 22.0185 39.1435C21.9662 39.0109 21.796 39.0205 21.6093 39.0435C21.3582 39.0779 21.114 39.1404 20.8621 39.2355C20.5826 39.3453 20.1646 39.5378 19.7672 39.9421C19.5474 40.1673 19.3748 40.4114 19.2483 40.6749C19.0924 40.9997 19.0104 41.3567 19.0106 41.707C19.0078 42.0667 19.0914 42.4447 19.2521 42.7993C19.389 43.1032 19.5749 43.3995 19.8413 43.7365C19.9199 43.8265 19.9958 43.9188 20.0726 44.0125C20.228 44.2022 20.3885 44.3977 20.5785 44.5823C20.9098 44.9082 21.2474 45.145 21.6078 45.3045C22.2254 45.5944 22.9646 45.6772 23.6819 45.5514C23.6828 45.5528 23.6833 45.5548 23.6842 45.5563C23.9992 46.1202 24.3179 46.5847 24.6542 46.9704C24.9794 47.3783 25.3675 47.7624 25.8404 48.1459C26.2476 48.4688 26.6662 48.7245 27.0867 48.9081L27.1062 48.9949C27.2019 49.342 27.3575 49.6847 27.5691 50.0125C27.7463 50.2904 27.956 50.5471 28.2097 50.7987C28.4212 51.0119 28.6494 51.2091 28.9051 51.4011C29.3071 51.704 29.7338 51.9696 30.2497 52.2362C30.9033 52.5724 31.5593 52.8418 32.2559 53.0611C32.9788 53.2851 33.0493 53.2464 33.0914 53.2233L33.1456 53.1927L33.1628 53.1372C33.2042 53.0012 33.1429 52.9769 32.7415 52.8164L32.4014 52.6794C31.9973 52.5121 31.3211 52.2327 30.5118 51.7686C30.0301 51.4907 29.6386 51.2234 29.2776 50.9281C29.0562 50.7508 28.8504 50.5586 28.6643 50.3568C28.4542 50.1343 28.2742 49.8985 28.1286 49.6551C28.0321 49.4943 27.9519 49.3312 27.8877 49.167C28.258 49.2434 28.6259 49.2578 28.9734 49.2075C29.5715 49.1276 30.1385 48.8408 30.527 48.4215C30.9695 47.9551 31.1826 47.3511 31.1189 46.7854C31.1006 46.6265 31.0643 46.4794 31.0106 46.3485L30.9732 46.2575C30.9614 46.2275 30.9348 46.1811 30.8914 46.1123C30.8392 46.0403 30.7804 45.9768 30.7093 45.916C30.4524 45.706 30.184 45.609 29.9774 45.5483C29.4663 45.4034 28.9494 45.405 28.4838 45.5523C27.995 45.7005 27.5603 46.0575 27.3215 46.5096C27.1277 46.8737 27.0212 47.2814 26.996 47.754C26.8205 47.6418 26.6463 47.5136 26.474 47.3708C26.0686 47.028 25.7239 46.6714 25.4463 46.3056C25.1936 46.0047 24.9531 45.6359 24.7138 45.2082C25.2799 44.9384 25.795 44.5504 26.2077 44.0675C26.4168 43.8228 26.6005 43.5557 26.7524 43.2718C27.0387 42.7363 27.2036 42.1591 27.2306 41.6036C27.2648 41.01 27.1577 40.3991 26.921 39.837C26.8458 39.6546 26.7573 39.4844 26.672 39.3205C26.6267 39.2346 26.5821 39.1477 26.5337 39.0502C26.4177 38.8498 26.2909 38.6528 26.1633 38.4551L26.0609 38.296C25.9981 38.2186 25.9376 38.1395 25.8766 38.0601C25.7585 37.906 25.6365 37.7471 25.4986 37.5952L25.026 37.1027C24.9896 37.0686 24.9513 37.0359 24.913 37.0032L24.8523 36.9513C24.3629 36.5139 23.805 36.1331 23.1952 35.8011C23.1828 35.7491 23.1728 35.6985 23.1571 35.6444L22.9903 35.1606C22.9279 34.9927 22.8554 34.8399 22.7869 34.6986C22.2047 33.5139 21.4353 32.4412 20.5003 31.5092C19.7068 30.7276 18.9182 30.1829 18.0903 29.8434C17.9744 29.7946 17.856 29.7511 17.7376 29.7119C17.9641 29.6077 18.1861 29.4879 18.3986 29.3495C18.975 28.98 19.5141 28.5008 20.0326 27.8941C20.2055 27.6909 20.3768 27.4745 20.5459 27.243C21.3364 26.1469 21.9446 24.9407 22.3541 23.6579C22.3997 23.5136 22.451 23.344 22.4905 23.1612L22.5875 22.6493C22.6046 22.5332 22.6125 22.4188 22.6204 22.3051L22.6328 22.1465C22.6512 21.9716 22.6503 21.8017 22.648 21.646C22.6514 21.3497 22.6387 21.0603 22.6186 20.7764C22.7258 20.6552 22.8396 20.5397 22.9393 20.4129C23.7269 19.4096 24.2345 18.2689 24.4084 17.1127C24.5017 16.498 24.4901 15.9118 24.3728 15.3735C24.315 15.0898 24.2151 14.8124 24.0731 14.5447L23.9599 14.3512L23.8347 14.1784C23.7599 14.0747 23.6826 13.9672 23.5968 13.8747C23.3371 13.567 23.0426 13.3042 22.7321 13.0677C22.925 12.5329 23.1308 12.0823 23.3646 11.6925C23.5831 11.2867 23.8744 10.8692 24.2289 10.4518C24.3798 10.2771 24.5347 10.1169 24.693 9.97289C24.7838 10.4369 24.9463 10.8196 25.189 11.143C25.4874 11.5428 25.9658 11.8135 26.4682 11.866C26.9499 11.9223 27.4605 11.8253 27.9451 11.5833C28.139 11.4845 28.391 11.3379 28.6165 11.0791C28.6774 11.007 28.7267 10.9325 28.7804 10.8232C28.7999 10.7786 28.8205 10.7267 28.8269 10.6982L28.8524 10.5966C28.8869 10.4569 28.9021 10.3051 28.8979 10.1449C28.8826 9.5748 28.5785 9.01415 28.0877 8.64574C27.6444 8.30604 27.0457 8.13132 26.4451 8.16696C26.0954 8.18437 25.7348 8.26852 25.3798 8.41434C25.4207 8.24017 25.4774 8.06257 25.5506 7.88427C25.6585 7.61815 25.8033 7.35104 25.981 7.08917C26.1341 6.85947 26.3081 6.63061 26.5069 6.40893C26.8216 6.04912 27.1711 5.71092 27.6064 5.3456C28.3439 4.73024 28.9696 4.32664 29.344 4.08576L29.6612 3.88552C30.0329 3.65197 30.0902 3.61603 30.0329 3.49019L30.0065 3.43513L29.9487 3.41603ZM25.3402 9.47759C25.7162 9.24482 26.1071 9.1083 26.4767 9.08277C26.8772 9.05048 27.2572 9.14915 27.5494 9.36333C27.8414 9.57082 28.0317 9.89154 28.0452 10.2001C28.0493 10.2863 28.0436 10.3612 28.028 10.4292L28.0076 10.5078C28.0002 10.5207 27.9898 10.537 27.9764 10.5535C27.898 10.6638 27.7483 10.7665 27.5824 10.8537C27.2571 11.0271 26.8881 11.1093 26.5695 11.0794C26.2578 11.0516 25.9787 10.9039 25.785 10.6638C25.604 10.4367 25.4675 10.128 25.3924 9.77195C25.3711 9.66802 25.3541 9.57078 25.3402 9.47759ZM21.5734 35.0874C21.0377 34.9038 20.469 34.7539 19.8666 34.6314C19.8316 34.5528 19.8005 34.4737 19.7604 34.3951C19.4705 33.8659 19.0489 33.4384 18.54 33.1586C18.0418 32.8865 17.498 32.7705 16.9691 32.8217C16.4651 32.8689 15.9646 33.1454 15.6314 33.5403C15.4549 33.7545 15.3104 33.9952 15.1848 34.2794C14.6691 34.2924 14.1327 34.3135 13.5456 34.3526L12.8882 34.4151C12.5681 34.4459 12.2505 34.4722 11.9329 34.4993C11.9832 34.3435 12.0395 34.1884 12.1088 34.0357C12.2563 33.6844 12.4731 33.3474 12.6788 33.0385C12.8785 32.7703 13.1464 32.4222 13.4558 32.114C13.7408 31.805 14.072 31.5531 14.3523 31.3523C14.6915 31.1323 15.0367 30.9685 15.378 30.8657C16.0597 30.6585 16.8234 30.7126 17.5869 31.0238C18.2582 31.2939 18.9406 31.7632 19.6155 32.4183C20.4024 33.1891 21.0831 34.1144 21.6016 35.099C21.5919 35.0952 21.583 35.0905 21.5734 35.0874ZM2.72721 29.4885C2.7318 29.3483 2.75992 29.2076 2.78867 29.0585L2.81655 28.9383C2.85686 28.7917 2.89878 28.6399 2.95552 28.4985C2.99051 28.4087 3.03595 28.3227 3.07734 28.2347C3.31326 27.9198 3.67971 27.5466 4.22293 27.2876C4.63113 27.0963 5.06394 26.9993 5.47489 27.0062C5.83565 27.0145 6.36844 27.0886 6.86072 27.3963C7.07548 27.5207 7.27598 27.6854 7.45692 27.8873C7.63994 28.0851 7.78899 28.31 7.90115 28.5595C8.1374 29.0547 8.20763 29.6482 8.09947 30.2288C7.97871 30.809 7.68734 31.3395 7.27418 31.7252C7.07817 31.9175 6.85295 32.0775 6.60381 32.2022C6.35987 32.3284 6.11057 32.4146 5.85819 32.4597C5.28551 32.5806 4.76015 32.47 4.4208 32.3566C4.03395 32.2254 3.66652 31.989 3.35875 31.6735C3.27274 31.5838 3.19799 31.4918 3.12906 31.3989C2.99732 31.1142 2.89109 30.8173 2.82075 30.5104C2.74042 30.1891 2.70817 29.846 2.72721 29.4885ZM5.98878 33.3035C6.32056 33.2531 6.65338 33.1467 6.97841 32.987C7.30906 32.8293 7.61244 32.6209 7.87687 32.3696C7.98177 32.2738 8.08038 32.1719 8.17307 32.0634C8.57445 31.5937 8.85848 31.0112 8.9871 30.383C9.13411 29.6095 9.03527 28.8187 8.70894 28.1593C8.55631 27.8316 8.35267 27.535 8.10537 27.2793C7.86338 27.0208 7.59261 26.8086 7.30418 26.6508C6.64217 26.2645 5.95185 26.1962 5.48862 26.2067C5.23097 26.2133 4.97084 26.254 4.71447 26.3223C4.7498 26.2979 4.78382 26.2715 4.81919 26.2478C4.87489 26.2105 4.93058 26.1731 4.9831 26.1352L5.19853 25.9876C5.24771 25.9587 5.29745 25.9325 5.34756 25.9059L5.90035 25.6069C6.18688 25.4772 6.5011 25.3446 6.87969 25.1931L7.25948 25.0721C7.47378 25.0033 7.68767 24.9342 7.8992 24.8711C8.60659 24.6777 9.32088 24.5478 10.0269 24.4538C10.0504 25.3479 10.3361 26.2688 10.8382 27.051C11.0922 27.4691 11.4139 27.8297 11.7005 28.1389C11.9674 28.401 12.3269 28.7385 12.7377 29.0312C13.0694 29.2866 13.4599 29.5154 13.9725 29.7539C14.1114 29.8121 14.2502 29.8501 14.3891 29.8957C14.1462 30.008 13.9046 30.14 13.6657 30.2956C13.1938 30.6297 12.8402 30.9297 12.5578 31.2365C12.1878 31.6089 11.8797 32.0098 11.6507 32.3224C11.3592 32.7596 11.1293 33.1365 10.9565 33.5518C10.8061 33.8895 10.7019 34.243 10.6227 34.5994C10.5503 34.6033 10.4778 34.6123 10.4064 34.6125L9.35491 34.6146C9.13284 34.6066 8.91115 34.5863 8.68909 34.5665C8.56104 34.5545 8.43262 34.5431 8.29957 34.5328C8.12976 34.5251 7.95946 34.4919 7.7939 34.459L7.2651 34.3617C7.12003 34.3419 6.9817 34.2991 6.83458 34.2539L6.26443 34.0828C6.16056 34.0502 6.06221 34.0061 5.96345 33.9616C5.90398 33.9351 5.84529 33.9086 5.79164 33.8871C5.73654 33.8615 5.67962 33.8379 5.62269 33.8144C5.51691 33.7706 5.41679 33.7293 5.32352 33.6666L4.86836 33.3981C4.80661 33.3608 4.75055 33.3144 4.69344 33.27C5.06666 33.3488 5.505 33.3902 5.98878 33.3035ZM18.0261 25.5506C17.6742 25.8461 17.2534 26.031 16.84 26.0708C16.4716 26.1084 16.1093 25.9923 15.8206 25.7464C15.5869 25.5422 15.3847 25.2733 15.2196 24.9468C15.2006 24.7458 15.2426 24.5121 15.3367 24.2984C15.3683 24.2286 15.402 24.1689 15.4357 24.1075C15.6699 24.0837 15.9026 24.0558 16.1335 24.0197C17.1689 23.8554 18.1169 23.6002 18.9734 23.2652C18.981 23.6101 18.9358 23.9756 18.8284 24.3456C18.6769 24.816 18.3929 25.2427 18.0261 25.5506ZM16.37 23.2325C16.394 23.2212 16.4117 23.2098 16.4436 23.1978C16.5029 23.1739 16.5578 23.1492 16.6173 23.1209C16.6639 23.0958 16.7097 23.0802 16.7511 23.0654C16.7972 23.0494 16.8394 23.0337 16.8698 23.0175C17.0128 22.9521 17.1759 22.8581 17.1777 22.7052C17.1797 22.5133 16.9292 22.4484 16.8273 22.4219L16.7739 22.4103C16.6961 22.3918 16.5987 22.3685 16.4864 22.3752C16.4204 22.3757 16.3487 22.3779 16.2743 22.3824C16.2081 22.3849 16.1072 22.3917 15.9874 22.4275C15.9028 22.449 15.8132 22.4722 15.7048 22.5096C15.6092 22.5542 15.5087 22.6043 15.3938 22.6672C15.2936 22.733 15.1997 22.8109 15.0704 22.9235L15.0094 22.994C14.9376 23.0738 14.8605 23.1615 14.8116 23.2616C14.7782 23.3151 14.7498 23.3728 14.7235 23.433C14.1856 23.4669 13.6378 23.482 13.0726 23.4955C12.7228 23.5038 12.3694 23.5121 12.0081 23.5263C11.7942 23.5407 11.5653 23.5601 11.3394 23.5784C11.4166 23.1604 11.5562 22.7426 11.7725 22.343C12.4453 21.116 13.6956 20.2266 14.8803 20.1301C16.1415 20.0198 17.4055 20.4758 18.1788 21.3206C18.5056 21.6745 18.7335 22.0902 18.8598 22.5313C18.1138 22.8372 17.2769 23.0685 16.37 23.2325ZM15.7974 34.2651C15.8726 34.1292 15.9542 34.0016 16.047 33.8889C16.0496 33.8859 16.0521 33.8829 16.0547 33.8799C16.3057 33.5861 16.6444 33.4064 17.0099 33.3729C17.4171 33.3345 17.8697 33.4392 18.2519 33.6608C18.592 33.8569 18.8819 34.1519 19.0926 34.4968C18.6422 34.4273 18.1794 34.3665 17.6853 34.3255C17.0917 34.2814 16.4693 34.2616 15.7974 34.2651ZM12.9823 35.3252L13.5885 35.2721C14.0944 35.242 14.5604 35.2249 15.0106 35.2137C15.0138 35.3649 15.0225 35.5224 15.044 35.6834C15.1004 36.0403 15.2196 36.3262 15.3903 36.5216C15.4609 36.621 15.5512 36.6938 15.6305 36.7578L15.7204 36.8295C15.8396 36.8989 15.947 36.9603 16.0665 37.0108C16.1773 37.0463 16.2837 37.0767 16.4 37.1059C16.4955 37.1188 16.5854 37.1247 16.6848 37.1306C16.7987 37.1422 16.8988 37.1295 16.9606 37.1195C17.0374 37.1098 17.1093 37.0981 17.1667 37.0865C17.2854 37.0706 17.3786 37.0298 17.453 36.9958L17.5103 36.9709C17.6002 36.9288 17.8389 36.8188 17.8095 36.6274C17.7867 36.4764 17.6122 36.4152 17.4697 36.3806C17.4304 36.3685 17.3871 36.361 17.3399 36.3539C17.2967 36.3472 17.2487 36.3402 17.1909 36.3219C17.1366 36.308 17.0787 36.294 17.011 36.2805C16.9503 36.2707 16.9024 36.2585 16.8475 36.2368L16.6757 36.186C16.6114 36.1525 16.5434 36.1217 16.4902 36.1014L16.313 35.9928C16.2866 35.9673 16.2568 35.944 16.2267 35.9212C16.1965 35.8984 16.168 35.877 16.1316 35.837C16.0119 35.7369 15.8909 35.5921 15.7716 35.4082C15.73 35.3431 15.703 35.272 15.6732 35.2015C16.3574 35.1988 16.9884 35.2194 17.5873 35.2658C18.2604 35.3231 18.8835 35.4086 19.4703 35.5207C19.5159 35.7613 19.5353 35.9989 19.5219 36.2268C19.4954 36.7708 19.3107 37.3156 18.9871 37.8029C18.3448 38.7819 17.1601 39.4732 15.8992 39.6066C14.718 39.7379 13.3615 39.1003 12.5253 38.0199C12.0909 37.4507 11.823 36.8014 11.7492 36.1413C11.7228 35.9068 11.7284 35.667 11.748 35.4266C12.1691 35.3964 12.5785 35.3613 12.9823 35.3252ZM13.5079 27.9834C13.1641 27.7421 12.8512 27.4511 12.6215 27.2296C12.3708 26.9585 12.1094 26.6671 11.9144 26.3468C11.5148 25.7312 11.2923 25.0379 11.2711 24.3416C11.2706 24.3345 11.2721 24.3277 11.272 24.3202C11.5263 24.2981 11.7802 24.2765 12.0285 24.2589C12.3995 24.2427 12.7724 24.2334 13.1446 24.2241C13.6184 24.2123 14.0995 24.1994 14.5806 24.1731C14.5841 24.5101 14.6339 24.8268 14.6849 25.1083L14.7062 25.1634C14.9227 25.5915 15.1616 25.9109 15.4585 26.1684C15.8437 26.502 16.3745 26.6711 16.8768 26.6216C17.407 26.5716 17.9269 26.3532 18.3808 25.9889C18.8439 25.6163 19.2007 25.1137 19.4133 24.533C19.5949 23.9936 19.6703 23.4699 19.6497 22.9684C19.751 22.9205 19.8586 22.878 19.9563 22.8278C20.5008 22.5469 20.9986 22.2239 21.4534 21.8745C21.4509 21.944 21.4526 22.0179 21.4443 22.084C21.4384 22.138 21.4342 22.1927 21.4295 22.2471C21.4226 22.3335 21.4156 22.4192 21.403 22.4971L21.3204 22.9046C21.2903 23.0376 21.2467 23.177 21.2022 23.3125C20.8249 24.4456 20.2515 25.5522 19.544 26.5131C18.9693 27.2883 18.3611 27.8805 17.734 28.2755C17.0262 28.7272 16.2815 28.9256 15.5789 28.8505C15.2308 28.8138 14.8683 28.7183 14.5085 28.5681C14.1789 28.4113 13.8297 28.2319 13.5079 27.9834ZM24.2218 37.6604C25.0014 38.3421 25.644 39.2252 26.0798 40.2123C26.2682 40.6489 26.3573 41.1218 26.3374 41.5806C26.3224 42.0067 26.1994 42.4556 25.9807 42.8783C25.6251 43.5673 25.0362 44.125 24.3508 44.4628C24.0519 43.7368 23.8361 42.9111 23.7134 41.9906C23.5814 41.0222 23.5509 40.0216 23.5182 38.9622L23.4948 38.3039C23.4766 37.8931 23.4492 37.4693 23.4031 37.0405C23.6927 37.2333 23.97 37.437 24.2218 37.6604ZM23.0182 14.3798C23.0913 14.4586 23.1536 14.5458 23.2271 14.6485L23.3257 14.7808L23.4081 14.9236C23.5152 15.1252 23.5907 15.3367 23.6343 15.5543C23.7341 15.9979 23.7435 16.4914 23.6626 17.0199C23.5227 17.9562 23.1229 18.8823 22.5218 19.7229L22.4788 19.3116C22.3634 18.2613 22.2538 17.2692 22.2502 16.2894C22.2438 15.4099 22.3292 14.5964 22.5018 13.8587C22.685 14.0183 22.8597 14.1905 23.0182 14.3798ZM27.9746 46.8675C28.1323 46.5929 28.388 46.3939 28.6933 46.3062C29.0017 46.2158 29.3775 46.2267 29.7249 46.3366C29.9001 46.3903 30.0562 46.4713 30.1542 46.5579C30.1709 46.5729 30.1836 46.5867 30.1913 46.5978C30.1953 46.6049 30.1988 46.6094 30.1988 46.6094L30.2222 46.673C30.2467 46.7361 30.2624 46.8078 30.2704 46.8937C30.2995 47.2008 30.1542 47.5554 29.8958 47.8148C29.6385 48.0796 29.2772 48.2496 28.8771 48.2933C28.5095 48.3375 28.1038 48.2774 27.7001 48.1179C27.7007 48.0253 27.7045 47.9274 27.7103 47.8237C27.7363 47.4572 27.8277 47.1261 27.9746 46.8675Z" fill="#E9BE6E"/>
</svg>
