<svg width="58" height="58" viewBox="0 0 58 58" fill="none" xmlns="http://www.w3.org/2000/svg">
<path d="M26.15 53.7836C26.1937 53.8002 26.2679 53.8284 26.9676 53.5041C27.3994 53.3008 28.068 52.9655 28.8893 52.4015C29.3786 52.0632 29.7799 51.7391 30.1502 51.3819C30.385 51.1594 30.5988 50.9249 30.7875 50.6867C31.0143 50.4065 31.2052 50.1132 31.3553 49.8154C31.5366 49.4591 31.6606 49.0965 31.7253 48.7328L31.7372 48.6444C32.1379 48.4024 32.5289 48.0895 32.9031 47.712C33.3335 47.2695 33.6872 46.8302 33.9717 46.3828C34.2281 46.0146 34.4611 45.5819 34.6865 45.095C34.9274 45.2258 35.1758 45.3413 35.4352 45.4308C35.9175 45.584 36.4185 45.6383 36.8811 45.5883C37.3223 45.5514 37.7682 45.3867 38.2108 45.0955L38.4848 44.8976C38.5401 44.8494 38.5922 44.7982 38.6439 44.7466L38.7134 44.6786C38.851 44.5574 38.9543 44.4233 39.0546 44.2939L39.1222 44.2063C39.248 44.061 39.34 43.9014 39.4296 43.7466L39.4525 43.7056C39.5478 43.5615 39.6085 43.4087 39.6669 43.26L39.7027 43.1702C39.8277 42.8495 39.8968 42.4861 39.9068 42.0871C39.9066 41.971 39.8938 41.8569 39.8814 41.7449C39.8755 41.6922 39.8695 41.6402 39.8609 41.5649C39.835 41.4671 39.817 41.369 39.7997 41.2716C39.7903 41.2195 39.7804 41.1677 39.7668 41.1023C39.7466 41.0377 39.7306 40.9709 39.7147 40.9048C39.6954 40.8233 39.6756 40.7413 39.6464 40.6558C39.6272 40.6068 39.6092 40.5566 39.5915 40.5059C39.5587 40.4132 39.5254 40.3208 39.4804 40.2297C39.4098 40.1012 39.338 39.9732 39.2509 39.8478C39.1641 39.7427 39.07 39.6416 38.9606 39.539C38.7192 39.3507 38.5013 39.2339 38.2971 39.1824L38.2226 39.1616C38.1427 39.1379 38.06 39.1139 37.974 39.1093C37.87 39.1007 37.7712 39.0993 37.6548 39.103C37.616 39.1043 37.5784 39.1058 37.5276 39.1119L37.4053 39.1386C37.3256 39.1576 37.2538 39.1771 37.1933 39.1958C37.0626 39.2307 36.9564 39.2865 36.8623 39.336C36.7869 39.3744 36.7324 39.3979 36.6962 39.4147C36.6367 39.4404 36.5538 39.4788 36.5565 39.5787C36.5605 39.679 36.6468 39.7055 36.6984 39.721C36.735 39.7324 36.7937 39.75 36.8785 39.7837C37.0173 39.832 37.2411 39.9784 37.4241 40.097C37.5057 40.1478 37.5881 40.2024 37.6749 40.2595C37.8294 40.3613 37.9958 40.4713 38.1778 40.5743C38.2583 40.6325 38.3422 40.6823 38.4196 40.7199L38.5171 40.7864C38.5683 40.8215 38.6206 40.8585 38.6729 40.8901C38.7343 40.9334 38.7904 40.9856 38.8493 41.0404L38.9137 41.0989C38.9767 41.1637 39.031 41.2466 39.0876 41.3341L39.1089 41.3657C39.162 41.4714 39.1973 41.5958 39.2242 41.6846C39.2262 41.7382 39.2306 41.7933 39.235 41.8485C39.2414 41.9294 39.2486 42.0119 39.246 42.092C39.2268 42.413 39.1669 42.6893 39.0642 42.9329L39.023 43.0292C38.9747 43.145 38.9286 43.2537 38.8546 43.3599L38.816 43.4232C38.7416 43.5475 38.6713 43.6642 38.5715 43.7739L38.4962 43.8673C38.4101 43.9753 38.329 44.078 38.2261 44.1639L38.1493 44.2373C38.1103 44.2755 38.0713 44.3128 38.0136 44.3588L37.8147 44.4969C37.2491 44.8914 36.4526 44.9746 35.6873 44.7204C35.4428 44.6341 35.2077 44.5149 34.9786 44.3813C35.3016 43.4745 35.5065 42.4576 35.5728 41.3371C35.6384 40.2877 35.5911 39.2182 35.5448 38.1845L35.5195 37.5582C35.5108 37.282 35.5035 37.001 35.5026 36.7213C35.6086 36.6345 35.7079 36.5421 35.8199 36.4593C36.2849 36.122 36.8089 35.8187 37.3771 35.5579C37.4067 35.5441 37.4406 35.5337 37.4706 35.5203C37.5758 36.0482 37.7917 36.5555 38.1153 37.0052C38.9507 38.1852 40.4421 38.9284 42.0057 38.9468C42.7998 38.9618 43.6582 38.71 44.423 38.2369C45.1662 37.7707 45.8037 37.1374 46.2683 36.4035C46.6448 35.802 46.8959 35.1532 47.0125 34.4962C47.7771 34.4371 48.5734 34.3405 49.3723 34.1701C49.6113 34.113 49.8502 34.0504 50.0896 33.9874L50.4635 33.8893C50.8749 33.7509 51.2152 33.6287 51.5428 33.5008L52.1525 33.2135C52.2105 33.1864 52.2685 33.1592 52.3338 33.1251L52.5831 32.9742C52.6394 32.9393 52.6961 32.9055 52.7528 32.8718C52.865 32.8047 52.9772 32.7384 53.0892 32.6587L53.5613 32.2972C54.2328 31.73 54.7364 31.0824 55.0606 30.3712C55.1474 30.1859 55.2121 29.9914 55.284 29.7757L55.2965 29.7258C55.3437 29.5425 55.3928 29.3526 55.4124 29.1548C55.4619 28.7212 55.4481 28.2981 55.3728 27.9003C55.24 27.0961 54.9163 26.3219 54.4437 25.6705C54.36 25.532 54.2558 25.4159 54.1552 25.3024L53.8594 24.9676C53.8124 24.921 53.7619 24.8772 53.7118 24.8338L53.6338 24.7648C53.5826 24.7227 53.5333 24.6784 53.484 24.6342C53.3881 24.5484 53.2891 24.4596 53.1773 24.3827L52.7034 24.0644C52.5887 23.9778 52.4642 23.9183 52.3445 23.8593C52.2904 23.833 52.2363 23.8066 52.1766 23.775C52.1185 23.7472 52.0612 23.717 52.0035 23.6881C51.888 23.6286 51.7726 23.5691 51.6496 23.5217L51.0561 23.3053C50.8972 23.2464 50.7324 23.1859 50.5644 23.1517L50.0197 23.0176C49.8375 22.9715 49.6493 22.9237 49.4577 22.9027C49.3284 22.8858 49.1995 22.8661 49.071 22.8468C48.8317 22.8109 48.5928 22.7754 48.349 22.7523L47.2535 22.6915C47.2213 22.6897 47.1896 22.693 47.157 22.6917C47.1836 22.4171 47.1945 22.1432 47.175 21.8761C47.1119 20.9933 46.7942 20.1235 46.2543 19.3607C45.7611 18.6705 45.0988 18.0965 44.339 17.7007C43.5564 17.2989 42.6896 17.1265 41.8984 17.2154C40.336 17.3775 38.8773 18.2582 38.0921 19.5152C37.7052 20.1254 37.488 20.8101 37.464 21.4949C37.4567 21.6749 37.4674 21.8564 37.4872 22.0396C37.1256 21.9316 36.7737 21.8165 36.4427 21.684C36.1622 21.573 35.8933 21.4521 35.6344 21.3221C35.6271 21.2804 35.6194 21.2392 35.6109 21.1964C35.5834 21.0716 35.5699 20.9368 35.5556 20.782C35.4961 20.2718 35.4914 19.729 35.4865 19.2039L35.4867 18.5785C35.4909 17.5423 35.4946 16.4715 35.3862 15.4293C35.2889 14.4663 35.096 13.5855 34.8122 12.7978C35.2954 12.7642 35.7721 12.838 36.1866 13.043C36.4631 13.1711 36.7292 13.3667 37.0034 13.6431C37.2139 13.8418 37.3906 14.1051 37.5266 14.4235C37.7322 14.9249 37.7745 15.4822 37.6395 15.9154C37.5147 16.3275 37.31 16.6433 37.1283 16.8965C36.9111 17.1904 36.6774 17.4556 36.4974 17.6534C36.3337 17.8357 36.1898 17.9778 36.0817 18.0844C35.8675 18.2962 35.7858 18.3781 35.8299 18.4908C35.8756 18.6258 36.0461 18.6245 36.2336 18.6108C36.4861 18.5888 36.7331 18.5384 36.9893 18.4559C37.274 18.36 37.7009 18.1883 38.1177 17.804C38.3483 17.5899 38.5328 17.3546 38.6721 17.0977C38.8439 16.781 38.9433 16.4284 38.96 16.0782C38.9806 15.7191 38.9157 15.3374 38.7727 14.9754C38.6509 14.6651 38.4798 14.36 38.2304 14.0103C38.1564 13.9165 38.085 13.8206 38.0133 13.7228C37.8679 13.5261 37.7168 13.3225 37.5361 13.1288C37.2214 12.787 36.8959 12.5339 36.5437 12.3568C35.9412 12.0368 35.207 11.9178 34.4844 12.0081C34.4836 12.0066 34.4831 12.0046 34.4823 12.0031C34.1955 11.4235 33.9001 10.9447 33.5832 10.5429C33.2785 10.1195 32.9099 9.71672 32.4561 9.31009C32.0652 8.96752 31.6598 8.69146 31.2488 8.48743L31.2337 8.39981C31.1552 8.04845 31.0167 7.69842 30.8215 7.36059C30.6582 7.07438 30.4615 6.80762 30.2205 6.54389C30.0197 6.32045 29.8015 6.11226 29.5556 5.90798C29.169 5.58563 28.756 5.2993 28.2538 5.00769C27.6176 4.6397 26.9757 4.33826 26.2907 4.08492C25.5798 3.82561 25.5074 3.86081 25.4643 3.88184L25.4086 3.90968L25.3891 3.96464C25.3407 4.09809 25.4011 4.12577 25.7941 4.30584L26.127 4.45939C26.5224 4.64642 27.184 4.9588 27.9694 5.46215C28.4368 5.76346 28.815 6.04929 29.1607 6.36238C29.373 6.55041 29.5691 6.75247 29.7454 6.96281C29.9443 7.19535 30.1125 7.43977 30.2458 7.68996C30.3339 7.85575 30.4064 8.02219 30.4624 8.18932C30.0963 8.09483 29.7296 8.06235 29.3801 8.09545C28.7787 8.14578 28.1983 8.40434 27.7896 8.80399C27.3247 9.24798 27.0821 9.84074 27.1178 10.4089C27.1282 10.5685 27.1572 10.7172 27.2045 10.8505L27.2373 10.9433C27.2476 10.9739 27.2719 11.0215 27.3118 11.0924C27.3604 11.1669 27.416 11.2332 27.4841 11.2974C27.7303 11.5197 27.9935 11.6299 28.1969 11.7006C28.7003 11.8706 29.2165 11.8944 29.6889 11.7703C30.1844 11.6463 30.6361 11.3111 30.8968 10.8714C31.1084 10.5173 31.2348 10.1154 31.2838 9.64409C31.4531 9.76449 31.6211 9.90142 31.7862 10.0526C32.1742 10.4149 32.5008 10.788 32.7602 11.1671C32.9976 11.48 33.2197 11.8603 33.4376 12.2992C32.8589 12.5408 32.3253 12.9029 31.8893 13.3649C31.6684 13.599 31.4722 13.8563 31.3061 14.1328C30.9937 14.6536 30.8005 15.2219 30.7459 15.7758C30.6824 16.3669 30.7593 16.9824 30.968 17.5555C31.0341 17.7414 31.1137 17.9154 31.1908 18.0832C31.2319 18.1713 31.2721 18.2602 31.3156 18.36C31.4216 18.5658 31.5386 18.7689 31.6563 18.9726L31.751 19.137C31.8099 19.2173 31.8665 19.2993 31.9231 19.382C32.0335 19.5418 32.1478 19.7061 32.2778 19.865L32.7255 20.3802C32.7602 20.416 32.7968 20.4505 32.8334 20.4851L32.8915 20.5399C33.3587 21.0009 33.8972 21.4087 34.4898 21.7703C34.4997 21.8228 34.5072 21.8739 34.5202 21.9287L34.6629 22.4201C34.717 22.5909 34.7818 22.747 34.8433 22.8916C35.3664 24.1035 36.082 25.2128 36.9698 26.1896C37.7238 27.0093 38.4847 27.5922 39.2948 27.9721C39.4081 28.0266 39.5238 28.0755 39.6406 28.1208C39.4092 28.2137 39.1816 28.3225 38.9625 28.4501C38.3686 28.7909 37.8066 29.2429 37.2588 29.8233C37.0761 30.0177 36.8944 30.2254 36.7141 30.4484C35.8704 31.5042 35.2036 32.6789 34.7313 33.94C34.6787 34.0819 34.6191 34.2487 34.5706 34.4293L34.4485 34.9358C34.4257 35.0509 34.4122 35.1649 34.3987 35.278L34.3785 35.4358C34.3515 35.6095 34.344 35.7793 34.3387 35.9349C34.3207 36.2307 34.319 36.5203 34.3247 36.8053C34.2117 36.921 34.0923 37.0308 33.9865 37.1525C33.1504 38.1158 32.5872 39.2301 32.3566 40.3763C32.2331 40.9856 32.2158 41.5717 32.3064 42.1152C32.3502 42.4013 32.4362 42.6833 32.5649 42.9576L32.6684 43.1565L32.7849 43.3352C32.8549 43.4429 32.9264 43.5537 33.0076 43.6503C33.2514 43.9708 33.533 44.2474 33.8314 44.4989C33.6124 45.0236 33.3846 45.4635 33.1319 45.8413C32.8936 46.2358 32.5821 46.6384 32.2075 47.0378C32.0482 47.2049 31.8856 47.3573 31.7204 47.4933C31.6526 47.0254 31.5095 46.6347 31.2827 46.3002C31.0044 45.8862 30.5398 45.5922 30.0407 45.5151C29.5624 45.4351 29.0476 45.5069 28.5517 45.7247C28.3532 45.8138 28.0942 45.9479 27.8563 46.1952C27.7919 46.2642 27.739 46.3363 27.6799 46.4427C27.6583 46.4864 27.6352 46.5372 27.6274 46.5653L27.5968 46.6655C27.5551 46.8038 27.5329 46.9542 27.5291 47.1144C27.5163 47.6846 27.7924 48.2595 28.2644 48.6516C28.6905 49.0127 29.2798 49.2167 29.8814 49.2107C30.2315 49.2106 30.5958 49.1443 30.9576 49.0161C30.9082 49.1881 30.8427 49.3626 30.7609 49.5371C30.64 49.7976 30.4822 50.0572 30.2918 50.31C30.1276 50.5319 29.9425 50.7519 29.733 50.9635C29.4014 51.307 29.0353 51.628 28.5825 51.9714C27.8155 52.5497 27.1703 52.9216 26.785 53.1441L26.4582 53.3285C26.0755 53.5434 26.0165 53.5765 26.0675 53.705L26.0912 53.7613L26.15 53.7836ZM31.0516 47.9565C30.6645 48.1704 30.2673 48.2875 29.897 48.2948C29.4958 48.3077 29.1207 48.1901 28.8395 47.9617C28.558 47.7401 28.3838 47.4104 28.3855 47.1016C28.3857 47.0153 28.3951 46.9408 28.414 46.8737L28.4382 46.7961C28.4463 46.7836 28.4574 46.7679 28.4716 46.752C28.5554 46.6457 28.7099 46.5505 28.88 46.4716C29.2134 46.3144 29.586 46.2505 29.9027 46.2961C30.2127 46.3392 30.4842 46.5004 30.6658 46.7498C30.8357 46.9859 30.9564 47.3006 31.0139 47.6599C31.0301 47.7647 31.0423 47.8635 31.0516 47.9565ZM36.0757 22.5641C36.6016 22.7739 37.1623 22.9516 37.7579 23.1036C37.7889 23.1839 37.8161 23.2644 37.8523 23.3448C38.1158 23.8877 38.5157 24.3354 39.0102 24.6399C39.4944 24.9362 40.0318 25.0788 40.5626 25.0538C41.0683 25.0314 41.5818 24.78 41.934 24.4019C42.1209 24.1968 42.2771 23.9635 42.4162 23.6861C42.9319 23.6986 43.4686 23.704 44.0569 23.6938L44.7166 23.6638C45.0382 23.6491 45.3563 23.6381 45.6749 23.6267C45.6169 23.7798 45.5531 23.932 45.4763 24.0811C45.3117 24.4246 45.0781 24.751 44.8579 25.049C44.6452 25.3071 44.3605 25.6415 44.0362 25.934C43.7363 26.2287 43.3932 26.464 43.1033 26.6507C42.7533 26.8533 42.4009 27.0003 42.0549 27.0862C41.3638 27.2596 40.6038 27.1679 39.8565 26.8195C39.1994 26.5167 38.541 26.0143 37.8992 25.3268C37.1513 24.5182 36.5174 23.5601 36.0477 22.5515C36.0579 22.5558 36.0666 22.5602 36.0757 22.5641ZM54.6226 29.0844C54.6111 29.2241 54.5764 29.3637 54.54 29.5107L54.5062 29.6295C54.4587 29.7739 54.4094 29.9234 54.3457 30.0619C54.3063 30.1498 54.2567 30.2335 54.2111 30.3194C53.9599 30.6222 53.5751 30.9765 53.0202 31.2089C52.6027 31.3802 52.166 31.4554 51.7559 31.4283C51.396 31.4022 50.8675 31.3019 50.391 30.9704C50.1827 30.8356 49.9905 30.6612 49.8198 30.4506C49.6467 30.2441 49.5089 30.0121 49.4092 29.7574C49.1973 29.2515 49.1568 28.6549 49.2934 28.0804C49.4426 27.5068 49.7598 26.9913 50.1915 26.6264C50.3967 26.444 50.6295 26.2954 50.8845 26.1831C51.134 26.0686 51.3876 25.9952 51.6419 25.9626C52.2198 25.8701 52.7391 26.0064 53.072 26.1368C53.4523 26.2864 53.8073 26.541 54.0991 26.8713C54.1806 26.9652 54.2507 27.0607 54.3154 27.1565C54.4329 27.4473 54.5244 27.7491 54.5791 28.0595C54.6447 28.3839 54.6596 28.7278 54.6226 29.0844ZM51.5539 25.1134C51.22 25.1474 50.8823 25.2373 50.5498 25.3807C50.2118 25.522 49.8986 25.7152 49.6221 25.9532C49.5126 26.0437 49.409 26.1406 49.3111 26.2443C48.8871 26.6937 48.5747 27.2615 48.4153 27.8826C48.2303 28.6479 48.2901 29.4426 48.5835 30.1172C48.7198 30.452 48.9085 30.7584 49.1429 31.0259C49.3719 31.296 49.6319 31.5213 49.9122 31.6931C50.5543 32.1115 51.2404 32.2137 51.7036 32.2261C51.9612 32.2321 52.2231 32.2043 52.4825 32.1487C52.446 32.1714 52.4107 32.196 52.3742 32.218C52.3167 32.2525 52.2593 32.2871 52.2049 32.3223L51.9825 32.4592C51.932 32.4856 51.881 32.5093 51.8296 32.5335L51.2624 32.8044C50.9698 32.9199 50.6495 33.0369 50.2639 33.1696L49.8782 33.2721C49.6608 33.3302 49.4437 33.3888 49.2294 33.4413C48.5137 33.5992 47.7935 33.6941 47.0837 33.7533C47.1043 32.8592 46.8644 31.9253 46.4014 31.1193C46.1684 30.6893 45.8648 30.3133 45.5943 29.99C45.3405 29.715 44.9977 29.3598 44.6023 29.0476C44.2835 28.7762 43.9048 28.5284 43.4047 28.265C43.2692 28.1997 43.1321 28.1552 42.9956 28.1029C43.2437 28.0026 43.4915 27.8828 43.7377 27.739C44.2256 27.4287 44.5938 27.146 44.8906 26.8539C45.2786 26.5002 45.606 26.115 45.8498 25.8144C46.1625 25.3921 46.4107 25.027 46.6038 24.6207C46.7706 24.2909 46.892 23.9429 46.9887 23.5908C47.0613 23.5905 47.1337 23.5856 47.2055 23.5884L48.2557 23.6381C48.4771 23.6571 48.6975 23.6883 48.9184 23.719C49.0457 23.7372 49.1733 23.755 49.3057 23.7718C49.4753 23.7874 49.6434 23.8294 49.8071 23.8704L50.3305 23.9936C50.4744 24.0206 50.6104 24.0702 50.7548 24.1222L51.3158 24.3211C51.4179 24.3588 51.514 24.4077 51.6104 24.457C51.6685 24.4864 51.7258 24.5157 51.7783 24.5398C51.8325 24.5685 51.8878 24.5945 51.9435 24.6208C52.0474 24.6694 52.1449 24.7159 52.235 24.7831L52.6764 25.0737C52.7366 25.1144 52.7899 25.1631 52.8448 25.2103C52.4767 25.1131 52.0413 25.0506 51.5539 25.1134ZM39.1489 32.2635C39.5149 31.9857 39.9443 31.8217 40.3591 31.8024C40.7289 31.7829 41.085 31.9167 41.3613 32.1766C41.5846 32.392 41.7733 32.6705 41.9221 33.0048C41.9312 33.2064 41.8777 33.4378 41.7732 33.6466C41.7383 33.7147 41.7016 33.7728 41.6649 33.8324C41.4299 33.8446 41.1961 33.861 40.9636 33.8857C39.9215 33.9989 38.962 34.207 38.0901 34.4994C38.0995 34.1545 38.1631 33.7921 38.2882 33.4275C38.4627 32.9651 38.7674 32.5529 39.1489 32.2635ZM40.6886 34.6603C40.6641 34.6703 40.6459 34.6809 40.6135 34.6913C40.5531 34.7123 40.497 34.7342 40.4362 34.7595C40.3883 34.7823 40.3419 34.7957 40.2998 34.8084C40.253 34.8222 40.21 34.8357 40.1789 34.8504C40.0328 34.9087 39.8653 34.9946 39.8559 35.1472C39.8445 35.3387 40.0919 35.4154 40.1924 35.4469L40.2451 35.4612C40.3219 35.4835 40.418 35.5116 40.5305 35.5104C40.5964 35.5131 40.6682 35.5144 40.7427 35.5137C40.8089 35.5144 40.91 35.5125 41.0315 35.4827C41.1171 35.4654 41.2077 35.4467 41.3177 35.4146C41.4155 35.3748 41.5183 35.3297 41.6361 35.2726C41.7395 35.2118 41.8371 35.1386 41.9718 35.0325L42.0362 34.9651C42.1118 34.8889 42.1932 34.8051 42.2469 34.7075C42.2829 34.6558 42.3142 34.5996 42.3434 34.5407C42.8823 34.5334 43.4302 34.5453 43.9961 34.5596C44.3459 34.5685 44.6989 34.5772 45.0608 34.5813C45.2751 34.5774 45.5047 34.5693 45.7312 34.5622C45.6335 34.9758 45.4735 35.3862 45.2382 35.7751C44.5062 36.967 43.2132 37.7941 42.0252 37.8322C40.7601 37.8802 39.5201 37.3625 38.7894 36.4807C38.4804 36.1111 38.2733 35.6847 38.1689 35.2379C38.9271 34.9696 39.7748 34.7802 40.6886 34.6603ZM41.8043 23.6694C41.7226 23.8015 41.6348 23.9249 41.5365 24.033C41.5338 24.0358 41.5311 24.0387 41.5284 24.0416C41.2632 24.3226 40.9161 24.4854 40.5494 24.5008C40.1408 24.5191 39.6939 24.3923 39.3231 24.1521C38.9931 23.9396 38.7181 23.6306 38.5247 23.2758C38.9707 23.3677 39.4303 23.4509 39.9217 23.5162C40.5129 23.5898 41.1331 23.6399 41.8043 23.6694ZM44.6679 22.7498L44.0598 22.7729C43.553 22.7781 43.0868 22.7722 42.6366 22.7612C42.6408 22.61 42.6395 22.4528 42.6263 22.2905C42.5877 21.9312 42.4826 21.6398 42.3218 21.4362C42.2562 21.3335 42.1696 21.2563 42.0936 21.1885L42.0073 21.1124C41.8916 21.0373 41.7875 20.9706 41.6705 20.9143C41.5617 20.8734 41.4568 20.8378 41.3422 20.8029C41.2478 20.7857 41.1579 20.775 41.0589 20.7642C40.9458 20.747 40.8451 20.7548 40.7829 20.7617C40.7054 20.7681 40.6334 20.7758 40.5755 20.7845C40.4561 20.7946 40.361 20.8308 40.2851 20.861L40.2266 20.8831C40.1347 20.9207 39.8909 21.0188 39.9108 21.2114C39.9262 21.3633 40.0974 21.433 40.238 21.4746C40.2767 21.4887 40.3195 21.4983 40.3663 21.5077C40.4092 21.5165 40.4568 21.5259 40.5136 21.547C40.5672 21.5636 40.6239 21.58 40.6912 21.5972C40.7514 21.61 40.7987 21.6245 40.8524 21.6489L41.0215 21.7081C41.084 21.7447 41.15 21.7792 41.2025 21.8018L41.3741 21.9189C41.3993 21.9457 41.4279 21.9704 41.4569 21.9947C41.4859 22.019 41.5133 22.0418 41.5477 22.0835C41.6623 22.1893 41.7764 22.3403 41.8861 22.5295C41.9244 22.5965 41.9479 22.6689 41.9741 22.7408C41.2907 22.7098 40.6615 22.6581 40.0656 22.5823C39.3961 22.4919 38.778 22.3758 38.1975 22.235C38.1639 21.9924 38.1561 21.7542 38.1807 21.5272C38.234 20.9851 38.445 20.4498 38.7927 19.9793C39.4824 19.0332 40.6997 18.4011 41.9652 18.3295C43.1515 18.2566 44.4748 18.9603 45.2568 20.0805C45.6625 20.6704 45.8981 21.3321 45.9393 21.995C45.954 22.2305 45.9367 22.4698 45.9052 22.7089C45.4843 22.7187 45.0733 22.7332 44.6679 22.7498ZM43.781 30.0566C44.1125 30.3146 44.4106 30.6206 44.6288 30.8528C44.8658 31.1359 45.1125 31.4398 45.2914 31.7693C45.6603 32.4039 45.8483 33.1072 45.8351 33.8038C45.8353 33.8108 45.8334 33.8176 45.8331 33.825C45.5781 33.8345 45.3234 33.8437 45.0746 33.849C44.7033 33.8469 44.3303 33.8379 43.9581 33.8287C43.4844 33.8172 43.0032 33.8064 42.5215 33.809C42.5345 33.4722 42.5004 33.1535 42.4633 32.8699L42.4448 32.8138C42.2496 32.3755 42.0268 32.0447 41.7429 31.773C41.3747 31.4208 40.8529 31.2257 40.3488 31.2504C39.8168 31.2743 39.2867 31.4668 38.8155 31.8083C38.3345 32.1576 37.9534 32.642 37.7124 33.2116C37.5045 33.7413 37.4034 34.2606 37.3996 34.7622C37.296 34.805 37.1865 34.8421 37.0865 34.8875C36.5288 35.1412 36.0157 35.4393 35.5438 35.7663C35.5497 35.697 35.5513 35.6228 35.5632 35.5575C35.5717 35.5038 35.5787 35.4494 35.5861 35.3953C35.5972 35.3093 35.6084 35.2241 35.6248 35.1469L35.7282 34.7432C35.7649 34.6118 35.8152 34.4748 35.8664 34.3416C36.299 33.2285 36.9263 32.1515 37.6803 31.2266C38.2925 30.4806 38.9292 29.9192 39.5749 29.5555C40.3041 29.1393 41.0577 28.9778 41.7561 29.0878C42.1023 29.1411 42.4597 29.2544 42.8112 29.4225C43.1323 29.5958 43.4718 29.7926 43.781 30.0566ZM33.5573 19.8639C32.812 19.1451 32.214 18.2309 31.8275 17.2236C31.6608 16.7782 31.5952 16.3016 31.6381 15.8447C31.674 15.4199 31.819 14.9775 32.0583 14.5662C32.4474 13.8955 33.0631 13.3675 33.7642 13.0638C34.0266 13.8033 34.2018 14.6391 34.2789 15.5644C34.3631 16.5382 34.3446 17.5393 34.3247 18.5986L34.316 19.2577C34.3139 19.6689 34.3203 20.0936 34.3453 20.5241C34.0656 20.3165 33.7983 20.0998 33.5573 19.8639ZM33.6123 43.1754C33.5428 43.0935 33.4853 43.003 33.4169 42.8968L33.325 42.7598L33.2497 42.6131C33.1527 42.4065 33.0877 42.1915 33.0548 41.972C32.9771 41.5241 32.992 41.0307 33.0988 40.5068C33.2847 39.5786 33.7297 38.6733 34.3714 37.8633L34.3941 38.2763C34.4576 39.3309 34.5182 40.3272 34.4735 41.306C34.4362 42.1843 34.3111 42.993 34.1024 43.7213C33.9276 43.5525 33.7613 43.3715 33.6123 43.1754ZM30.263 10.4833C30.0921 10.7498 29.8269 10.9359 29.5176 11.0085C29.2048 11.084 28.8299 11.0546 28.4888 10.9273C28.3165 10.8651 28.1645 10.7765 28.0709 10.6851C28.0546 10.6689 28.043 10.6549 28.0358 10.6434C28.0321 10.6361 28.0297 10.6323 28.0289 10.6316L28.0087 10.5669C27.9872 10.5027 27.9751 10.4302 27.9714 10.3441C27.9575 10.0359 28.1201 9.68893 28.391 9.44257C28.661 9.19075 29.0302 9.03873 29.432 9.01481C29.8016 8.98911 30.2036 9.06877 30.5988 9.24795C30.5937 9.34036 30.585 9.43801 30.5737 9.54088C30.5306 9.90558 30.4233 10.2322 30.263 10.4833Z" fill="#E9BE6E"/>
</svg>
