<svg width="69" height="69" viewBox="0 0 69 69" fill="none" xmlns="http://www.w3.org/2000/svg">
<g opacity="0.4">
<path d="M23.0158 28.9092C25.6366 30.3562 27.9408 31.2112 28.1589 30.8196C28.3786 30.4255 26.4321 28.9342 23.8092 27.4857C23.5413 27.3378 23.2779 27.1978 23.0185 27.063L22.7226 25.582L17.4053 24.8807L20.816 28.9995L22.2365 28.4654C22.4888 28.613 22.7477 28.7614 23.0158 28.9092Z" fill="url(#paint0_linear_915_5354)"/>
<path d="M43.2845 22.6035L43.9893 17.3132L39.85 20.7072L40.3855 22.1179C40.2367 22.3693 40.0873 22.6274 39.938 22.8946C38.4835 25.5024 37.6248 27.7944 38.019 28.0122C38.4146 28.2304 39.9137 26.294 41.3699 23.6846C41.5186 23.4179 41.6593 23.1559 41.7948 22.8979L43.2845 22.6035Z" fill="url(#paint1_linear_915_5354)"/>
<path d="M32.2905 19.8703L34.2825 21.4914L36.2186 19.8046L34.1702 14.8728L32.2905 19.8703Z" fill="url(#paint2_linear_915_5354)"/>
<path d="M29.5185 16.9994C29.0831 17.1227 29.4006 19.5476 30.2252 22.4158C31.0496 25.2817 32.0714 27.5071 32.5044 27.3834C32.9403 27.2599 32.6237 24.8355 31.7985 21.9681C30.973 19.1 29.9532 16.8758 29.5185 16.9994Z" fill="url(#paint3_linear_915_5354)"/>
<path d="M25.3243 22.9053L27.8633 23.3183L28.6924 20.8941L24.4399 17.6415L25.3243 22.9053Z" fill="url(#paint4_linear_915_5354)"/>
<path d="M39.4945 14.4362L45.0391 7.32172L42.1725 3.77893L37.9664 5.56413L39.4945 14.4362Z" fill="url(#paint5_linear_915_5354)"/>
<path d="M51.2448 4.30737C51.2448 4.30737 48.2859 5.17711 46.968 7.54405C45.648 9.9065 46.4685 12.8692 46.4685 12.8692C46.4685 12.8692 49.4304 11.9973 50.7488 9.63261C52.0692 7.26755 51.2448 4.30737 51.2448 4.30737Z" fill="url(#paint6_linear_915_5354)"/>
<path d="M57.1973 16.1811L56.4958 11.6869L51.9559 11.1396L48.82 19.5845L57.1973 16.1811Z" fill="url(#paint7_linear_915_5354)"/>
<path d="M60.9817 21.0188C63.3142 19.6294 64.0877 16.6565 64.0877 16.6565C64.0877 16.6565 61.0861 15.937 58.7566 17.3317C56.4257 18.7207 55.647 21.6957 55.647 21.6957C55.647 21.6957 58.6493 22.4132 60.9817 21.0188Z" fill="url(#paint8_linear_915_5354)"/>
<path d="M45.9741 25.1905L45.5581 27.7172L47.9961 28.5415L51.2656 24.3115L45.9741 25.1905Z" fill="url(#paint9_linear_915_5354)"/>
<path d="M29.9242 35.6217C30.6475 38.1361 33.2833 39.5902 35.8103 38.8708C38.337 38.1515 39.8004 35.5306 39.077 33.0163C38.3538 30.5025 35.7179 29.0472 33.1913 29.7665C30.6642 30.4858 29.2011 33.1079 29.9242 35.6217Z" fill="url(#paint10_linear_915_5354)"/>
<path d="M22.0849 37.0066C19.2019 37.8273 16.9663 38.8427 17.0907 39.275C17.2146 39.7075 19.6522 39.3919 22.535 38.5713C25.4167 37.7509 27.6539 36.7351 27.5292 36.3041C27.405 35.8711 24.9684 36.1858 22.0849 37.0066Z" fill="url(#paint11_linear_915_5354)"/>
<path d="M46.916 31.6305C49.799 30.8098 52.0355 29.7949 51.9111 29.3626C51.7868 28.9303 49.3489 29.2451 46.466 30.0659C43.5834 30.8864 41.3469 31.9022 41.4712 32.3344C41.5955 32.7668 44.0334 32.4512 46.916 31.6305Z" fill="url(#paint12_linear_915_5354)"/>
<path d="M64.9248 25.6587L61.2671 22.9271L54.3075 28.681L63.2732 29.9009L64.9248 25.6587Z" fill="url(#paint13_linear_915_5354)"/>
<path d="M49.0261 32.12L47.3957 34.1031L49.0924 36.0283L54.0508 33.9902L49.0261 32.12Z" fill="url(#paint14_linear_915_5354)"/>
<path d="M25.7175 46.035L25.0127 51.3254L29.1521 47.9315L28.6152 46.5179C28.7637 46.2667 28.9129 46.0091 29.0617 45.7422C30.5165 43.1349 31.3756 40.8431 30.9814 40.6264C30.5859 40.4074 29.0866 42.3439 27.6313 44.9531C27.4823 45.2202 27.3411 45.4826 27.2053 45.7413L25.7175 46.035Z" fill="url(#paint15_linear_915_5354)"/>
<path d="M40.3084 47.7442L44.5615 50.9968L43.6769 45.7329L41.1367 45.3191L40.3084 47.7442Z" fill="url(#paint16_linear_915_5354)"/>
<path d="M36.4963 41.2537C36.0614 41.3775 36.3778 43.8013 37.2021 46.6696C38.0276 49.537 39.0482 51.7617 39.4832 51.6378C39.9172 51.5142 39.6006 49.0892 38.7754 46.2217C37.9508 43.3547 36.9302 41.1302 36.4963 41.2537Z" fill="url(#paint17_linear_915_5354)"/>
<path d="M36.7109 48.7687L34.719 47.1464L32.7833 48.8343L34.8317 53.7667L36.7109 48.7687Z" fill="url(#paint18_linear_915_5354)"/>
<path d="M40.8413 37.8187C40.622 38.2114 42.5694 39.7043 45.1908 41.1513C45.4594 41.2996 45.7233 41.4399 45.9832 41.5751L46.2791 43.0559L51.5967 43.7584L48.1856 39.639L46.7656 40.1729C46.513 40.0252 46.254 39.8768 45.9857 39.7287C43.3631 38.2809 41.0603 37.4263 40.8413 37.8187Z" fill="url(#paint19_linear_915_5354)"/>
<path d="M69 33.7388C69 33.7388 66.7617 31.6257 64.0425 31.67C61.3237 31.7166 59.1579 33.9034 59.1579 33.9034C59.1579 33.9034 61.3966 36.0171 64.1163 35.9726C66.8343 35.9274 69 33.7388 69 33.7388Z" fill="url(#paint20_linear_915_5354)"/>
<path d="M65.2012 41.9509L63.4073 37.7671L54.4881 39.2875L61.6399 44.8032L65.2012 41.9509Z" fill="url(#paint21_linear_915_5354)"/>
<path d="M61.4155 46.7207C59.0394 45.4091 56.0615 46.2242 56.0615 46.2242C56.0615 46.2242 56.9387 49.1695 59.3166 50.4824C61.694 51.7942 64.668 50.9777 64.668 50.9777C64.668 50.9777 63.7934 48.031 61.4155 46.7207Z" fill="url(#paint22_linear_915_5354)"/>
<path d="M57.8018 51.6833L49.3134 48.5638L52.7347 56.8977L57.2525 56.1996L57.8018 51.6833Z" fill="url(#paint23_linear_915_5354)"/>
<path d="M51.5802 58.4459C50.1815 56.1288 47.1919 55.3551 47.1919 55.3551C47.1919 55.3551 46.4712 58.3425 47.8714 60.6605C49.2704 62.9793 52.257 63.7502 52.257 63.7502C52.257 63.7502 52.9792 60.7655 51.5802 58.4459Z" fill="url(#paint24_linear_915_5354)"/>
<path d="M40.1694 54.0223L38.9434 62.9418L43.2073 64.5846L45.9521 60.9467L40.1694 54.0223Z" fill="url(#paint25_linear_915_5354)"/>
<path d="M35.0829 68.6387C35.0829 68.6387 37.2101 66.4122 37.1634 63.7084C37.1182 61.0054 34.9189 58.8486 34.9189 58.8486C34.9189 58.8486 32.7925 61.0756 32.8407 63.7833C32.8844 66.4855 35.0829 68.6387 35.0829 68.6387Z" fill="url(#paint26_linear_915_5354)"/>
<path d="M31.0341 63.0757L29.5063 54.2028L23.9616 61.3174L26.8285 64.86L31.0341 63.0757Z" fill="url(#paint27_linear_915_5354)"/>
<path d="M17.7553 64.3323C17.7553 64.3323 20.7173 63.4617 22.0359 61.0965C23.3533 58.7335 22.5328 55.7689 22.5328 55.7689C22.5328 55.7689 19.5714 56.6445 18.2534 59.0084C16.9341 61.373 17.7553 64.3323 17.7553 64.3323Z" fill="url(#paint28_linear_915_5354)"/>
<path d="M11.8037 52.4595L12.5062 56.9528L17.0453 57.4998L20.1816 49.0553L11.8037 52.4595Z" fill="url(#paint29_linear_915_5354)"/>
<path d="M8.02056 47.6228C5.68975 49.013 4.91486 51.9851 4.91486 51.9851C4.91486 51.9851 7.91597 52.7041 10.248 51.31C12.5768 49.9203 13.3545 46.945 13.3545 46.945C13.3545 46.945 10.3521 46.2305 8.02056 47.6228Z" fill="url(#paint30_linear_915_5354)"/>
<path d="M23.027 43.4474L23.4434 40.9207L21.0058 40.0956L17.7357 44.3264L23.027 43.4474Z" fill="url(#paint31_linear_915_5354)"/>
<path d="M4.07635 42.9798L7.73295 45.7117L14.6934 39.9582L5.72693 38.7385L4.07635 42.9798Z" fill="url(#paint32_linear_915_5354)"/>
<path d="M19.9755 36.5183L21.6055 34.5359L19.9094 32.6106L14.9513 34.6486L19.9755 36.5183Z" fill="url(#paint33_linear_915_5354)"/>
<path d="M0.000117302 34.9012C0.000117302 34.9012 2.23852 37.0168 4.95765 36.97C7.67238 36.9251 9.84186 34.7354 9.84186 34.7354C9.84186 34.7354 7.60221 32.6226 4.88421 32.6697C2.16495 32.7134 0.000117302 34.9012 0.000117302 34.9012Z" fill="url(#paint34_linear_915_5354)"/>
<path d="M3.79958 26.6875L5.59292 30.8715L14.5126 29.3517L7.3604 23.8352L3.79958 26.6875Z" fill="url(#paint35_linear_915_5354)"/>
<path d="M7.58398 21.9198C9.95836 23.2313 12.9375 22.4138 12.9375 22.4138C12.9375 22.4138 12.0584 19.4704 9.68202 18.1577C7.30513 16.8438 4.32964 17.662 4.32964 17.662C4.32964 17.662 5.20496 20.6077 7.58398 21.9198Z" fill="url(#paint36_linear_915_5354)"/>
<path d="M11.199 16.9564L19.6875 20.0757L16.2662 11.7419L11.7486 12.44L11.199 16.9564Z" fill="url(#paint37_linear_915_5354)"/>
<path d="M17.423 10.1919C18.8188 12.5093 21.8107 13.2854 21.8107 13.2854C21.8107 13.2854 22.5294 10.2975 21.1292 7.97936C19.7308 5.65901 16.7438 4.88831 16.7438 4.88831C16.7438 4.88831 16.0216 7.87496 17.423 10.1919Z" fill="url(#paint38_linear_915_5354)"/>
<path d="M28.832 14.6164L30.0574 5.69714L25.7946 4.05457L23.0484 7.69228L28.832 14.6164Z" fill="url(#paint39_linear_915_5354)"/>
<path d="M31.8389 4.93108C31.8828 7.63261 34.0836 9.79198 34.0836 9.79198C34.0836 9.79198 36.2092 7.56167 36.1623 4.85777C36.118 2.1545 33.9171 0 33.9171 0C33.9171 0 31.7915 2.22606 31.8389 4.93108Z" fill="url(#paint40_linear_915_5354)"/>
</g>
<defs>
<linearGradient id="paint0_linear_915_5354" x1="25.03" y1="35.5848" x2="17.8844" y2="10.4832" gradientUnits="userSpaceOnUse">
<stop stop-color="#A36B00"/>
<stop offset="1" stop-color="#DA9D29"/>
</linearGradient>
<linearGradient id="paint1_linear_915_5354" x1="43.21" y1="30.4094" x2="36.0648" y2="5.30904" gradientUnits="userSpaceOnUse">
<stop stop-color="#A36B00"/>
<stop offset="1" stop-color="#DA9D29"/>
</linearGradient>
<linearGradient id="paint2_linear_915_5354" x1="37.7434" y1="31.9654" x2="30.6" y2="6.8716" gradientUnits="userSpaceOnUse">
<stop stop-color="#A36B00"/>
<stop offset="1" stop-color="#DA9D29"/>
</linearGradient>
<linearGradient id="paint3_linear_915_5354" x1="34.12" y1="32.9966" x2="26.9766" y2="7.90254" gradientUnits="userSpaceOnUse">
<stop stop-color="#A36B00"/>
<stop offset="1" stop-color="#DA9D29"/>
</linearGradient>
<linearGradient id="paint4_linear_915_5354" x1="30.4972" y1="34.0278" x2="23.3538" y2="8.93374" gradientUnits="userSpaceOnUse">
<stop stop-color="#A36B00"/>
<stop offset="1" stop-color="#DA9D29"/>
</linearGradient>
<linearGradient id="paint5_linear_915_5354" x1="47.5311" y1="29.179" x2="40.3877" y2="4.08493" gradientUnits="userSpaceOnUse">
<stop stop-color="#A36B00"/>
<stop offset="1" stop-color="#DA9D29"/>
</linearGradient>
<linearGradient id="paint6_linear_915_5354" x1="54.2314" y1="27.272" x2="47.088" y2="2.17818" gradientUnits="userSpaceOnUse">
<stop stop-color="#A36B00"/>
<stop offset="1" stop-color="#DA9D29"/>
</linearGradient>
<linearGradient id="paint7_linear_915_5354" x1="55.8712" y1="26.8054" x2="48.7278" y2="1.71158" gradientUnits="userSpaceOnUse">
<stop stop-color="#A36B00"/>
<stop offset="1" stop-color="#DA9D29"/>
</linearGradient>
<linearGradient id="paint8_linear_915_5354" x1="61.5933" y1="25.1764" x2="54.4499" y2="0.0823955" gradientUnits="userSpaceOnUse">
<stop stop-color="#A36B00"/>
<stop offset="1" stop-color="#DA9D29"/>
</linearGradient>
<linearGradient id="paint9_linear_915_5354" x1="49.1867" y1="28.7077" x2="42.0432" y2="3.61351" gradientUnits="userSpaceOnUse">
<stop stop-color="#A36B00"/>
<stop offset="1" stop-color="#DA9D29"/>
</linearGradient>
<linearGradient id="paint10_linear_915_5354" x1="34.1203" y1="32.9969" x2="26.9769" y2="7.90289" gradientUnits="userSpaceOnUse">
<stop stop-color="#A36B00"/>
<stop offset="1" stop-color="#DA9D29"/>
</linearGradient>
<linearGradient id="paint11_linear_915_5354" x1="21.9296" y1="36.4672" x2="14.7861" y2="11.3731" gradientUnits="userSpaceOnUse">
<stop stop-color="#A36B00"/>
<stop offset="1" stop-color="#DA9D29"/>
</linearGradient>
<linearGradient id="paint12_linear_915_5354" x1="46.3107" y1="29.5265" x2="39.1673" y2="4.43267" gradientUnits="userSpaceOnUse">
<stop stop-color="#A36B00"/>
<stop offset="1" stop-color="#DA9D29"/>
</linearGradient>
<linearGradient id="paint13_linear_915_5354" x1="59.2358" y1="25.8477" x2="52.0924" y2="0.753645" gradientUnits="userSpaceOnUse">
<stop stop-color="#A36B00"/>
<stop offset="1" stop-color="#DA9D29"/>
</linearGradient>
<linearGradient id="paint14_linear_915_5354" x1="49.1875" y1="28.7082" x2="42.0441" y2="3.61414" gradientUnits="userSpaceOnUse">
<stop stop-color="#A36B00"/>
<stop offset="1" stop-color="#DA9D29"/>
</linearGradient>
<linearGradient id="paint15_linear_915_5354" x1="25.0304" y1="35.5841" x2="17.8871" y2="10.4903" gradientUnits="userSpaceOnUse">
<stop stop-color="#A36B00"/>
<stop offset="1" stop-color="#DA9D29"/>
</linearGradient>
<linearGradient id="paint16_linear_915_5354" x1="37.7429" y1="31.9656" x2="30.5995" y2="6.87139" gradientUnits="userSpaceOnUse">
<stop stop-color="#A36B00"/>
<stop offset="1" stop-color="#DA9D29"/>
</linearGradient>
<linearGradient id="paint17_linear_915_5354" x1="34.12" y1="32.9968" x2="26.9766" y2="7.90294" gradientUnits="userSpaceOnUse">
<stop stop-color="#A36B00"/>
<stop offset="1" stop-color="#DA9D29"/>
</linearGradient>
<linearGradient id="paint18_linear_915_5354" x1="30.4974" y1="34.0286" x2="23.354" y2="8.93456" gradientUnits="userSpaceOnUse">
<stop stop-color="#A36B00"/>
<stop offset="1" stop-color="#DA9D29"/>
</linearGradient>
<linearGradient id="paint19_linear_915_5354" x1="43.2103" y1="30.4092" x2="36.0668" y2="5.31503" gradientUnits="userSpaceOnUse">
<stop stop-color="#A36B00"/>
<stop offset="1" stop-color="#DA9D29"/>
</linearGradient>
<linearGradient id="paint20_linear_915_5354" x1="61.592" y1="25.1764" x2="54.4486" y2="0.0823967" gradientUnits="userSpaceOnUse">
<stop stop-color="#A36B00"/>
<stop offset="1" stop-color="#DA9D29"/>
</linearGradient>
<linearGradient id="paint21_linear_915_5354" x1="55.8707" y1="26.805" x2="48.7272" y2="1.71108" gradientUnits="userSpaceOnUse">
<stop stop-color="#A36B00"/>
<stop offset="1" stop-color="#DA9D29"/>
</linearGradient>
<linearGradient id="paint22_linear_915_5354" x1="54.2291" y1="27.272" x2="47.0856" y2="2.17777" gradientUnits="userSpaceOnUse">
<stop stop-color="#A36B00"/>
<stop offset="1" stop-color="#DA9D29"/>
</linearGradient>
<linearGradient id="paint23_linear_915_5354" x1="47.5324" y1="29.1788" x2="40.3889" y2="4.08465" gradientUnits="userSpaceOnUse">
<stop stop-color="#A36B00"/>
<stop offset="1" stop-color="#DA9D29"/>
</linearGradient>
<linearGradient id="paint24_linear_915_5354" x1="41.4831" y1="30.901" x2="34.3396" y2="5.80684" gradientUnits="userSpaceOnUse">
<stop stop-color="#A36B00"/>
<stop offset="1" stop-color="#DA9D29"/>
</linearGradient>
<linearGradient id="paint25_linear_915_5354" x1="34.1204" y1="32.9969" x2="26.977" y2="7.90286" gradientUnits="userSpaceOnUse">
<stop stop-color="#A36B00"/>
<stop offset="1" stop-color="#DA9D29"/>
</linearGradient>
<linearGradient id="paint26_linear_915_5354" x1="26.759" y1="35.0924" x2="19.6155" y2="9.99834" gradientUnits="userSpaceOnUse">
<stop stop-color="#A36B00"/>
<stop offset="1" stop-color="#DA9D29"/>
</linearGradient>
<linearGradient id="paint27_linear_915_5354" x1="20.7086" y1="36.8147" x2="13.5651" y2="11.7207" gradientUnits="userSpaceOnUse">
<stop stop-color="#A36B00"/>
<stop offset="1" stop-color="#DA9D29"/>
</linearGradient>
<linearGradient id="paint28_linear_915_5354" x1="14.0085" y1="38.7221" x2="6.86506" y2="13.6282" gradientUnits="userSpaceOnUse">
<stop stop-color="#A36B00"/>
<stop offset="1" stop-color="#DA9D29"/>
</linearGradient>
<linearGradient id="paint29_linear_915_5354" x1="12.3698" y1="39.1891" x2="5.22642" y2="14.0953" gradientUnits="userSpaceOnUse">
<stop stop-color="#A36B00"/>
<stop offset="1" stop-color="#DA9D29"/>
</linearGradient>
<linearGradient id="paint30_linear_915_5354" x1="6.64702" y1="40.8177" x2="-0.496429" y2="15.7236" gradientUnits="userSpaceOnUse">
<stop stop-color="#A36B00"/>
<stop offset="1" stop-color="#DA9D29"/>
</linearGradient>
<linearGradient id="paint31_linear_915_5354" x1="19.0539" y1="37.2854" x2="11.9104" y2="12.1913" gradientUnits="userSpaceOnUse">
<stop stop-color="#A36B00"/>
<stop offset="1" stop-color="#DA9D29"/>
</linearGradient>
<linearGradient id="paint32_linear_915_5354" x1="9.00429" y1="40.1461" x2="1.86085" y2="15.0521" gradientUnits="userSpaceOnUse">
<stop stop-color="#A36B00"/>
<stop offset="1" stop-color="#DA9D29"/>
</linearGradient>
<linearGradient id="paint33_linear_915_5354" x1="19.0534" y1="37.2859" x2="11.9099" y2="12.1919" gradientUnits="userSpaceOnUse">
<stop stop-color="#A36B00"/>
<stop offset="1" stop-color="#DA9D29"/>
</linearGradient>
<linearGradient id="paint34_linear_915_5354" x1="6.64685" y1="40.8177" x2="-0.496624" y2="15.7235" gradientUnits="userSpaceOnUse">
<stop stop-color="#A36B00"/>
<stop offset="1" stop-color="#DA9D29"/>
</linearGradient>
<linearGradient id="paint35_linear_915_5354" x1="12.3691" y1="39.1887" x2="5.22565" y2="14.0946" gradientUnits="userSpaceOnUse">
<stop stop-color="#A36B00"/>
<stop offset="1" stop-color="#DA9D29"/>
</linearGradient>
<linearGradient id="paint36_linear_915_5354" x1="14.0084" y1="38.722" x2="6.86487" y2="13.6277" gradientUnits="userSpaceOnUse">
<stop stop-color="#A36B00"/>
<stop offset="1" stop-color="#DA9D29"/>
</linearGradient>
<linearGradient id="paint37_linear_915_5354" x1="20.7074" y1="36.8154" x2="13.564" y2="11.7212" gradientUnits="userSpaceOnUse">
<stop stop-color="#A36B00"/>
<stop offset="1" stop-color="#DA9D29"/>
</linearGradient>
<linearGradient id="paint38_linear_915_5354" x1="26.7573" y1="35.0925" x2="19.6139" y2="9.99847" gradientUnits="userSpaceOnUse">
<stop stop-color="#A36B00"/>
<stop offset="1" stop-color="#DA9D29"/>
</linearGradient>
<linearGradient id="paint39_linear_915_5354" x1="34.1194" y1="32.9971" x2="26.976" y2="7.90316" gradientUnits="userSpaceOnUse">
<stop stop-color="#A36B00"/>
<stop offset="1" stop-color="#DA9D29"/>
</linearGradient>
<linearGradient id="paint40_linear_915_5354" x1="41.4819" y1="30.9012" x2="34.3385" y2="5.8072" gradientUnits="userSpaceOnUse">
<stop stop-color="#A36B00"/>
<stop offset="1" stop-color="#DA9D29"/>
</linearGradient>
</defs>
</svg>
