<svg width="61" height="59" viewBox="0 0 61 59" fill="none" xmlns="http://www.w3.org/2000/svg">
<path d="M47.0202 34.7173V58.9172C50.0291 58.8804 52.6332 57.1781 53.9582 54.6845C54.2066 54.8318 54.4827 54.933 54.8047 54.933H55.136C55.7157 54.933 56.1941 54.6201 56.4886 54.2245C56.783 53.8288 56.9395 53.3411 56.9395 52.8166V50.8659V47.949V29.7209H56.0469C55.5592 29.7209 55.1728 29.3252 55.1728 28.8375C55.1728 28.7455 55.1728 28.6443 55.1728 28.5431C55.1728 14.6764 43.9377 3.44141 30.0711 3.44141C16.2136 3.44141 4.9694 14.6764 4.9694 28.5431C4.9694 28.6443 4.9694 28.7363 4.9694 28.8375C4.9786 29.3252 4.58294 29.7209 4.09526 29.7209H3.21191V52.8166C3.21191 53.3411 3.36834 53.8288 3.66279 54.2245C3.94803 54.6201 4.43571 54.933 5.01541 54.933H5.35586C5.65031 54.933 5.90795 54.8502 6.14719 54.7213C7.48141 57.1873 10.0762 58.8804 13.0759 58.9172V34.7173C10.7111 34.7449 8.61319 35.8031 7.16856 37.4593V30.5766C7.90468 30.4386 8.44757 29.8221 8.52118 29.0676L8.53958 28.9848V28.7179C8.53958 22.7645 10.9504 17.3817 14.8518 13.4802C18.7532 9.5788 24.1361 7.16801 30.0895 7.16801C36.0429 7.16801 41.4257 9.5788 45.3272 13.4802C49.2286 17.3817 51.6394 22.7645 51.6394 28.7179V28.9019V28.9111C51.6394 29.7301 52.2191 30.4202 53.0104 30.5766V37.5422C51.5566 35.8399 49.4126 34.7449 47.0202 34.7173Z" fill="#E9BE6E"/>
<path d="M56.0465 29.7208H56.939H57.7395C58.218 29.7208 58.6045 29.3344 58.6137 28.8651C58.6137 28.7547 58.6137 28.6535 58.6137 28.543C58.6137 12.7809 45.8328 0 30.0706 0C14.3085 0 1.52759 12.7809 1.52759 28.543C1.52759 28.6535 1.52759 28.7547 1.52759 28.8651C1.53679 29.3436 1.92325 29.7208 2.40173 29.7208H3.20226H4.09481C4.58249 29.7208 4.97815 29.3252 4.96895 28.8375C4.96895 28.7455 4.96895 28.6443 4.96895 28.543C4.96895 14.6764 16.204 3.44136 30.0706 3.44136C43.9373 3.44136 55.1723 14.6764 55.1723 28.543C55.1723 28.6443 55.1723 28.7363 55.1723 28.8375C55.1723 29.3252 55.5588 29.7208 56.0465 29.7208Z" fill="#F2F2F2"/>
<path d="M0 48.3354C0 49.9272 1.28821 51.2246 2.88007 51.243V42.4004C1.28821 42.4188 0 43.7162 0 45.3173V48.3354Z" fill="#BFBFBF"/>
<path d="M57.2792 51.243C58.871 51.2246 60.1592 49.9272 60.1592 48.3354V45.3173C60.1592 43.7162 58.871 42.428 57.2792 42.4004V51.243Z" fill="#BFBFBF"/>
<path d="M13.582 34.7168V58.9995H16.5173C16.9774 58.9995 17.3454 58.6315 17.3454 58.1714V35.5449C17.3454 35.0849 16.9774 34.7168 16.5173 34.7168H13.582Z" fill="#F2F2F2"/>
<path d="M42.6855 35.5449V58.1714C42.6855 58.6315 43.0536 58.9995 43.5137 58.9995H46.449V34.7168H43.5137C43.0536 34.7168 42.6855 35.0849 42.6855 35.5449Z" fill="#F2F2F2"/>
</svg>
