<svg width="81" height="75" viewBox="0 0 81 75" fill="none" xmlns="http://www.w3.org/2000/svg">
<path d="M80.8112 0.84668C80.8111 0.885361 80.8059 0.927789 80.7969 0.973568C80.859 0.966096 80.9254 0.95955 81.0005 0.954855C80.9347 0.921155 80.8718 0.884832 80.8112 0.84668Z" fill="#E9BE6E"/>
<path d="M2.3526 23.2337C2.40515 23.2166 2.45824 23.194 2.51204 23.1699C2.45762 23.1861 2.40634 23.2056 2.35584 23.226C2.35476 23.2286 2.35366 23.2311 2.3526 23.2337Z" fill="#E9BE6E"/>
<path d="M73.2946 48.6944C73.1733 48.6579 73.0935 48.7738 73.0434 48.9023C72.7674 49.6098 72.2859 50.1847 71.8193 50.7685C71.5239 51.3985 71.0522 51.8912 70.5682 52.3744C70.5294 52.5044 70.4413 52.5909 70.3239 52.6516C68.5602 54.6216 66.6089 56.3738 64.3636 57.7847C62.2857 59.1662 60.1012 60.3399 57.7439 61.1762C57.7438 61.1762 57.7438 61.1762 57.7437 61.1763C55.9021 61.9116 53.9806 62.3431 52.0279 62.6336C44.0535 63.8199 36.6678 62.0584 29.7221 58.1365C29.4663 57.992 29.1396 57.9036 29.0459 57.5582C29.1087 57.5613 29.1676 57.5728 29.2249 57.5875C29.5285 57.6656 29.7655 57.8848 30.0316 58.0349C35.8402 61.3125 42.0474 63.0003 48.7434 62.7229C51.7633 62.5978 54.701 62.0183 57.5576 61.0293C57.5684 58.3013 57.5763 55.5732 57.5963 52.8453C57.5977 52.6576 57.4912 52.4376 57.6846 52.2741C57.9928 52.1031 57.8723 51.794 57.9215 51.5395C57.2987 51.3694 57.6247 50.8779 57.5741 50.514C57.5734 50.2241 57.5727 49.9342 57.572 49.6444C57.572 48.1192 57.572 46.594 57.572 45.0688C57.5814 44.5512 57.5081 44.0664 57.834 43.546C58.0566 43.1905 57.9133 42.5951 57.8986 42.1081C57.8936 41.939 57.714 42.0188 57.599 42.0128C57.2619 41.9949 57.2275 41.8226 57.4223 41.5906C58.005 40.8969 57.9839 39.8708 57.3432 39.2315C57.1125 39.0013 56.8518 38.7954 56.5821 38.6118C56.3728 38.4694 56.1741 38.3724 56.4893 38.1409C56.5299 38.111 56.5736 38.0114 56.5561 37.9873C56.1489 37.424 56.3138 36.7559 56.2102 36.1383C56.2053 36.1089 56.2004 36.0795 56.1942 36.0503C56.1198 36.0491 55.9871 36.011 55.9907 36.098C56.0205 36.8255 55.8487 37.5268 55.7389 38.2362C55.7381 38.2407 55.7373 38.2451 55.7367 38.2495C55.8115 38.2556 55.9514 38.3006 55.9193 38.3281C55.7398 38.4811 55.6767 38.7931 55.3605 38.7674C55.3599 38.7673 55.3593 38.7674 55.3586 38.7673C54.5082 39.6171 54.2429 40.5897 54.7391 41.7219C54.2828 42.1112 54.5034 42.6257 54.4848 43.096C54.4339 43.2725 54.3179 43.5144 54.4988 43.6097C54.8579 43.7987 54.8111 44.1233 54.8133 44.4002C54.8304 46.6146 54.8253 48.8293 54.8209 51.0438C54.8206 51.1919 54.8835 51.362 54.6741 51.4673C54.2669 51.6723 54.398 52.0021 54.5914 52.2489C54.6857 52.3691 54.7564 52.4621 54.7587 52.6066C54.7688 53.2341 54.8197 53.8622 54.7494 54.4887C54.7439 54.5374 54.7393 54.5862 54.7323 54.6349C54.7342 55.4709 54.7357 56.3068 54.7385 57.1428C54.7391 57.3123 54.7473 57.4711 54.4958 57.4601C54.149 57.4447 53.8005 57.4642 53.4543 57.4426C53.1439 57.4233 53.0972 57.0668 53.2119 56.9893C53.8527 56.5563 53.4727 55.9914 53.4711 55.477C53.4701 55.4757 53.469 55.4743 53.468 55.4729C53.237 55.159 52.9963 54.8299 52.6555 54.6532C52.0471 54.3379 51.883 53.7613 51.6525 53.1834C51.6911 53.4975 51.338 53.6607 51.3922 53.971C51.3941 53.9852 51.3958 53.9986 51.3974 54.0112C51.421 54.2009 51.3981 54.2103 51.0302 54.3609C51.0196 54.3697 51.0093 54.379 50.9988 54.3878C50.7453 54.6018 50.5043 54.8343 50.231 55.0191C49.6879 55.3864 50.0437 56.0552 49.699 56.5086C49.5525 56.7014 49.9476 56.7593 50.0735 56.9029C50.2902 57.1501 50.1605 57.3875 49.9579 57.3996C49.621 57.4197 49.2462 57.581 48.9241 57.3184C48.9235 57.3068 48.9228 57.2952 48.9221 57.2836C48.9206 57.2561 48.919 57.2285 48.9174 57.201C48.9173 57.1985 48.9172 57.1961 48.917 57.1936C48.8563 56.6609 48.8849 56.1401 48.7009 55.5937C48.5009 54.9994 48.4919 54.2899 48.9878 53.7044C49.2212 53.4289 49.5563 52.9052 49.4076 52.733C48.9875 52.2466 49.3804 51.9668 49.5091 51.6089C49.5085 51.6027 49.5088 51.5968 49.5085 51.5906C49.501 51.4524 49.5421 51.328 49.603 51.2093C49.6163 51.1833 49.6303 51.1574 49.6452 51.1317C49.9103 49.5815 50.0088 48.0539 49.0382 46.6718C49.0289 46.6596 49.0189 46.6485 49.0095 46.6364C47.5072 44.6919 45.3604 43.6875 43.2163 42.6784C42.6982 42.4345 42.1561 42.2307 41.7233 41.8366C41.6338 41.7551 41.5633 41.6528 41.484 41.5601C42.0942 41.1673 41.3853 40.7699 41.4631 40.5084C41.7176 39.653 41.2766 38.8787 41.3403 38.0669C41.3412 38.0557 41.3412 38.0445 41.3422 38.0333C41.1963 37.9723 41.0947 38.0381 41.0089 38.1496C41.0038 38.1712 41.0004 38.1931 40.9965 38.2149C40.897 38.7692 41.1579 39.3771 40.745 39.8886C40.6816 39.9671 40.7183 40.0951 40.795 40.1737C41.1119 40.4984 40.9392 40.7086 40.6411 40.9065C40.4673 41.0219 40.3382 41.2054 40.596 41.328C41.0502 41.5439 40.7904 41.7195 40.5944 41.8983C40.3177 42.1508 39.9791 42.3048 39.6437 42.4635C38.2681 43.1141 36.8751 43.7328 35.6005 44.5753C32.7254 46.4757 31.9326 48.943 33.1529 52.1563C33.2026 52.287 33.4198 52.4652 33.0491 52.531C32.8343 52.5691 32.9064 52.8035 32.9748 52.9445C33.1091 53.221 33.241 53.5079 33.4292 53.747C34.0199 54.4972 33.9522 55.2946 33.6309 56.1079C33.5018 56.4344 33.5935 56.7585 33.5608 57.0818C33.543 57.2589 33.593 57.5064 33.3001 57.4456C32.9805 57.3792 32.5947 57.6455 32.3424 57.2713C32.2768 57.1742 32.2522 57.0446 32.3753 56.9402C32.5227 56.8152 32.8827 56.7995 32.7953 56.5682C32.6322 56.1368 32.8355 55.6115 32.4408 55.2516C32.411 55.2244 32.3931 55.1846 32.3659 55.154C31.8066 54.5259 30.8146 54.2757 30.7172 53.1625C30.713 54.0875 30.0828 54.3956 29.5013 54.7864C28.6519 55.3572 28.6651 56.7785 29.4758 57.2782C29.4262 57.5026 29.0374 57.1914 29.0252 57.4823C29.0242 57.5065 29.0249 57.5335 29.0295 57.5668C28.8471 57.8263 28.7569 57.5395 28.6662 57.4814C28.222 57.1968 27.7965 56.8831 27.3643 56.5797C20.6206 51.9669 16.3041 45.6266 14.027 37.8359C13.9989 37.7397 14.0051 37.6335 13.9952 37.532C13.894 37.421 13.8681 37.2894 13.889 37.1449C13.7958 36.9153 13.7253 36.6809 13.7409 36.4288C13.1557 34.2472 12.9378 32.0151 12.9592 29.7694C13.0283 22.5381 15.459 16.1612 20.0213 10.5767C20.7237 9.71699 21.4146 8.84538 22.273 8.12846C22.8516 7.51564 23.4146 6.88558 24.1346 6.42741C24.4694 6.08801 24.8391 5.79229 25.2453 5.54245C29.1123 2.74047 33.4025 0.97654 38.1316 0.28966C38.2082 0.277185 38.2849 0.264731 38.3615 0.252278C38.3596 0.183642 38.3576 0.115031 38.3556 0.0463955C38.1568 0.0329506 37.9579 0.0194609 37.759 0.00601603C36.894 0.00403235 36.0291 0.00200572 35.1641 0C32.2217 0.197574 29.3425 0.743854 26.5119 1.56199C24.6968 2.08658 22.9437 2.78032 21.198 3.4949C19.3441 4.39721 17.5682 5.43253 15.8645 6.59428C15.5417 6.81438 15.2757 7.12864 14.8741 7.22646C14.809 7.30691 14.7438 7.3874 14.6787 7.46787C14.3861 7.57497 14.2349 7.90508 13.9074 7.95711C13.8227 8.03756 13.738 8.11799 13.6533 8.19842C13.4332 8.69209 12.9242 8.90099 12.5472 9.2065C11.3079 10.2109 10.2202 11.3681 9.1538 12.5304C6.83197 15.0611 5.01528 17.9483 3.52788 21.0421C3.18728 21.7505 2.8503 22.4606 2.51164 23.17C2.32046 24.251 1.74092 25.1974 1.45328 26.2484C1.04207 27.7508 0.661998 29.254 0.403106 30.7949C0.200176 32.0027 0.0861796 33.2111 0 34.4271C0.000176327 35.7874 0.000354224 37.1477 0.00050851 38.5079C0.15907 39.0357 -0.100791 39.5973 0.131497 40.1191C0.370001 43.0572 1.05897 45.895 2.01962 48.6747C2.55052 50.2109 3.14183 51.7331 3.89766 53.1604C9.7947 64.297 18.8948 71.2238 31.3146 73.5232C45.0701 76.0698 59.8697 70.2066 68.1455 59.1255C68.6807 58.4088 69.1691 57.6572 69.6792 56.9219C70.9509 54.7518 72.1066 52.5258 72.9412 50.1454C73.0753 49.7632 73.1958 49.3761 73.3313 48.9943C73.3722 48.8789 73.4594 48.744 73.2946 48.6944ZM54.7362 43.3202C54.7339 43.2521 54.7318 43.184 54.7296 43.1159C54.7223 42.8879 54.7153 42.6598 54.7053 42.4318C54.6992 42.2935 54.7578 42.2345 54.8502 42.2144C54.885 42.2068 54.9241 42.2043 54.967 42.2058C54.9947 42.5989 55.461 43.0829 54.7362 43.3202ZM55.9317 42.4095C55.9194 42.3542 55.9489 42.2896 55.9592 42.2292C56.0999 42.2121 56.2509 42.1576 56.3383 42.3337C56.3334 42.3742 56.3369 42.418 56.3224 42.4546C56.2237 42.7026 56.5472 43.1987 56.1067 43.1814C55.7338 43.1667 55.9915 42.6793 55.9317 42.4095ZM57.4941 42.2156C57.8794 42.2174 57.5089 42.6006 57.6974 42.7208C57.5906 42.9326 57.8377 43.2598 57.4621 43.2867C57.1351 43.3102 57.1977 43.0235 57.2293 42.8422C57.269 42.615 57.0793 42.2137 57.4941 42.2156ZM56.7845 41.6064C56.9337 41.5962 57.0828 41.6119 57.0889 41.8144C57.0931 41.9528 57.0326 42.0616 56.8852 42.0713C56.7329 42.0812 56.6013 42.0321 56.5711 41.8588C56.5666 41.7047 56.6402 41.6162 56.7845 41.6064ZM57.0715 42.5837C57.0565 42.8275 57.2178 43.1104 56.9539 43.3165C56.3228 43.1907 56.6847 42.6641 56.5578 42.3348C56.8747 42.1187 57.0989 42.1393 57.0715 42.5837ZM56.1323 41.6076C56.3107 41.5821 56.4015 41.645 56.3592 41.8376C56.3289 41.9757 56.2472 42.0424 56.1027 42.0198C55.9381 41.9977 55.8442 41.8966 55.8555 41.7383C55.8682 41.5607 56.0258 41.6228 56.1323 41.6076ZM55.6816 43.3051C55.5075 43.283 55.2237 43.4497 55.2171 43.1182C55.2113 42.8309 55.0595 42.4217 55.3391 42.2729C55.7491 42.0547 55.6979 42.4584 55.7222 42.703C55.7087 42.9037 55.6952 43.1044 55.6816 43.3051ZM55.4318 41.5873C55.5586 41.5925 55.6819 41.601 55.6934 41.7709C55.7031 41.9132 55.6513 42.0112 55.4983 42.0209C55.3366 42.0311 55.2161 41.9705 55.2006 41.7919C55.1864 41.6273 55.2954 41.5887 55.4318 41.5873ZM34.7186 53.4239C35.0389 53.8065 34.9682 54.3003 35.2063 54.7096C35.4301 54.2955 35.4287 53.8189 35.7704 53.4532C36.1502 53.7944 36.0091 54.391 36.3944 54.7075C36.4347 54.2533 36.5932 53.8411 36.833 53.4133C37.1933 53.7675 37.1305 54.2727 37.4205 54.6932C37.5949 54.2563 37.6489 53.8157 37.9393 53.4435C38.2053 53.742 38.2429 54.1142 38.3667 54.4417C38.4301 54.6094 38.4791 54.6249 38.607 54.5341C38.607 54.5341 38.607 54.5341 38.607 54.5341C38.6652 54.1492 38.7868 53.7891 39.0211 53.4015C39.3657 53.7917 39.3344 54.2792 39.5575 54.6723C39.8232 54.3019 39.7949 53.803 40.1611 53.387C40.3307 53.8582 40.4823 54.2793 40.6453 54.7323C40.8793 54.2939 40.8855 53.8169 41.1933 53.4412C41.5802 53.7754 41.4901 54.3024 41.7627 54.6716C41.9279 54.2495 42.0825 53.8548 42.254 53.4166C42.6237 53.7907 42.5227 54.2838 42.7734 54.6581C43.0555 54.306 42.9884 53.7848 43.365 53.4394C43.6823 53.785 43.5787 54.2855 43.8791 54.6374C44.0448 54.2208 44.1985 53.8348 44.372 53.3989C44.7268 53.7822 44.7038 54.2536 44.9514 54.6715C45.2086 54.2756 45.1602 53.7801 45.5097 53.4534C45.7638 53.8305 45.8782 54.2392 45.9475 54.665C46.3658 54.3744 46.2135 53.7757 46.5998 53.442C46.8902 53.8213 46.8859 54.3005 47.1207 54.7208C47.3385 54.3013 47.3379 53.7997 47.6879 53.4174C48.0081 53.7708 48.0832 54.1918 48.2048 54.5937C48.2808 54.8449 48.1387 54.8799 47.9525 54.8686C47.278 54.8279 46.6011 54.9492 45.9279 54.8367C44.2495 54.8545 42.5711 54.8814 40.8926 54.8861C40.1374 54.8883 39.3804 54.9807 38.6264 54.8614C37.8833 54.8922 37.1401 54.9252 36.3993 54.8236C35.6678 54.9492 34.9366 54.8544 34.1734 54.8771C34.2689 54.3317 34.4096 53.8726 34.7186 53.4239Z" fill="#E9BE6E"/>
<path d="M69.3055 29.4469C69.6326 28.6619 69.7899 28.0099 70.1374 27.4468C70.1529 27.4216 70.1667 27.3955 70.183 27.3707C70.2779 26.9678 70.5557 26.7521 70.931 26.6299C71.4873 26.4487 72.042 26.2621 72.6763 26.0515C72.2329 25.9128 71.867 25.7786 71.491 25.6848C70.7092 25.4897 70.1999 25.0279 69.9178 24.2657C69.7509 23.8146 69.6332 23.3365 69.352 22.9316C69.3247 22.9651 69.3008 22.9998 69.2795 23.0355C69.1307 23.2857 69.1153 23.5853 69.0137 23.8532C68.7614 24.5187 68.5707 25.2303 67.7235 25.3963C67.6606 25.4375 67.5966 25.4758 67.532 25.5126C67.2394 25.6796 66.9284 25.8012 66.5967 25.8707C66.5597 25.8784 66.5228 25.8865 66.4853 25.8929C66.3863 25.9536 66.2872 26.0142 66.0703 26.147C67.9848 26.4094 69.118 27.3991 69.3055 29.4469Z" fill="#E9BE6E"/>
<path d="M42.6024 6.64094C42.7115 6.93507 42.7169 6.52447 42.8184 6.54555C42.8471 6.27971 42.92 6.04017 43.191 5.91831C43.4167 5.82441 43.6423 5.73052 43.868 5.63667C43.098 5.55309 42.8929 4.95737 42.7049 4.38391C42.4784 4.43822 42.5576 4.70745 42.358 4.73066C42.3599 5.40423 41.7182 5.3491 41.3586 5.61339C41.9428 5.75 42.3772 6.03318 42.6024 6.64094Z" fill="#E9BE6E"/>
<path d="M59.1199 8.73066C59.2289 9.02479 59.2344 8.61419 59.3358 8.63526C59.3645 8.36943 59.4374 8.12989 59.7084 8.00803C59.9341 7.91413 60.1597 7.82026 60.3854 7.72639C59.6154 7.64281 59.4103 7.04709 59.2223 6.47363C58.9958 6.52794 59.075 6.79717 58.8753 6.82038C58.8773 7.49395 58.2356 7.43882 57.876 7.70311C58.4602 7.83974 58.8946 8.12293 59.1199 8.73066Z" fill="#E9BE6E"/>
<path d="M37.6364 6.5889C37.6496 6.58187 37.6625 6.57389 37.6753 6.56561C37.7709 6.50374 37.8569 6.41829 37.9852 6.43676C37.992 6.43773 37.9982 6.43746 38.0053 6.43902C38.1381 6.35644 38.1642 6.22823 38.1565 6.08553C38.1753 6.03352 38.1861 5.98666 38.193 5.94227C38.2558 5.53632 37.8553 5.42532 37.6047 5.21891C37.6221 5.19489 37.6417 5.17492 37.6622 5.15651C37.7369 5.08946 37.8295 5.05473 37.9241 5.02367C37.9519 5.01457 37.9798 5.0056 38.0074 4.99621C38.4314 4.4179 38.1037 4.06322 37.6367 3.75C37.6251 3.75798 37.6153 3.76497 37.604 3.77272C36.8703 4.27951 36.8661 4.3708 37.4276 5.21911C36.8358 6.00013 36.8671 6.20552 37.6364 6.5889ZM37.6244 5.56517C37.8439 5.55671 37.9746 5.68318 37.9813 5.89636C37.9889 6.14022 37.8291 6.25822 37.6012 6.30618C37.4263 6.28613 37.3066 6.20048 37.2672 6.04822C37.2651 6.04022 37.2627 6.03257 37.2611 6.0242C37.2569 6.00253 37.2538 5.97998 37.2527 5.9558C37.242 5.71007 37.3827 5.57447 37.6244 5.56517ZM38.0067 4.45855C38.0089 4.47003 38.0114 4.48118 38.0131 4.49308C38.0136 4.49628 38.0145 4.49912 38.0149 4.50236C38.0148 4.50272 38.0147 4.50302 38.0147 4.50342C37.9823 4.73846 37.8615 4.89196 37.6152 4.8738C37.3692 4.85566 37.2601 4.67913 37.2674 4.44944C37.2741 4.2349 37.409 4.10867 37.6244 4.11255C37.797 4.11563 37.9047 4.19496 37.9642 4.32238C37.9833 4.36307 37.9973 4.40869 38.0067 4.45855Z" fill="#E9BE6E"/>
<path d="M38.2409 7.23912C38.2037 7.17304 38.1618 7.11208 38.1163 7.05512C37.9996 6.9089 37.8535 6.79513 37.6783 6.71338C37.6638 6.70661 37.6512 6.69771 37.6363 6.69141C37.0118 7.01962 36.8605 7.42426 37.2191 7.82307C37.6517 8.30435 37.8627 7.88417 38.1209 7.65624C38.1632 7.61888 38.2067 7.58655 38.2527 7.56435C38.3131 7.45362 38.3535 7.34359 38.2409 7.23912ZM37.8481 7.70372C37.7936 7.7478 37.7261 7.7761 37.6453 7.78273C37.4029 7.80268 37.2816 7.6169 37.2705 7.38476C37.2602 7.16771 37.3903 7.01964 37.5909 6.99462C37.8321 6.96454 37.9641 7.12096 38.0102 7.34705C37.9991 7.49552 37.9467 7.62034 37.8554 7.69816C37.8531 7.70017 37.8505 7.7018 37.8481 7.70372Z" fill="#E9BE6E"/>
<path d="M37.6027 3.61547C37.6143 3.6206 37.6245 3.6258 37.6365 3.63092C37.8031 3.53286 38.0234 3.53782 38.1501 3.36316C38.1944 3.27482 38.2206 3.18966 38.2323 3.10699C38.256 2.93987 38.2137 2.78417 38.1103 2.63901C38.0793 2.59544 38.0448 2.55246 38.0028 2.51078C37.882 2.42337 37.7613 2.33591 37.6406 2.24845C38.4195 1.69397 38.4195 1.69397 37.8842 0.865211C37.8659 0.86272 37.849 0.863074 37.8312 0.861729C37.1941 0.814055 36.9062 1.50235 37.171 1.84349C37.2805 1.98455 37.4027 2.11572 37.5192 2.25138C36.8469 2.9411 36.8669 3.29052 37.6027 3.61547ZM37.2955 1.51632C37.302 1.32419 37.4113 1.14231 37.6186 1.12177C37.8873 1.09514 37.9037 1.36285 38.0154 1.48846C37.9794 1.7431 37.8402 1.85546 37.639 1.86221C37.4197 1.86955 37.2884 1.72465 37.2955 1.51632ZM37.2662 2.97432C37.2767 2.75691 37.3983 2.60289 37.6326 2.59396C37.8889 2.58424 37.9838 2.76451 38.0158 2.99325C37.9832 3.23264 37.8386 3.3698 37.6046 3.36678C37.4705 3.36506 37.3711 3.3069 37.3154 3.21181C37.2819 3.15464 37.2642 3.08417 37.2641 3.00458C37.2641 2.99411 37.2657 2.9845 37.2662 2.97432Z" fill="#E9BE6E"/>
<path d="M46.3609 15.8195C47.1605 16.0066 47.53 16.553 47.6802 17.3052C47.6821 17.3101 47.684 17.315 47.6858 17.3199C47.7761 17.5562 47.8662 17.7925 47.956 18.0276C48.323 17.814 48.1582 17.3521 48.389 17.0707C48.3926 17.0589 48.3962 17.0471 48.3998 17.0353C48.5382 16.5844 48.665 16.1241 49.2053 15.9944C49.2234 15.99 49.2406 15.985 49.2596 15.9814C49.3271 15.9006 49.4118 15.8618 49.5179 15.8751C49.5471 15.8599 49.5765 15.8454 49.6059 15.831C49.8211 15.7258 50.0434 15.6446 50.2798 15.6111C50.342 15.6023 50.4048 15.5957 50.4691 15.5941C50.4032 15.1602 49.9873 15.2286 49.7326 15.1454C48.99 14.9031 48.5217 14.4434 48.2616 13.7156C48.1788 13.4839 48.1974 13.1774 47.9154 13.04C47.9063 13.0697 47.8966 13.0988 47.8872 13.1282C47.5822 14.0825 47.1329 14.9108 46.0593 15.2124C45.8138 15.2814 45.5788 15.3878 45.3389 15.4771C45.4248 15.5064 45.5104 15.5376 45.5958 15.5691C45.8485 15.6623 46.1006 15.7586 46.3609 15.8195Z" fill="#E9BE6E"/>
<path d="M27.9811 40.7361C27.9326 39.8418 27.5168 39.1849 26.8041 38.6965C26.7825 38.6817 26.7616 38.6666 26.7395 38.6521C26.632 38.56 26.5245 38.4679 26.417 38.3758C26.8808 38.0515 26.3049 37.7123 26.4247 37.3413C26.5009 37.105 26.3809 36.7353 26.1831 36.4354C26.0386 36.6969 25.9913 37.0716 26.0339 37.1608C26.23 37.5722 25.6598 37.9074 25.8743 38.1295C26.1926 38.4592 25.9437 38.5078 25.7668 38.6458C25.5721 38.7976 25.3649 38.9352 25.1819 39.0997C24.4379 39.769 24.3166 40.7289 24.8626 41.5676C24.977 41.7433 25.0477 41.9028 24.7763 41.9976C24.5379 41.9245 24.3917 41.966 24.4036 42.2618C24.4164 42.5793 24.4077 42.8976 24.4084 43.2155C24.31 43.3891 24.3566 43.5368 24.5061 43.6477C24.7528 43.8308 24.7743 44.0924 24.7749 44.3632C24.7796 46.4755 24.7894 48.5878 24.7802 50.7001C24.7789 50.9889 24.9397 51.3347 24.5038 51.5405C24.3523 51.612 24.3529 52.0427 24.5098 52.1536C24.7988 52.358 24.7652 52.6257 24.7235 52.8528C24.5126 54.002 25.028 54.7484 25.967 55.3163C26.4396 55.6022 26.8748 55.9508 27.3203 56.2798C27.4198 56.3533 27.5046 56.3466 27.6038 56.3076C27.6039 56.3 27.604 56.2924 27.6041 56.2849C27.6099 55.8867 27.6157 55.4886 27.6215 55.0905C27.6231 54.4311 27.6247 53.7717 27.6263 53.1124C27.636 52.82 27.4474 52.4448 27.7224 52.2571C28.1186 51.9868 27.9187 51.5361 27.8112 51.4753C27.4747 51.2851 27.582 51.0251 27.5821 50.7886C27.5828 48.7905 27.5976 46.7924 27.6031 44.7943C27.6039 44.5078 27.4812 44.1524 27.6704 43.9541C28.0605 43.5452 27.8942 43.0799 27.9521 42.6301C28.0138 42.1511 27.9394 41.8532 27.3692 41.9517C27.387 41.6348 27.6584 41.5569 27.7369 41.3409C27.8104 41.1388 27.9956 41.0033 27.9811 40.7361ZM24.631 43.1058C24.639 42.8962 24.6512 42.6864 24.6436 42.4774C24.6369 42.2919 24.7023 42.229 24.8018 42.2186C24.8596 42.2125 24.9289 42.224 25.0024 42.2397C25.0092 42.5067 25.0243 42.7738 25.0205 43.0407C25.0159 43.3657 24.8573 43.3794 24.6271 43.2164C24.628 43.1795 24.6296 43.1427 24.631 43.1058ZM25.4389 41.5944C25.5518 41.6023 25.7051 41.5609 25.7124 41.7366C25.7196 41.9105 25.6441 42.0496 25.4475 42.0818C25.2873 42.0712 25.1806 41.999 25.1715 41.8276C25.1615 41.6399 25.2716 41.5826 25.4389 41.5944ZM25.1405 42.7847C25.2413 42.5921 24.9852 42.1884 25.4525 42.2127C25.8876 42.2354 25.6915 42.6042 25.7204 42.8265C25.7464 43.0271 25.8132 43.303 25.4495 43.311C25.0317 43.3203 25.1802 43.0054 25.1405 42.7847ZM26.1539 41.6001C26.3002 41.6008 26.445 41.5987 26.4336 41.8088C26.4141 41.962 26.3608 42.0853 26.1751 42.0665C26.0291 42.0518 25.8991 42.0083 25.886 41.8275C25.8717 41.6288 25.9978 41.5995 26.1539 41.6001ZM25.8644 42.76C25.9206 42.5466 25.747 42.195 26.1738 42.2344C26.6204 42.2755 26.3715 42.6387 26.4098 42.8519C26.4441 43.043 26.5172 43.3286 26.1248 43.3013C25.6808 43.2704 25.9459 42.9373 25.8644 42.76ZM26.8426 42.236C27.2762 42.2033 27.0468 42.5825 27.1303 42.7819C27.0414 42.9598 27.3047 43.315 26.8425 43.3048C26.4982 43.2971 26.5667 43.041 26.6007 42.8643C26.643 42.6444 26.4105 42.2685 26.8426 42.236ZM26.9234 42.0756C26.7584 42.0878 26.6424 42.027 26.635 41.8419C26.6273 41.6505 26.7507 41.6008 26.9107 41.5939C27.044 41.584 27.1659 41.5964 27.1584 41.7731C27.1518 41.9254 27.1088 42.062 26.9234 42.0756ZM27.7484 42.3494C27.7723 42.4818 27.6842 42.69 27.7622 42.8055C27.6691 42.9888 27.9266 43.319 27.514 43.3212C27.232 43.3227 27.2453 43.0962 27.2891 42.9225C27.3514 42.6754 27.1447 42.235 27.5591 42.2281C27.6097 42.2273 27.6468 42.235 27.6752 42.2485C27.7193 42.2693 27.7404 42.3049 27.7484 42.3494Z" fill="#E9BE6E"/>
<path d="M39.151 20.659C39.0803 20.1232 39.4911 19.862 39.5738 19.5044C38.884 19.2645 38.9523 19.8448 38.845 20.2245C38.6076 20.0284 38.8413 19.6665 38.5013 19.5882C38.3371 19.5865 38.1729 19.5848 38.0088 19.5831C38.005 19.587 38.0026 19.5908 37.999 19.5948C37.6865 19.9394 38.0527 20.2072 38.2224 20.2133C38.2956 20.2159 38.3441 20.2381 38.3803 20.269C38.4741 20.3489 38.4825 20.488 38.6049 20.5048C38.9133 20.787 39.0137 21.1343 38.9817 21.5489C38.9533 21.9146 38.9361 22.2902 38.9867 22.6512C39.1251 23.6376 38.8959 24.4219 37.9359 24.8594C37.922 24.8657 37.9095 24.8727 37.8952 24.8789C38.1907 25.0472 38.3918 25.3043 38.0129 25.5138C37.6492 25.7149 37.8049 25.9694 37.8293 26.1963C37.8638 26.5176 38.1493 26.3661 38.3248 26.3718C39.0179 26.394 39.712 26.3869 40.4052 26.4089C40.5132 26.4123 40.6344 26.549 40.7252 26.4106C40.7982 26.2994 40.7381 26.1695 40.6614 26.0696C40.3751 25.6966 40.1714 25.2814 40.0116 24.843C40.0031 24.8199 39.9943 24.797 39.9861 24.7738C39.5291 24.4838 39.3236 24.0714 39.3351 23.5279C39.3469 22.9718 39.323 22.415 39.3196 21.8584C39.316 21.2751 39.2955 20.6859 39.9636 20.3905C40.1463 20.3096 40.0297 20.08 40.1335 19.9502C40.1352 19.9475 40.1369 19.9449 40.1386 19.9422C40.2878 19.7042 40.441 19.4686 40.5844 19.2271C40.6752 19.0742 40.8356 18.868 40.665 18.7398C40.4681 18.5919 40.3639 18.8322 40.2531 18.9728C39.8575 19.4744 39.4935 19.9975 39.196 20.6729C39.1817 20.6702 39.1666 20.6654 39.151 20.659ZM40.2273 26.1961C39.4521 25.7079 38.7954 25.8112 38.1299 26.1839C38.1294 25.8247 38.465 25.7759 38.5393 25.546C38.6006 25.356 38.8087 25.2378 38.6447 24.9473C38.495 24.6821 38.8768 24.7466 39.0078 24.635C38.9782 24.5162 38.9327 24.3679 39.0447 24.2987C39.1452 24.2366 39.2168 24.3517 39.2552 24.4506C39.4813 25.0329 39.8272 25.5533 40.2302 26.196C40.2308 26.197 40.2314 26.1979 40.2321 26.1989C40.2305 26.1979 40.2289 26.1971 40.2273 26.1961Z" fill="#E9BE6E"/>
<path d="M33.552 26.6035C33.2653 26.8963 33.1104 27.1866 33.5485 27.466C33.5489 27.4548 33.5487 27.4425 33.5496 27.4323C33.5779 27.094 33.8754 27.2893 34.0262 27.2899C35.9572 27.2974 37.8881 27.326 39.819 27.3467C40.454 27.3535 41.0886 27.3466 41.7198 27.2734C41.8019 27.2639 41.8839 27.2535 41.9658 27.2416C42.0544 26.9702 41.8085 26.8387 41.7155 26.6432C41.57 25.13 41.6139 23.6167 41.7131 22.1033C41.7131 22.1037 41.7131 22.1041 41.7131 22.1045C41.7131 22.1041 41.7132 22.1037 41.7132 22.1032C41.7064 20.9601 41.699 19.817 41.694 18.6739C41.6937 18.5979 41.6985 18.519 41.7609 18.4817C41.7817 18.4693 41.809 18.4615 41.8447 18.4599C42.0575 18.2909 41.9357 18.0551 41.9664 17.8498C41.9029 17.8496 41.8395 17.8493 41.776 17.8491C40.4843 17.8448 39.1927 17.8404 37.9009 17.836C37.8955 17.836 37.89 17.8359 37.8845 17.8359C36.5058 17.8494 35.1271 17.8632 33.7484 17.8762C33.2821 17.8806 33.0851 18.1547 33.3913 18.4526C33.6979 18.7507 33.642 19.0568 33.6438 19.3765C33.6552 21.3405 33.6584 23.3046 33.6579 25.2686C33.6578 25.5695 33.6586 25.8705 33.6583 26.1714C33.6582 26.315 33.7644 26.5047 33.552 26.6035ZM40.7402 18.5519C41.0073 18.5494 40.9689 18.6935 40.9589 18.8688C40.939 19.2161 40.9025 19.5687 40.9405 19.9116C40.9846 20.3092 40.7919 20.3614 40.4824 20.324C40.5335 20.0949 40.9627 19.938 40.61 19.6201C40.3662 19.7582 40.3419 19.9544 40.357 20.1603C40.3634 20.2492 40.3771 20.3398 40.3839 20.4284L40.4352 20.4377L40.487 20.4323C40.8667 20.7052 40.9954 21.0624 40.9715 21.537C40.9336 22.2914 40.9514 23.05 40.9777 23.8057C40.9936 24.2621 40.8051 24.5328 40.3801 24.6595C40.3002 24.7633 40.0378 24.8954 40.3912 24.9521C40.5324 24.9748 40.6937 24.872 40.8568 24.823C40.973 25.4082 41.1789 26.1265 40.9207 26.5184C40.672 26.8958 39.8978 26.6264 39.3566 26.6325C37.6699 26.6516 35.983 26.6395 34.3019 26.6395C34.3019 26.0127 34.3019 25.3989 34.3019 24.6816C34.623 24.9065 34.8707 25.0255 35.1568 25.0097C35.1525 24.9691 35.158 24.8975 35.1422 24.8925C34.2331 24.6007 34.2352 23.8782 34.2793 23.118C34.3054 22.6679 34.2894 22.2149 34.2804 21.7635C34.269 21.1916 34.1878 20.5988 34.899 20.337C35.0672 20.2751 35.0445 20.11 35.0293 19.9648C34.8961 19.7924 34.7628 19.62 34.5853 19.3903C34.5818 19.6373 34.4733 19.8234 34.6788 19.9431C34.8612 20.0494 34.7987 20.1208 34.6535 20.1729C34.5492 20.2103 34.3949 20.2917 34.3796 20.0863C34.3459 19.637 34.326 19.1863 34.3138 18.7359C34.3085 18.5403 34.4762 18.5949 34.5833 18.5941C36.6356 18.579 38.6879 18.5708 40.7402 18.5519Z" fill="#E9BE6E"/>
<path d="M24.0036 24.9849C23.9843 25.0499 23.965 25.1151 23.9492 25.1811C23.9209 25.2989 23.7461 25.4312 23.9653 25.5288C24.0308 25.5579 24.1611 25.5713 24.1879 25.5359C24.3343 25.3428 24.2965 25.1035 24.25 24.8966C24.2214 24.7696 24.1315 24.8995 24.0514 24.9184C24.0445 24.9125 24.036 24.9071 24.0281 24.9015C24.0284 24.9004 24.0288 24.8992 24.0292 24.8981C24.0292 24.898 24.0292 24.8978 24.0293 24.8977C24.0293 24.8978 24.0284 24.8988 24.0277 24.8995C24.0274 24.8998 24.0271 24.9002 24.0267 24.9006C24.0205 24.8962 24.0146 24.8918 24.0077 24.8877C23.9825 24.679 24.212 24.597 24.2575 24.4235C24.2128 24.3762 24.169 24.3504 24.1261 24.339C23.9428 24.2904 23.7779 24.5082 23.6459 24.4717C23.0756 24.3138 22.5081 24.4747 21.9471 24.4065C21.517 24.3542 21.4262 24.5276 21.5429 24.8982C21.546 24.9039 21.5478 24.9093 21.5506 24.9149C21.6981 25.2143 21.4146 25.4212 21.3097 25.678C21.8342 25.695 22.4822 26.4403 22.4905 26.965C22.5022 27.7041 22.513 28.4433 22.5242 29.1824C22.5241 29.1825 22.5241 29.1826 22.5241 29.1826C22.4895 29.2775 22.456 29.3733 22.4199 29.4666C22.2648 29.8669 22.0607 30.219 21.5053 30.239C21.367 30.244 21.1871 30.2687 21.1979 30.4634C21.2099 30.6799 21.3936 30.611 21.5281 30.6182C21.6187 30.623 21.7379 30.5764 21.7728 30.7192C21.1781 31.3889 21.1366 31.5148 21.497 31.7891C21.5103 31.7993 21.523 31.8092 21.5374 31.8198C21.9094 31.1315 22.2814 30.4432 22.6535 29.7549C22.6623 30.0407 22.9376 30.241 22.9278 30.5329C22.879 30.5331 22.8408 30.5416 22.8126 30.5578C22.7318 30.479 22.7342 30.2955 22.5436 30.3188C22.6883 30.6814 22.3154 30.8712 22.1933 31.1955C22.5482 31.178 22.8465 31.1624 23.1361 31.3136C23.1385 31.0086 22.8334 30.863 22.9112 30.5917C22.908 30.5919 22.9049 30.5918 22.9018 30.5918C22.9026 30.5912 22.903 30.5905 22.9038 30.5899C22.9067 30.5891 22.9092 30.5888 22.9121 30.588C22.9117 30.5893 22.9115 30.5905 22.9112 30.5917C22.9149 30.5915 22.9181 30.592 22.9221 30.5915C22.9221 30.5915 22.92 30.5891 22.9178 30.5867L22.9221 30.5915C22.9222 30.5904 22.9222 30.5894 22.9224 30.5883C22.9214 30.5877 22.9207 30.5869 22.9197 30.5863C22.9207 30.586 22.9217 30.5858 22.9227 30.5856C22.9225 30.5865 22.9225 30.5874 22.9224 30.5883C23.2285 30.7741 23.2738 31.1447 23.4893 31.3945C23.6884 31.6251 23.8097 31.9659 24.1772 31.9609C24.2075 31.9605 24.239 31.9585 24.273 31.9531C24.3211 31.5577 23.8915 31.3421 23.89 30.9654C23.9044 30.9576 23.9193 30.9502 23.9307 30.9386C24.0584 30.9776 24.0502 31.2428 24.2684 31.1484C24.2041 30.958 24.4082 30.652 24.1137 30.5791C23.8153 30.5052 23.9281 30.7794 23.9092 30.9345C23.9132 30.9348 23.9175 30.9348 23.9213 30.9355C23.9168 30.9386 23.9124 30.9422 23.9078 30.945C23.9084 30.9416 23.9088 30.938 23.9092 30.9345C23.9029 30.9339 23.8968 30.933 23.89 30.9334L23.8896 30.933C23.8895 30.9339 23.8897 30.9347 23.8896 30.9355C23.8939 30.9396 23.8978 30.944 23.9021 30.948C23.8982 30.9503 23.8939 30.952 23.8898 30.954C23.8899 30.9478 23.8893 30.9419 23.8896 30.9355C22.4224 29.5415 22.301 26.6171 23.9724 24.9554C23.9837 24.9657 23.9945 24.9758 24.0036 24.9849ZM21.6775 24.7655C22.3782 24.8545 22.9634 25.0425 23.526 24.656C23.3729 25.4822 22.681 24.936 22.3135 25.1683C22.3841 25.5142 22.7567 25.7679 22.5776 26.3459C22.3733 25.7104 22.1257 25.2439 21.6775 24.7655Z" fill="#E9BE6E"/>
<path d="M39.1296 30.5917C39.1303 30.592 39.131 30.5923 39.1317 30.5926C39.4796 30.7483 40.0016 30.5247 39.8863 30.2664C39.6257 29.6825 40.1049 29.6581 40.3647 29.4575C40.735 29.1716 41.1121 28.8944 41.4863 28.6135C41.5031 28.5854 41.5201 28.5574 41.5372 28.5293C41.7275 28.2167 41.9194 27.9044 41.7118 27.5104C41.6827 27.5104 41.6536 27.5103 41.6244 27.5102C41.4295 27.5097 41.2346 27.5093 41.0398 27.5088C39.3408 27.5042 37.6418 27.4989 35.9428 27.4962C35.6983 27.4958 35.4538 27.4968 35.2094 27.4974C34.6748 27.4988 34.1403 27.5011 33.6057 27.5028C33.5911 27.5029 33.5766 27.503 33.5621 27.503C33.4019 28.1697 33.7089 28.6411 34.2336 28.9973C34.7375 29.3393 35.262 29.651 35.7776 29.9759C35.7766 29.9721 35.776 29.9681 35.7748 29.9644C35.7786 29.9646 35.782 29.9654 35.7856 29.9657C36.1192 29.9922 36.2524 30.3239 36.5286 30.4533C37.473 30.8958 38.1499 30.8169 39.4414 30.0589C39.7186 30.459 39.2204 30.4064 39.1296 30.5917Z" fill="#E9BE6E"/>
<path d="M25.2165 32.9335C25.6618 32.673 25.512 32.3866 25.2529 32.0955C25.1329 32.0112 25.1452 31.8816 25.1455 31.761C25.1531 29.3555 25.1611 26.9499 25.1747 24.5444C25.175 24.4939 25.1828 24.4434 25.1925 24.393C25.2006 24.3039 25.2172 24.2154 25.2518 24.1282C25.2823 24.0037 25.3855 24.0221 25.4753 24.0143C25.4821 23.9983 25.4888 23.9824 25.4954 23.9664C25.5776 23.7684 25.6324 23.5739 25.3976 23.417C25.3529 23.4964 25.2919 23.5252 25.2253 23.5344C25.1567 23.5438 25.0822 23.5322 25.0133 23.5323C22.4091 23.536 19.805 23.5373 17.2008 23.5365C17.1539 23.5364 17.1052 23.5401 17.0572 23.5399C16.964 23.5395 16.8737 23.5238 16.8046 23.4325C16.682 23.5959 16.6184 23.8268 16.7984 23.9188C17.1875 24.1176 17.1201 24.4454 17.1206 24.7595C17.1245 27.0353 17.1217 29.3111 17.1251 31.5869C17.1254 31.8379 17.0793 32.0499 16.9258 32.2703C16.7107 32.5792 16.8331 32.7877 17.2237 32.8041C17.2448 32.8039 17.2659 32.8038 17.2871 32.8037C19.8508 32.7876 22.4145 32.7713 24.9783 32.7579C25.0132 32.7578 25.0483 32.7953 25.0833 32.8152C24.9561 33.0164 24.7495 32.9454 24.577 32.9454C22.1875 32.9447 19.7979 32.9365 17.4084 32.9299C17.3617 32.9297 17.315 32.9296 17.2683 32.9295C17.2508 32.9294 17.2333 32.9294 17.2158 32.9293C16.7745 33.3411 17.2922 33.7437 17.2275 34.1518C17.2299 34.1533 17.2323 34.1548 17.2346 34.1563C17.7849 34.4996 18.3364 34.8409 18.8835 35.1892C18.9487 35.2307 19.1116 35.2881 18.9929 35.3918C18.5246 35.8007 19.0998 35.9152 19.1957 36.1628C19.2915 36.1696 19.4138 36.1984 19.4875 36.1514C19.5068 36.1391 19.5235 36.1229 19.5347 36.0983C19.6511 35.8407 19.3799 35.9561 19.2944 35.8886C19.1682 35.7891 19.1118 35.6625 19.1727 35.5165C19.2275 35.3851 19.339 35.4213 19.4203 35.4934C20.593 36.5331 21.755 36.2705 22.9142 35.4696C22.9184 35.5223 22.9251 35.5766 22.93 35.6295C22.952 35.8666 22.9387 36.0733 22.5155 35.9491C22.4547 35.9312 22.3606 35.9853 22.2961 36.0276C21.5947 36.4878 20.8651 36.4455 20.1133 36.173C19.9394 36.1099 19.7198 36.0175 19.6882 36.2494C19.6825 36.291 19.6822 36.3418 19.69 36.4064C20.083 37.1642 20.7643 37.7634 20.9217 38.6515C20.944 38.7774 21.0097 38.888 21.1583 38.8923C21.3213 38.897 21.4076 38.7275 21.3696 38.6509C21.1697 38.2481 21.5298 38.0792 21.676 37.8192C21.9168 37.391 22.1649 36.9652 22.3718 36.5207C22.456 36.3397 22.3942 36.1742 22.7398 36.2312C22.9913 36.2727 23.2792 35.9559 23.3817 35.6639C23.4313 35.5225 23.2997 35.3492 23.0753 35.3962C23.4638 35.1311 23.8611 34.8779 24.2386 34.5982C24.7966 34.1846 25.2798 33.7167 25.2165 32.9335ZM23.5387 30.452C24.5828 30.0443 24.3933 30.7161 24.4239 31.1839C24.4413 31.4496 24.4822 31.7139 24.4974 31.9796C24.5094 32.1907 24.4294 32.24 24.2699 32.0769C22.203 32.085 20.1362 32.0908 18.0694 32.1055C17.8982 32.1067 17.7926 32.0948 17.8002 31.89C17.8168 31.4401 17.8317 30.9898 17.8342 30.5397C17.8359 30.2475 18.022 30.3511 18.171 30.3645C18.0371 30.6548 17.8791 30.9419 18.0242 31.2923C18.2543 31.1807 18.2553 30.9263 18.3915 30.7758C18.4109 30.7544 18.4329 30.7351 18.4588 30.7185C18.4976 30.5923 18.5365 30.4661 18.5754 30.3399C17.8274 30.0475 17.7183 29.4585 17.7805 28.7439C17.8299 28.1758 17.8192 27.5985 17.7846 27.0283C17.7535 26.5154 17.8997 26.1471 18.4052 25.9729C18.5718 25.9155 18.6308 25.8159 18.5733 25.649L18.5145 25.6339L18.4546 25.6433C18.4384 25.2934 18.2423 25.0468 17.9971 24.7732C17.925 25.2079 17.9343 25.5559 18.3306 25.7618C18.0003 25.8471 17.8454 25.754 17.8202 25.3787C17.742 24.2156 17.7286 24.2019 18.9023 24.1906C20.6934 24.1734 22.4848 24.1786 24.276 24.1744C24.3475 24.18 24.4614 24.1265 24.4562 24.2592C24.4361 24.769 24.4058 25.2784 24.3797 25.779C24.1261 25.8855 23.9306 25.5536 23.5677 25.7697C24.7876 26.2059 24.4696 27.1978 24.4527 28.0468C24.4357 28.8978 24.8302 29.9208 23.5387 30.452Z" fill="#E9BE6E"/>
<path d="M38.0716 32.5492C38.0887 32.5162 38.1051 32.4826 38.1215 32.4491C38.1761 32.3377 38.2321 32.2273 38.3208 32.1393C38.3429 32.1174 38.3663 32.0964 38.3931 32.0776C38.5313 31.536 39.103 31.2021 39.1091 30.5971C39.1091 30.5968 39.1092 30.5965 39.1092 30.5961C38.9963 30.6061 38.867 30.5892 38.7804 30.6422C37.7928 31.2452 36.8586 30.7547 35.92 30.501C35.6626 30.4314 35.8233 30.1584 35.779 29.9783C35.7782 29.9782 35.7776 29.9783 35.7768 29.9782C35.5256 29.9431 35.3612 30.0501 35.4113 30.3072C35.4569 30.5418 35.5744 30.7596 35.862 30.8205C35.9671 30.8428 36.0563 30.6594 36.173 30.8391C36.6588 31.5872 37.2547 32.2768 37.3758 33.209C37.3951 33.3579 37.4228 33.5233 37.6041 33.5141C37.7995 33.5042 37.923 33.3276 37.845 33.1668C37.693 32.8532 37.9105 32.7219 38.0716 32.5492Z" fill="#E9BE6E"/>
<path d="M42.9555 36.5335C42.9423 36.5237 42.9269 36.5149 42.9082 36.5076C42.887 36.5067 42.8617 36.5079 42.8297 36.5129C42.5343 37.0264 42.075 37.1095 41.5583 37.0418C41.5298 37.038 41.5012 37.0341 41.4723 37.0295C41.3308 37.0519 41.1948 37.053 41.091 36.9302C41.0618 36.9239 41.0341 36.9158 41.0066 36.9073C40.778 36.8369 40.61 36.6906 40.4944 36.4785C40.4866 36.4641 40.4781 36.4505 40.4708 36.4355C39.9368 35.8511 40.0439 35.2113 40.4159 34.4697C39.69 34.9761 39.5915 35.6062 39.6057 36.2823C39.6165 36.3232 39.6294 36.3629 39.6424 36.4024C39.7393 36.697 39.8963 36.9564 40.0899 37.1944C40.1393 37.2552 40.1902 37.315 40.244 37.3732C40.7404 37.6397 41.2633 37.7571 41.8242 37.6593C41.831 37.6582 41.8377 37.6578 41.8445 37.6565C42.2953 37.4579 42.7029 37.204 42.9747 36.7757C42.9498 36.7271 42.9946 36.64 42.9936 36.5781C42.985 36.5613 42.9727 36.5463 42.9555 36.5335Z" fill="#E9BE6E"/>
<path d="M56.1954 35.8935C56.2025 35.8835 56.2104 35.8746 56.2183 35.8657C56.3758 35.6883 56.691 35.707 56.7752 35.4321C55.7856 35.4056 55.7726 35.3947 55.8001 34.6074C55.5801 34.6631 55.5677 34.8898 55.448 35.0239C55.4421 35.0305 55.4372 35.038 55.4307 35.0442C55.5864 35.4166 55.7741 35.7602 56.1954 35.8935Z" fill="#E9BE6E"/>
<path d="M26.2563 35.9086C25.9346 35.8315 26.0283 35.5126 25.9478 35.2666C25.6503 35.5967 25.8115 35.848 25.9825 36.0801C26.1995 36.3748 26.4736 36.3037 26.746 36.1577C26.6978 35.8486 26.3354 36.1569 26.2563 35.9086Z" fill="#E9BE6E"/>
<path d="M18.8872 21.1092C18.3822 21.4261 17.847 21.7061 17.4267 22.1364C17.114 22.4565 16.7893 22.8012 17.0878 23.3103C17.1095 23.3106 17.1311 23.3109 17.1527 23.3111C18.1283 23.3229 19.1038 23.3357 20.0794 23.3477C21.2763 23.3625 22.4731 23.376 23.67 23.3843C23.7522 23.3848 23.8344 23.3817 23.9167 23.3793C24.3055 23.3679 24.6945 23.3303 25.0834 23.3054C25.1028 23.3042 25.1222 23.3025 25.1417 23.3013C25.4708 22.857 25.1644 22.5312 24.912 22.2241C24.5514 21.7852 24.0131 21.5824 23.5548 21.2723C23.4497 21.2011 23.2894 21.1531 23.2176 21.0475C23.1919 21.0099 23.1782 20.9644 23.1816 20.9083C23.1856 20.8414 23.2142 20.7593 23.2799 20.6548C23.4014 20.4616 23.1404 20.1181 22.803 20.0721C22.6456 20.0507 22.5378 20.0708 22.4122 19.8889C21.9364 19.1999 21.372 18.5659 21.3101 17.6732C21.3023 17.5608 21.239 17.4602 21.123 17.4739C21.0323 17.4847 20.9255 17.544 20.8697 17.6157C20.8116 17.6904 20.809 17.807 20.777 17.9036C20.4886 18.7739 20.2744 19.6826 19.2933 20.105C19.1307 20.175 18.7941 20.4211 19.0065 20.6752C19.2417 20.9564 19.0599 21.0008 18.8872 21.1092ZM19.6156 20.7428C19.3716 20.8742 19.3246 20.8307 19.3044 20.6369C19.2448 20.4424 19.4809 20.4086 19.5506 20.2666C19.6403 20.084 19.7007 20.2035 19.7691 20.3344C19.8826 20.5519 20.014 20.3361 20.1156 20.2981C20.8134 20.0374 21.5026 19.9183 22.183 20.3371C22.3361 20.4313 22.4464 20.4487 22.6036 20.3123C22.6855 20.2413 22.8169 20.388 22.8901 20.4834C22.9603 20.5749 22.9529 20.6853 22.8667 20.7592C22.7709 20.8415 22.6702 20.768 22.5883 20.7168C21.5906 20.0919 20.6075 20.2088 19.6156 20.7428Z" fill="#E9BE6E"/>
<path d="M37.9442 12.6059C37.8824 12.5365 37.8206 12.467 37.7589 12.3976C37.7726 12.383 37.7864 12.3685 37.8002 12.3538C37.8516 12.2994 37.903 12.245 37.9544 12.1905C37.9706 12.1733 37.9868 12.1562 38.003 12.1391C38.3746 11.6009 37.9974 11.3178 37.6261 11.0326C37.7657 10.9144 37.9436 10.8202 38.0367 10.6727C38.2146 10.3904 38.206 10.0898 37.9582 9.8327C37.7449 9.61152 37.5105 9.64238 37.2973 9.82029C37.0344 10.0396 36.9159 10.306 37.1303 10.6314C37.2195 10.7666 37.3107 10.9006 37.4009 11.0351C36.9807 11.4975 36.9161 11.9549 37.4205 12.4042C37.0407 13.0798 36.7091 13.785 36.2115 14.3879C36.1909 14.4129 36.1718 14.4388 36.1506 14.4635C35.4143 14.5794 35.2552 14.7817 35.5375 15.2426C35.4752 15.4958 35.2219 15.5183 35.0509 15.6349C34.5047 16.0075 33.9007 16.3225 33.6145 16.9641C33.3795 17.4913 33.4988 17.6724 34.0716 17.6839C35.3421 17.7093 36.6129 17.7202 37.8836 17.737C37.8883 17.7369 37.8929 17.7369 37.8976 17.7368C38.0875 17.7348 38.2773 17.7331 38.4672 17.7311C39.2896 17.7221 40.1121 17.7125 40.9346 17.7063C41.0139 17.7057 41.093 17.7055 41.1716 17.7028C41.3412 17.6969 41.5082 17.6768 41.6685 17.6085C41.6823 17.6026 41.6961 17.5978 41.7098 17.5912C41.8641 17.3646 41.6804 17.1439 41.6899 16.9199C41.6908 16.9 41.6926 16.8801 41.6968 16.8602C41.1464 16.322 40.5309 15.8705 39.8655 15.4854C39.8222 15.4816 39.7809 15.4739 39.7407 15.4638C39.4411 15.3889 39.219 15.1565 38.9529 15.0178C38.1527 14.6009 37.3468 14.6848 36.5242 14.8771C36.3244 15.1066 36.0208 15.1566 35.7745 15.3058C35.7735 15.2725 35.7739 15.2418 35.7749 15.212C35.7902 14.7382 36.0561 14.6977 36.4173 14.8223C36.4546 14.8352 36.4926 14.8493 36.5318 14.8653C36.6032 14.7975 36.6769 14.7399 36.7523 14.691C37.2505 14.368 37.8273 14.4335 38.3741 14.5702C38.6505 14.6392 38.9166 14.7762 39.2154 14.777C39.4311 14.7777 39.4127 15.0369 39.5016 15.1762C39.5245 15.2121 39.5554 15.2391 39.5984 15.2526C39.6186 15.2589 39.641 15.2626 39.6675 15.2619C39.6906 15.2612 39.7156 15.2585 39.7443 15.2516C39.9721 14.7883 39.6225 14.6528 39.31 14.52C39.1881 14.4682 39.0021 14.5384 38.9319 14.3812C38.6654 13.7845 38.0824 13.3606 37.9978 12.6661C37.9799 12.646 37.9621 12.626 37.9442 12.6059ZM38.0046 10.331C37.9811 10.4487 37.9378 10.5525 37.8685 10.623C37.8054 10.6872 37.7208 10.7238 37.6078 10.7147C37.38 10.6962 37.2516 10.5223 37.2664 10.2886C37.2797 10.0799 37.4159 9.94557 37.6218 9.94542C37.7898 9.94531 37.8966 10.0251 37.9552 10.1512C37.9796 10.204 37.9966 10.264 38.0046 10.331ZM37.2478 11.7388C37.2507 11.6816 37.2625 11.6321 37.2814 11.5895C37.3346 11.4698 37.4478 11.407 37.6075 11.4017C37.7035 11.4069 37.7852 11.4311 37.8472 11.4743C37.9255 11.5289 37.9715 11.6144 37.9665 11.7378C37.966 11.7518 37.963 11.7639 37.9612 11.7768C37.9346 11.9664 37.7789 12.0614 37.5898 12.0734C37.4577 12.0817 37.359 12.0416 37.3021 11.9609C37.263 11.9055 37.243 11.8316 37.2478 11.7388Z" fill="#E9BE6E"/>
<path d="M21.1702 13.0134C21.1793 13.0067 21.1883 13.0001 21.1973 12.9934C21.3083 12.9118 21.4193 12.8302 21.5302 12.7486C21.5772 12.714 21.6243 12.6794 21.6713 12.6448C21.7106 12.5575 21.75 12.4701 21.7894 12.3828C21.7824 12.3593 21.7766 12.3341 21.7713 12.3083C21.7414 12.1627 21.7299 11.992 21.641 11.9266C21.2649 11.6502 21.3501 11.4273 21.5401 11.2079C21.5882 11.1523 21.6428 11.0968 21.6987 11.0408C21.6961 10.923 21.6935 10.8052 21.691 10.6874C21.6899 10.6376 21.6888 10.5878 21.6877 10.538C21.6295 10.5077 21.5713 10.4775 21.513 10.4473C21.5152 10.5082 21.5128 10.5697 21.5203 10.6299C21.5206 10.632 21.5207 10.634 21.5209 10.636C21.5578 10.9438 21.4689 11.1969 21.1171 11.1532C21.0247 11.1417 20.9577 11.1179 20.9085 11.0859C20.7249 10.966 20.8047 10.7225 20.8833 10.4988C20.8833 10.4987 20.8834 10.4987 20.8834 10.4986C20.4088 10.7437 20.6074 11.0321 20.8306 11.322C20.91 11.4251 21.1278 11.429 20.9266 11.6782C20.4042 12.325 20.4562 12.5038 21.1702 13.0134ZM21.1965 11.8642C21.4522 11.8656 21.5333 12.0582 21.5536 12.2823C21.5208 12.5212 21.3977 12.6785 21.1485 12.649C20.9433 12.6247 20.8181 12.4713 20.8187 12.2631C20.8189 12.2098 20.8268 12.161 20.8402 12.1162C20.8567 12.0609 20.8821 12.0124 20.9178 11.9736C20.9818 11.9039 21.0757 11.8636 21.1965 11.8642Z" fill="#E9BE6E"/>
<path d="M26.484 13.6345C26.4365 13.6358 26.3906 13.6407 26.3465 13.6489C26.4341 13.6806 26.523 13.712 26.605 13.7513C26.5679 13.7095 26.5269 13.6713 26.484 13.6345Z" fill="#E9BE6E"/>
<path d="M21.6866 14.9672C21.6587 14.8576 21.582 14.7604 21.5251 14.6582C21.5237 14.6555 21.522 14.653 21.5205 14.6504C21.5169 14.6494 21.5133 14.6479 21.5098 14.6467C21.3655 14.5986 21.2659 14.389 21.0936 14.4829C20.7506 14.6699 20.5067 14.9439 20.6374 15.369C20.7237 15.6498 20.9043 15.9368 21.2409 15.8385C21.6451 15.7205 21.7921 15.3822 21.6866 14.9672ZM21.521 15.2427C21.4674 15.4449 21.3769 15.6046 21.1522 15.5865C20.9158 15.5675 20.8027 15.386 20.8186 15.1497C20.8325 14.9444 20.9362 14.7853 21.1559 14.7802C21.3909 14.7746 21.4727 14.9402 21.5255 15.1111C21.5307 15.1277 21.5358 15.1445 21.5406 15.1611C21.5346 15.1888 21.528 15.2161 21.521 15.2427Z" fill="#E9BE6E"/>
<path d="M21.5221 14.652L21.5221 14.652C21.5221 14.652 21.5234 14.6505 21.5252 14.6484C21.5283 14.6449 21.5328 14.6398 21.5369 14.6351C21.5407 14.6308 21.544 14.6271 21.544 14.6271L21.5294 14.6395L21.5223 14.6456L21.5188 14.6486C21.5193 14.6495 21.52 14.6505 21.5205 14.6514C21.521 14.6516 21.5215 14.6519 21.522 14.652C21.5221 14.652 21.5221 14.652 21.5221 14.652Z" fill="#E9BE6E"/>
<path d="M20.7429 13.3372C20.5696 13.628 20.5694 13.91 20.809 14.1856C21.0487 14.4612 21.2788 14.4644 21.5327 14.2257C21.534 14.2244 21.5352 14.2237 21.5365 14.2225C21.5612 14.1856 21.5859 14.1488 21.6105 14.112C21.618 14.0969 21.6236 14.0826 21.6303 14.0679C21.8547 13.5706 21.6205 13.2576 21.1883 13.0243C21.1879 13.0241 21.1876 13.024 21.1873 13.0238C21.1826 13.0213 21.1782 13.0186 21.1735 13.0161C21.172 13.0153 21.1706 13.0145 21.1691 13.0137C21.1691 13.0137 21.1812 13.0217 21.1816 13.022C21.1817 13.022 21.1817 13.0221 21.1818 13.0221C20.9971 13.0738 20.8388 13.1764 20.7429 13.3372ZM21.5235 13.6795C21.5306 13.8962 21.4325 14.098 21.1936 14.1084C20.9644 14.1183 20.8225 13.9564 20.8191 13.7227C20.8161 13.5154 20.9272 13.3848 21.1419 13.3706C21.3482 13.3836 21.5163 13.4584 21.5235 13.6795Z" fill="#E9BE6E"/>
<path d="M21.1311 16.0274C20.7991 16.0217 20.6335 16.2963 20.6272 16.6129C20.62 16.9721 20.7687 17.3014 21.1609 17.3028C21.4968 17.304 21.6938 17.0384 21.708 16.7749C21.71 16.2932 21.5055 16.0338 21.1311 16.0274ZM21.1524 17.0663C20.9397 17.0621 20.8318 16.9093 20.8162 16.7039C20.7974 16.4566 20.9122 16.3167 21.1676 16.3162C21.3937 16.3157 21.4827 16.4634 21.525 16.6557C21.4813 16.8719 21.4079 17.0714 21.1524 17.0663Z" fill="#E9BE6E"/>
<path d="M21.537 9.89254C21.5382 9.86027 21.5469 9.8282 21.5593 9.79626C21.6114 9.66188 21.7343 9.52966 21.7085 9.39294C21.6967 9.33021 21.6543 9.26656 21.5576 9.20129C21.5887 9.56735 21.2134 9.78617 21.168 10.222C21.3355 10.0725 21.4363 9.98251 21.537 9.89254Z" fill="#E9BE6E"/>
<path d="M31.981 10.1777C31.7936 10.607 31.6922 10.8392 31.5909 11.0714C31.3981 11.6656 30.8955 11.8102 30.3659 11.9157C30.2352 12.2916 30.6773 12.0498 30.7173 12.2415C31.0641 12.2805 31.3547 12.4061 31.5021 12.7517C31.7502 12.998 31.7517 13.368 31.9881 13.82C32.1523 12.7833 32.5708 12.1311 33.602 12.0255C32.6568 11.7875 32.095 11.2714 31.981 10.1777Z" fill="#E9BE6E"/>
<path d="M37.5914 8.20846C37.2046 8.22214 37.0307 8.54209 37.0415 8.89435C37.0518 9.23285 37.3025 9.52421 37.6147 9.50166C37.9417 9.47803 38.1719 9.19417 38.1444 8.85599C38.1435 8.43272 37.9364 8.19627 37.5914 8.20846ZM37.5905 9.26016C37.3926 9.24246 37.2599 9.08641 37.2631 8.87246C37.2667 8.62933 37.4085 8.47722 37.649 8.48417C37.867 8.49038 37.9525 8.66354 37.9871 8.84513C37.93 9.07625 37.8428 9.28277 37.5905 9.26016Z" fill="#E9BE6E"/>
<path d="M35.0273 25.3863H35.0274C35.0274 25.3864 35.0274 25.3865 35.0274 25.3866L35.0276 25.3863C35.0343 25.3873 35.0388 25.3864 35.045 25.387C35.0442 25.381 35.044 25.3753 35.043 25.3691C35.0375 25.3711 35.0337 25.3745 35.0285 25.3766C35.0279 25.38 35.028 25.3828 35.0274 25.3862L35.0273 25.3863Z" fill="#E9BE6E"/>
<path d="M34.6342 19.1199C34.7679 19.3453 34.9998 19.5095 35.0502 19.7861C35.0496 19.7911 35.049 19.796 35.0484 19.801C35.0512 19.7991 35.0524 19.7969 35.0555 19.795C35.0567 19.7955 35.0578 19.7961 35.059 19.7966C35.7348 20.5776 36.0297 21.448 36.0118 22.5177C35.9955 23.4937 35.8381 24.358 35.262 25.1403C35.2584 25.148 35.2556 25.1564 35.2526 25.1646C35.214 25.2678 35.2079 25.4019 35.0442 25.3854C35.0447 25.3891 35.0451 25.3928 35.0455 25.3965C35.037 25.3911 35.0285 25.3858 35.02 25.3806C35.0232 25.3791 35.0259 25.3772 35.0292 25.3759C35.0886 25.0259 34.673 25.0886 34.6546 25.1075C34.4371 25.3305 34.4801 25.5909 34.5673 25.8682C34.8061 25.7416 34.8154 25.4752 35.0172 25.3821C35.0213 25.3843 35.0252 25.3845 35.0295 25.3873C35.0361 25.3953 35.0414 25.4032 35.0472 25.4111C35.0714 25.6939 34.8261 25.845 34.6984 26.0499C34.6119 26.1888 34.4366 26.3186 34.5991 26.4697C34.7693 26.6278 34.8782 26.3973 35.0116 26.3298C35.0589 26.3059 35.1074 26.2838 35.1554 26.2611C35.1634 26.2393 35.1727 26.2182 35.1815 26.1968C35.4502 25.5409 36.0455 25.0534 36.1439 24.2391C36.3131 24.4418 36.4596 24.5588 36.4014 24.7803C36.3426 24.7522 36.2957 24.7388 36.2566 24.7346C36.2261 24.7313 36.2006 24.734 36.1798 24.742C36.0959 24.7744 36.0837 24.8863 36.0808 24.9826C36.0793 25.0331 36.0802 25.0792 36.0741 25.1067C36.0571 25.184 36.0673 25.2267 36.0929 25.2502C36.1535 25.3058 36.302 25.2503 36.3891 25.2729C36.3149 25.5919 35.7292 25.2469 35.8338 25.6153C35.8493 25.67 35.8762 25.7061 35.9112 25.7295C36.0261 25.8065 36.2295 25.7438 36.4143 25.7269C36.4802 25.7209 36.5439 25.7204 36.6002 25.7347C36.6179 25.7392 36.6361 25.7418 36.6541 25.7449C36.6932 25.7517 36.7326 25.7574 36.7718 25.7635C36.7761 25.5419 36.6329 25.4015 36.4889 25.2616C36.4914 25.1792 36.4938 25.0967 36.4963 25.0143C36.4967 25.0138 36.497 25.0132 36.4974 25.0126C36.5133 25.0095 36.528 25.008 36.5427 25.0064C36.7729 25.3559 37.0028 25.7056 37.2336 26.0546C37.307 26.1656 37.2698 26.3662 37.4716 26.3714C37.5693 26.374 37.619 26.2891 37.5992 26.2037C37.5563 26.0192 37.7529 25.7447 37.5166 25.6617C37.263 25.5726 37.0818 25.4129 37.096 25.203C37.1142 24.934 37.443 24.9895 37.6327 24.8957C37.6067 24.8434 37.5699 24.8152 37.5282 24.7978C37.4624 24.7703 37.384 24.7701 37.3144 24.7486C36.5388 24.5092 36.3594 24.29 36.3321 23.4746C36.3101 22.8176 36.3194 22.1595 36.3145 21.5019C36.3105 20.9737 36.4987 20.5641 36.9658 20.2675C37.3378 20.0313 37.3221 19.9735 37.062 19.6529C37.0043 19.5817 36.9983 19.4989 37.0905 19.4527C37.3894 19.3029 37.6953 18.9212 37.9858 19.4321C37.9924 19.4436 37.999 19.4532 38.0055 19.4657C38.1069 19.4141 38.4851 19.6182 38.2261 19.2337C37.9392 18.8079 37.5889 18.6352 37.1277 18.9965C37.1221 18.8736 37.0551 18.8131 36.9348 18.8129C36.3504 18.8121 35.7659 18.8126 35.0482 18.8126C35.3397 19.0957 35.5559 19.3056 35.7708 19.5144C35.7925 19.4833 35.8157 19.4574 35.8395 19.4342C36.088 19.1927 36.443 19.3519 36.7411 19.297C36.8192 19.2826 36.8935 19.2538 36.9607 19.1988C36.9607 19.1988 36.9606 19.1989 36.9606 19.199C36.7432 19.5535 36.5257 19.9079 36.3082 20.2624C36.3001 20.2755 36.2921 20.2887 36.284 20.3018C36.2841 20.3048 36.2843 20.3077 36.2844 20.3107C36.2053 20.7696 36.0705 20.5534 35.9718 20.3275C35.7295 19.7733 35.3411 19.3272 34.938 18.8918C34.849 18.7956 34.7287 18.648 34.5856 18.7879C34.4875 18.8839 34.5683 19.0087 34.6342 19.1199Z" fill="#E9BE6E"/>
<path d="M36.7734 25.7773C36.7576 25.8069 36.7399 25.8317 36.7203 25.8524C36.5897 25.9905 36.3864 25.9471 36.2549 25.9146C35.8826 25.8223 35.5903 25.9112 35.3291 26.1122C35.2939 26.1393 35.2592 26.1682 35.225 26.1993C35.2036 26.2188 35.1821 26.2376 35.161 26.2585C35.1588 26.2607 35.1565 26.2625 35.1543 26.2647C35.1543 26.2647 35.1637 26.2573 35.1639 26.2571C35.1639 26.2571 35.164 26.2571 35.164 26.2571C35.164 26.2571 35.164 26.2571 35.164 26.2571C35.6166 26.4977 36.1049 26.3481 36.5761 26.3784C36.7439 26.3892 37.0058 26.4783 37.0719 26.3082C37.1573 26.0885 36.9559 25.9114 36.7734 25.7773Z" fill="#E9BE6E"/>
<path d="M40.7485 25.7998C40.6875 25.5155 40.8427 25.2903 40.5997 25.1422C40.5623 25.1194 40.437 25.1537 40.4312 25.1794C40.3766 25.4217 40.5079 25.582 40.7485 25.7998Z" fill="#E9BE6E"/>
<path d="M39.4776 19.3181C39.8549 19.3468 39.9803 19.0818 40.1384 18.7638C39.4312 18.712 38.791 18.9142 38.1113 18.7314C38.3745 19.5605 38.9867 19.2806 39.4776 19.3181Z" fill="#E9BE6E"/>
<path d="M36.2695 20.3272L36.2859 20.3108C36.2841 20.3101 36.2827 20.3093 36.2809 20.3086C36.2771 20.3148 36.2733 20.3209 36.2695 20.3272Z" fill="#E9BE6E"/>
<path d="M35.7822 19.5247C35.7822 19.5248 35.7823 19.5248 35.7823 19.5248C36.0136 19.7399 35.9205 20.1626 36.2684 20.3032C36.2636 20.2536 36.2619 20.2048 36.2637 20.1567C36.2699 19.9803 36.3254 19.8124 36.4671 19.6489C36.4881 19.6246 36.5096 19.6005 36.5345 19.5764C36.5103 19.5744 36.4889 19.5727 36.4655 19.5708C36.2566 19.5538 36.0772 19.5392 35.9064 19.5254C35.8839 19.5236 35.8615 19.5218 35.8391 19.52C35.8168 19.5182 35.7943 19.5163 35.772 19.5145C35.7719 19.5145 35.7718 19.5145 35.7717 19.5145L35.7718 19.5146C35.7716 19.5147 35.7715 19.5147 35.7713 19.5147L35.7822 19.5247Z" fill="#E9BE6E"/>
<path d="M21.0535 25.0637C21.3437 25.4485 21.2772 24.9431 21.4044 24.8965C21.4078 24.8952 21.4107 24.893 21.4144 24.8924C21.2703 24.393 21.1455 24.2951 20.6627 24.7034C20.2073 25.0885 19.9973 25.5823 19.6818 26.1329C19.6568 26.1323 19.6307 26.129 19.6023 26.1203C19.6013 26.12 19.6004 26.1194 19.5994 26.1191C19.5131 25.8274 19.319 25.6539 19.3156 25.3937C19.3139 25.3933 19.3126 25.3926 19.3108 25.3922C19.3123 25.3911 19.3136 25.3892 19.3151 25.3881C19.3151 25.3901 19.3156 25.3918 19.3157 25.3937C19.3195 25.3945 19.3222 25.3962 19.3261 25.3969C19.3253 25.3927 19.3251 25.3891 19.3244 25.385C19.3221 25.3853 19.3202 25.3851 19.3178 25.3855C19.3199 25.3842 19.322 25.3836 19.324 25.3824C19.3242 25.3833 19.3242 25.3841 19.3244 25.385C19.5316 25.3569 19.4858 25.6848 19.7408 25.6694C19.7021 25.4802 20.0695 25.2849 19.6912 25.1389C19.5185 25.0722 19.2681 25.0478 19.3239 25.3813C19.3176 25.3846 19.3113 25.3873 19.305 25.3904C19.0767 25.3337 19.0427 25.1264 18.9197 24.9603C18.9231 24.9499 18.9274 24.9408 18.9315 24.9314C19.556 24.8235 20.2605 25.1822 20.6711 24.4277C19.799 24.4277 18.9707 24.4277 18.1051 24.4277C18.3033 24.8026 18.4856 25.1473 18.6675 25.4912C18.6724 25.5006 18.6774 25.5099 18.6823 25.5193C18.9171 25.9255 19.376 26.2412 19.3967 26.7234C19.4589 28.1745 19.6809 29.6793 18.5055 30.8636C18.4932 30.8619 18.4823 30.8578 18.4715 30.8534C18.4727 30.8673 18.4739 30.881 18.4751 30.8949C18.4791 31.096 18.303 31.2177 18.2539 31.3903C18.2031 31.5685 17.9129 31.7732 18.1515 31.9199C18.3739 32.0566 18.4908 31.7555 18.5956 31.5958C18.9403 31.0702 19.2684 30.5332 19.6213 29.9699C19.6249 29.97 19.6277 29.9688 19.6314 29.969C19.6453 29.9696 19.6568 29.9739 19.6695 29.9763C19.911 30.4685 20.0947 30.9366 20.4244 31.3173C20.5999 31.52 20.6568 31.8813 21.0488 31.8158C21.0544 31.7724 21.0574 31.7305 21.0589 31.6895C21.0702 31.374 20.9562 31.1295 20.6268 30.9637C20.4833 30.8915 20.2194 30.6794 20.6552 30.5978C20.7737 30.5756 20.8537 30.541 20.8197 30.4103C20.7912 30.3004 20.6987 30.2546 20.5902 30.2378C19.9897 30.1451 19.7983 29.7352 19.7869 29.1919C19.7757 28.659 19.8302 28.1167 19.749 27.5952C19.6306 26.8352 20.0583 26.2936 20.3696 25.6981C20.4776 25.4916 20.6003 25.7024 20.716 25.7127C20.8423 25.724 20.9793 25.7407 21.0402 25.6106C21.1147 25.4513 20.9283 25.4295 20.8683 25.3396C20.7999 25.2368 20.4329 25.3121 20.6632 25.0407C20.7635 24.9225 20.8937 24.8517 21.0535 25.0637Z" fill="#E9BE6E"/>
<path d="M18.7568 31.815C19.3177 31.815 19.8641 31.815 20.4647 31.815C20.164 31.22 19.1522 31.2262 18.7568 31.815Z" fill="#E9BE6E"/>
<path d="M21.6758 31.825C21.6911 31.8254 21.7064 31.8258 21.7216 31.8262C21.7733 31.8275 21.8249 31.8288 21.8766 31.8301C22.1368 31.8367 22.397 31.8433 22.6572 31.8499C22.934 31.8499 23.2108 31.8499 23.525 31.8499C23.0389 31.2107 22.1347 31.2232 21.6758 31.825Z" fill="#E9BE6E"/>
<path d="M19.5929 30.3291C19.4352 30.6342 19.2916 30.9121 19.1201 31.2439C19.4409 31.2157 19.6988 31.193 19.9567 31.1703C19.5769 31.0033 19.8405 30.5535 19.5929 30.3291Z" fill="#E9BE6E"/>
<path d="M39.0088 24.6351C39.0124 24.6373 39.0154 24.6398 39.019 24.6419C39.019 24.6366 39.0196 24.6313 39.0196 24.626C39.0201 24.6255 39.0088 24.6351 39.0088 24.6351Z" fill="#E9BE6E"/>
<path d="M39.0408 24.6561C39.0331 24.6509 39.0257 24.6456 39.0176 24.6406C39.0176 24.6471 39.017 24.6536 39.0169 24.66C39.011 24.9891 38.904 25.2987 38.7178 25.6987C39.0649 25.514 39.335 25.6397 39.6721 25.6063C39.3802 25.2965 39.3694 24.8759 39.0408 24.6561Z" fill="#E9BE6E"/>
</svg>
