<svg xmlns="http://www.w3.org/2000/svg" xmlns:xlink="http://www.w3.org/1999/xlink" version="1.1" width="1000" height="1000" viewBox="0 0 1000 1000" xml:space="preserve">
<desc>Created with Fabric.js 3.5.0</desc>
<defs>
</defs>
<rect x="0" y="0" width="100%" height="100%" fill="#ffffff"/>
<g transform="matrix(3.0978 0 0 3.0978 451.5989 461.7498)" id="632388">
<path style="stroke: none; stroke-width: 1; stroke-dasharray: none; stroke-linecap: butt; stroke-dashoffset: 0; stroke-linejoin: miter; stroke-miterlimit: 4; is-custom-font: none; font-file-url: none; fill: rgb(250,230,179); fill-rule: nonzero; opacity: 1;" vector-effect="non-scaling-stroke" transform=" translate(-73.5, -82.5)" d="M 44.7313 18.3902 V 126.853 C 39.9896 122.805 33.4375 120.302 26.1999 120.302 C 11.73 120.302 0 130.308 0 142.651 C 0 154.994 11.73 165 26.1999 165 C 40.6698 165 52.3997 154.994 52.3997 142.651 V 47.1674 L 139.332 31.7902 V 108.462 C 134.59 104.415 128.038 101.911 120.8 101.911 C 106.33 101.911 94.6003 111.917 94.6003 124.26 C 94.6003 136.603 106.33 146.609 120.8 146.609 C 135.27 146.609 147 136.603 147 124.26 V 0 L 44.7313 18.3902 Z M 139.331 25.0046 L 52.3993 40.3818 V 34.2519 L 139.331 18.8747 V 25.0046 Z" stroke-linecap="round"/>
</g>
<g transform="matrix(2.5498 0 0 2.4683 497.211 500.0016)" id="554349">
<g style="" vector-effect="non-scaling-stroke">
		<g transform="matrix(1 0 0 1 -187.3133 -0.4794)">
<path style="stroke: none; stroke-width: 1; stroke-dasharray: none; stroke-linecap: butt; stroke-dashoffset: 0; stroke-linejoin: miter; stroke-miterlimit: 4; is-custom-font: none; font-file-url: none; fill: rgb(255,230,169); fill-opacity: 0.3; fill-rule: nonzero; opacity: 1;" transform=" translate(-7.6868, -62.0206)" d="M 7.68663 56.42 C 7.10148 56.42 6.62695 58.9277 6.62695 62.0207 C 6.62695 65.1139 7.1012 67.6212 7.68663 67.6212 C 8.27207 67.6212 8.74659 65.1138 8.74659 62.0207 C 8.74687 58.9277 8.27235 56.42 7.68663 56.42 Z" stroke-linecap="round"/>
</g>
		<g transform="matrix(1 0 0 1 -176.526 -0.2437)">
<path style="stroke: none; stroke-width: 1; stroke-dasharray: none; stroke-linecap: butt; stroke-dashoffset: 0; stroke-linejoin: miter; stroke-miterlimit: 4; is-custom-font: none; font-file-url: none; fill: rgb(255,230,169); fill-opacity: 0.3; fill-rule: nonzero; opacity: 1;" transform=" translate(-18.474, -62.2563)" d="M 18.474 53.286 C 17.5364 53.286 16.7764 57.3021 16.7764 62.2563 C 16.7764 67.2104 17.5364 71.2266 18.474 71.2266 C 19.4114 71.2266 20.1716 67.2104 20.1716 62.2563 C 20.1716 57.3021 19.4114 53.286 18.474 53.286 Z" stroke-linecap="round"/>
</g>
		<g transform="matrix(1 0 0 1 -165.8187 -0.3599)">
<path style="stroke: none; stroke-width: 1; stroke-dasharray: none; stroke-linecap: butt; stroke-dashoffset: 0; stroke-linejoin: miter; stroke-miterlimit: 4; is-custom-font: none; font-file-url: none; fill: rgb(255,230,169); fill-opacity: 0.3; fill-rule: nonzero; opacity: 1;" transform=" translate(-29.1813, -62.1401)" d="M 29.1814 83.4479 C 30.7458 83.4479 32.014 73.908 32.014 62.14 C 32.014 50.372 30.7458 40.8322 29.1814 40.8322 C 27.6169 40.8322 26.3486 50.372 26.3486 62.14 C 26.3486 73.908 27.6169 83.4479 29.1814 83.4479 Z" stroke-linecap="round"/>
</g>
		<g transform="matrix(1 0 0 1 -155.1098 -0.0344)">
<path style="stroke: none; stroke-width: 1; stroke-dasharray: none; stroke-linecap: butt; stroke-dashoffset: 0; stroke-linejoin: miter; stroke-miterlimit: 4; is-custom-font: none; font-file-url: none; fill: rgb(255,230,169); fill-opacity: 0.3; fill-rule: nonzero; opacity: 1;" transform=" translate(-39.8902, -62.4656)" d="M 39.89 24.8312 C 38.3255 24.8312 37.0576 41.6805 37.0576 62.4656 C 37.0576 83.2502 38.3258 100.1 39.89 100.1 C 41.4548 100.1 42.7227 83.2502 42.7227 62.4656 C 42.7227 41.6805 41.4548 24.8312 39.89 24.8312 Z" stroke-linecap="round"/>
</g>
		<g transform="matrix(1 0 0 1 -144.4039 -0.299)">
<path style="stroke: none; stroke-width: 1; stroke-dasharray: none; stroke-linecap: butt; stroke-dashoffset: 0; stroke-linejoin: miter; stroke-miterlimit: 4; is-custom-font: none; font-file-url: none; fill: rgb(255,230,169); fill-opacity: 0.3; fill-rule: nonzero; opacity: 1;" transform=" translate(-50.5961, -62.201)" d="M 50.5959 16.0881 C 48.679 16.0881 47.125 36.7336 47.125 62.2014 C 47.125 87.6682 48.679 108.314 50.5959 108.314 C 52.5129 108.314 54.0672 87.6684 54.0672 62.2014 C 54.0674 36.7336 52.5129 16.0881 50.5959 16.0881 Z" stroke-linecap="round"/>
</g>
		<g transform="matrix(1 0 0 1 -133.6968 -0.3025)">
<path style="stroke: none; stroke-width: 1; stroke-dasharray: none; stroke-linecap: butt; stroke-dashoffset: 0; stroke-linejoin: miter; stroke-miterlimit: 4; is-custom-font: none; font-file-url: none; fill: rgb(255,230,169); fill-opacity: 0.3; fill-rule: nonzero; opacity: 1;" transform=" translate(-61.3032, -62.1975)" d="M 61.3032 13.449 C 59.2767 13.449 57.6338 35.2744 57.6338 62.1978 C 57.6338 89.1203 59.2767 110.946 61.3032 110.946 C 63.33 110.946 64.9726 89.1203 64.9726 62.1978 C 64.9726 35.2744 63.33 13.449 61.3032 13.449 Z" stroke-linecap="round"/>
</g>
		<g transform="matrix(1 0 0 1 -122.9888 -0.0738)">
<path style="stroke: none; stroke-width: 1; stroke-dasharray: none; stroke-linecap: butt; stroke-dashoffset: 0; stroke-linejoin: miter; stroke-miterlimit: 4; is-custom-font: none; font-file-url: none; fill: rgb(255,230,169); fill-opacity: 0.3; fill-rule: nonzero; opacity: 1;" transform=" translate(-72.0112, -62.4262)" d="M 72.0114 19.7124 C 70.2353 19.7124 68.7959 38.8359 68.7959 62.4267 C 68.7959 86.0169 70.2356 105.14 72.0114 105.14 C 73.7872 105.14 75.2265 86.0167 75.2265 62.4267 C 75.2265 38.8359 73.7869 19.7124 72.0114 19.7124 Z" stroke-linecap="round"/>
</g>
		<g transform="matrix(1 0 0 1 -112.2817 -0.217)">
<path style="stroke: none; stroke-width: 1; stroke-dasharray: none; stroke-linecap: butt; stroke-dashoffset: 0; stroke-linejoin: miter; stroke-miterlimit: 4; is-custom-font: none; font-file-url: none; fill: rgb(255,230,169); fill-opacity: 0.3; fill-rule: nonzero; opacity: 1;" transform=" translate(-82.7183, -62.283)" d="M 82.7181 17.8979 C 80.9423 17.8979 79.5029 37.7699 79.5029 62.2836 C 79.5029 86.7964 80.9426 106.668 82.7181 106.668 C 84.4936 106.668 85.9336 86.7964 85.9336 62.2836 C 85.9338 37.7699 84.4938 17.8979 82.7181 17.8979 Z" stroke-linecap="round"/>
</g>
		<g transform="matrix(1 0 0 1 -101.574 -0.2175)">
<path style="stroke: none; stroke-width: 1; stroke-dasharray: none; stroke-linecap: butt; stroke-dashoffset: 0; stroke-linejoin: miter; stroke-miterlimit: 4; is-custom-font: none; font-file-url: none; fill: rgb(255,230,169); fill-opacity: 0.3; fill-rule: nonzero; opacity: 1;" transform=" translate(-93.426, -62.2824)" d="M 93.4255 22.0219 C 91.6501 22.0219 90.2109 40.0471 90.2109 62.2832 C 90.2109 84.5181 91.6503 102.543 93.4255 102.543 C 95.2016 102.543 96.641 84.5181 96.641 62.2832 C 96.641 40.0471 95.2013 22.0219 93.4255 22.0219 Z" stroke-linecap="round"/>
</g>
		<g transform="matrix(1 0 0 1 -90.8455 -0.9794)">
<path style="stroke: none; stroke-width: 1; stroke-dasharray: none; stroke-linecap: butt; stroke-dashoffset: 0; stroke-linejoin: miter; stroke-miterlimit: 4; is-custom-font: none; font-file-url: none; fill: rgb(255,230,169); fill-opacity: 0.3; fill-rule: nonzero; opacity: 1;" transform=" translate(-104.1545, -61.5206)" d="M 104.155 18.9701 C 102.379 18.9701 100.939 38.0204 100.939 61.5209 C 100.939 85.0208 102.379 104.071 104.155 104.071 C 105.931 104.071 107.37 85.0206 107.37 61.5209 C 107.37 38.0206 105.931 18.9701 104.155 18.9701 Z" stroke-linecap="round"/>
</g>
		<g transform="matrix(1 0 0 1 -80.1585 -0.5758)">
<path style="stroke: none; stroke-width: 1; stroke-dasharray: none; stroke-linecap: butt; stroke-dashoffset: 0; stroke-linejoin: miter; stroke-miterlimit: 4; is-custom-font: none; font-file-url: none; fill: rgb(255,230,169); fill-opacity: 0.3; fill-rule: nonzero; opacity: 1;" transform=" translate(-114.8415, -61.9242)" d="M 114.841 13.3615 C 113.065 13.3615 111.626 35.104 111.626 61.9249 C 111.626 88.7452 113.066 110.487 114.841 110.487 C 116.617 110.487 118.057 88.7451 118.057 61.9249 C 118.057 35.104 116.617 13.3615 114.841 13.3615 Z" stroke-linecap="round"/>
</g>
		<g transform="matrix(1 0 0 1 -69.452 -0.1301)">
<path style="stroke: none; stroke-width: 1; stroke-dasharray: none; stroke-linecap: butt; stroke-dashoffset: 0; stroke-linejoin: miter; stroke-miterlimit: 4; is-custom-font: none; font-file-url: none; fill: rgb(255,230,169); fill-opacity: 0.3; fill-rule: nonzero; opacity: 1;" transform=" translate(-125.548, -62.37)" d="M 125.548 3.71191 C 123.772 3.71191 122.333 29.974 122.333 62.3708 C 122.333 94.7662 123.772 121.028 125.548 121.028 C 127.323 121.028 128.763 94.7663 128.763 62.3708 C 128.763 29.974 127.323 3.71191 125.548 3.71191 Z" stroke-linecap="round"/>
</g>
		<g transform="matrix(1 0 0 1 -58.745 0)">
<path style="stroke: none; stroke-width: 1; stroke-dasharray: none; stroke-linecap: butt; stroke-dashoffset: 0; stroke-linejoin: miter; stroke-miterlimit: 4; is-custom-font: none; font-file-url: none; fill: rgb(255,230,169); fill-opacity: 0.3; fill-rule: nonzero; opacity: 1;" transform=" translate(-136.255, -62.5)" d="M 136.255 0 C 134.363 0 132.829 27.9824 132.829 62.5008 C 132.829 97.0182 134.363 125 136.255 125 C 138.146 125 139.681 97.0182 139.681 62.5008 C 139.681 27.9824 138.147 0 136.255 0 Z" stroke-linecap="round"/>
</g>
		<g transform="matrix(1 0 0 1 -48.037 -0.2898)">
<path style="stroke: none; stroke-width: 1; stroke-dasharray: none; stroke-linecap: butt; stroke-dashoffset: 0; stroke-linejoin: miter; stroke-miterlimit: 4; is-custom-font: none; font-file-url: none; fill: rgb(255,230,169); fill-opacity: 0.3; fill-rule: nonzero; opacity: 1;" transform=" translate(-146.963, -62.2102)" d="M 146.963 11.7943 C 145.187 11.7943 143.748 34.3663 143.748 62.2106 C 143.748 90.0541 145.187 112.626 146.963 112.626 C 148.739 112.626 150.178 90.054 150.178 62.2106 C 150.178 34.3663 148.739 11.7943 146.963 11.7943 Z" stroke-linecap="round"/>
</g>
		<g transform="matrix(1 0 0 1 -37.3295 -0.0185)">
<path style="stroke: none; stroke-width: 1; stroke-dasharray: none; stroke-linecap: butt; stroke-dashoffset: 0; stroke-linejoin: miter; stroke-miterlimit: 4; is-custom-font: none; font-file-url: none; fill: rgb(255,230,169); fill-opacity: 0.3; fill-rule: nonzero; opacity: 1;" transform=" translate(-157.6705, -62.4815)" d="M 157.67 17.073 C 155.894 17.073 154.455 37.4031 154.455 62.482 C 154.455 87.5602 155.895 107.89 157.67 107.89 C 159.446 107.89 160.886 87.5602 160.886 62.482 C 160.886 37.4031 159.446 17.073 157.67 17.073 Z" stroke-linecap="round"/>
</g>
		<g transform="matrix(1 0 0 1 -26.587 0.2681)">
<path style="stroke: none; stroke-width: 1; stroke-dasharray: none; stroke-linecap: butt; stroke-dashoffset: 0; stroke-linejoin: miter; stroke-miterlimit: 4; is-custom-font: none; font-file-url: none; fill: rgb(255,230,169); fill-opacity: 0.3; fill-rule: nonzero; opacity: 1;" transform=" translate(-168.413, -62.7681)" d="M 168.413 24.8262 C 166.638 24.8262 165.198 41.8134 165.198 62.7686 C 165.198 83.7232 166.638 100.71 168.413 100.71 C 170.189 100.71 171.628 83.723 171.628 62.7686 C 171.628 41.8132 170.189 24.8262 168.413 24.8262 Z" stroke-linecap="round"/>
</g>
		<g transform="matrix(1 0 0 1 -15.9595 0.1766)">
<path style="stroke: none; stroke-width: 1; stroke-dasharray: none; stroke-linecap: butt; stroke-dashoffset: 0; stroke-linejoin: miter; stroke-miterlimit: 4; is-custom-font: none; font-file-url: none; fill: rgb(255,230,169); fill-opacity: 0.3; fill-rule: nonzero; opacity: 1;" transform=" translate(-179.0405, -62.6766)" d="M 179.04 26.476 C 177.444 26.476 176.149 42.6835 176.149 62.677 C 176.149 82.6697 177.444 98.8772 179.04 98.8772 C 180.637 98.8772 181.932 82.6697 181.932 62.677 C 181.932 42.6835 180.637 26.476 179.04 26.476 Z" stroke-linecap="round"/>
</g>
		<g transform="matrix(1 0 0 1 -5.208 -0.592)">
<path style="stroke: none; stroke-width: 1; stroke-dasharray: none; stroke-linecap: butt; stroke-dashoffset: 0; stroke-linejoin: miter; stroke-miterlimit: 4; is-custom-font: none; font-file-url: none; fill: rgb(255,230,169); fill-opacity: 0.3; fill-rule: nonzero; opacity: 1;" transform=" translate(-189.792, -61.908)" d="M 189.792 23.259 C 188.016 23.259 186.577 40.563 186.577 61.9087 C 186.577 83.2538 188.017 100.557 189.792 100.557 C 191.568 100.557 193.007 83.2538 193.007 61.9087 C 193.007 40.563 191.568 23.259 189.792 23.259 Z" stroke-linecap="round"/>
</g>
		<g transform="matrix(1 0 0 1 5.499 -0.2328)">
<path style="stroke: none; stroke-width: 1; stroke-dasharray: none; stroke-linecap: butt; stroke-dashoffset: 0; stroke-linejoin: miter; stroke-miterlimit: 4; is-custom-font: none; font-file-url: none; fill: rgb(255,230,169); fill-opacity: 0.3; fill-rule: nonzero; opacity: 1;" transform=" translate(-200.499, -62.2672)" d="M 200.499 23.6714 C 198.903 23.6714 197.608 40.9516 197.608 62.2679 C 197.608 83.5834 198.903 100.863 200.499 100.863 C 202.096 100.863 203.39 83.5834 203.39 62.2679 C 203.39 40.9516 202.096 23.6714 200.499 23.6714 Z" stroke-linecap="round"/>
</g>
		<g transform="matrix(1 0 0 1 16.207 -0.1053)">
<path style="stroke: none; stroke-width: 1; stroke-dasharray: none; stroke-linecap: butt; stroke-dashoffset: 0; stroke-linejoin: miter; stroke-miterlimit: 4; is-custom-font: none; font-file-url: none; fill: rgb(255,230,169); fill-opacity: 0.3; fill-rule: nonzero; opacity: 1;" transform=" translate(-211.207, -62.3947)" d="M 211.207 17.8154 C 209.431 17.8154 207.992 37.7743 207.992 62.3952 C 207.992 87.0151 209.432 106.974 211.207 106.974 C 212.983 106.974 214.422 87.0151 214.422 62.3952 C 214.422 37.7743 212.983 17.8154 211.207 17.8154 Z" stroke-linecap="round"/>
</g>
		<g transform="matrix(1 0 0 1 26.914 -0.0792)">
<path style="stroke: none; stroke-width: 1; stroke-dasharray: none; stroke-linecap: butt; stroke-dashoffset: 0; stroke-linejoin: miter; stroke-miterlimit: 4; is-custom-font: none; font-file-url: none; fill: rgb(255,230,169); fill-opacity: 0.3; fill-rule: nonzero; opacity: 1;" transform=" translate(-221.914, -62.4208)" d="M 221.914 11.2996 C 220.138 11.2996 218.699 34.1874 218.699 62.4216 C 218.699 90.6548 220.139 113.542 221.914 113.542 C 223.69 113.542 225.129 90.6548 225.129 62.4216 C 225.129 34.1874 223.69 11.2996 221.914 11.2996 Z" stroke-linecap="round"/>
</g>
		<g transform="matrix(1 0 0 1 37.6225 -0.1621)">
<path style="stroke: none; stroke-width: 1; stroke-dasharray: none; stroke-linecap: butt; stroke-dashoffset: 0; stroke-linejoin: miter; stroke-miterlimit: 4; is-custom-font: none; font-file-url: none; fill: rgb(255,230,169); fill-opacity: 0.3; fill-rule: nonzero; opacity: 1;" transform=" translate(-232.6225, -62.3379)" d="M 232.623 19.3828 C 231.026 19.3828 229.731 38.6145 229.731 62.3385 C 229.731 86.0617 231.026 105.293 232.623 105.293 C 234.22 105.293 235.514 86.0617 235.514 62.3385 C 235.514 38.6145 234.22 19.3828 232.623 19.3828 Z" stroke-linecap="round"/>
</g>
		<g transform="matrix(1 0 0 1 48.329 -0.0254)">
<path style="stroke: none; stroke-width: 1; stroke-dasharray: none; stroke-linecap: butt; stroke-dashoffset: 0; stroke-linejoin: miter; stroke-miterlimit: 4; is-custom-font: none; font-file-url: none; fill: rgb(255,230,169); fill-opacity: 0.3; fill-rule: nonzero; opacity: 1;" transform=" translate(-243.329, -62.4746)" d="M 243.329 15.8362 C 241.732 15.8362 240.438 36.7168 240.438 62.475 C 240.438 88.2321 241.732 109.113 243.329 109.113 C 244.925 109.113 246.22 88.2321 246.22 62.475 C 246.22 36.7168 244.925 15.8362 243.329 15.8362 Z" stroke-linecap="round"/>
</g>
		<g transform="matrix(1 0 0 1 59.089 -0.4695)">
<path style="stroke: none; stroke-width: 1; stroke-dasharray: none; stroke-linecap: butt; stroke-dashoffset: 0; stroke-linejoin: miter; stroke-miterlimit: 4; is-custom-font: none; font-file-url: none; fill: rgb(255,230,169); fill-opacity: 0.3; fill-rule: nonzero; opacity: 1;" transform=" translate(-254.089, -62.0305)" d="M 254.089 19.5919 C 252.493 19.5919 251.198 38.5921 251.198 62.0308 C 251.198 85.4687 252.493 104.469 254.089 104.469 C 255.686 104.469 256.98 85.4687 256.98 62.0308 C 256.98 38.5921 255.686 19.5919 254.089 19.5919 Z" stroke-linecap="round"/>
</g>
		<g transform="matrix(1 0 0 1 69.7445 -0.3698)">
<path style="stroke: none; stroke-width: 1; stroke-dasharray: none; stroke-linecap: butt; stroke-dashoffset: 0; stroke-linejoin: miter; stroke-miterlimit: 4; is-custom-font: none; font-file-url: none; fill: rgb(255,230,169); fill-opacity: 0.3; fill-rule: nonzero; opacity: 1;" transform=" translate(-264.7445, -62.1302)" d="M 264.744 23.5505 C 263.148 23.5505 261.854 40.8232 261.854 62.1307 C 261.854 83.4374 263.148 100.71 264.744 100.71 C 266.341 100.71 267.635 83.4374 267.635 62.1307 C 267.635 40.8232 266.341 23.5505 264.744 23.5505 Z" stroke-linecap="round"/>
</g>
		<g transform="matrix(1 0 0 1 80.4505 -0.1252)">
<path style="stroke: none; stroke-width: 1; stroke-dasharray: none; stroke-linecap: butt; stroke-dashoffset: 0; stroke-linejoin: miter; stroke-miterlimit: 4; is-custom-font: none; font-file-url: none; fill: rgb(255,230,169); fill-opacity: 0.3; fill-rule: nonzero; opacity: 1;" transform=" translate(-275.4505, -62.3748)" d="M 275.45 26.0251 C 273.854 26.0251 272.56 42.2994 272.56 62.3753 C 272.56 82.4504 273.854 98.7245 275.45 98.7245 C 277.047 98.7245 278.341 82.4504 278.341 62.3753 C 278.341 42.2993 277.047 26.0251 275.45 26.0251 Z" stroke-linecap="round"/>
</g>
		<g transform="matrix(1 0 0 1 91.1565 0.0533)">
<path style="stroke: none; stroke-width: 1; stroke-dasharray: none; stroke-linecap: butt; stroke-dashoffset: 0; stroke-linejoin: miter; stroke-miterlimit: 4; is-custom-font: none; font-file-url: none; fill: rgb(255,230,169); fill-opacity: 0.3; fill-rule: nonzero; opacity: 1;" transform=" translate(-286.1565, -62.5533)" d="M 286.157 27.757 C 284.56 27.757 283.266 43.3359 283.266 62.5536 C 283.266 81.7707 284.56 97.3496 286.157 97.3496 C 287.753 97.3496 289.047 81.7707 289.047 62.5536 C 289.048 43.3359 287.753 27.757 286.157 27.757 Z" stroke-linecap="round"/>
</g>
		<g transform="matrix(1 0 0 1 101.8665 -0.3067)">
<path style="stroke: none; stroke-width: 1; stroke-dasharray: none; stroke-linecap: butt; stroke-dashoffset: 0; stroke-linejoin: miter; stroke-miterlimit: 4; is-custom-font: none; font-file-url: none; fill: rgb(255,230,169); fill-opacity: 0.3; fill-rule: nonzero; opacity: 1;" transform=" translate(-296.8665, -62.1933)" d="M 296.866 22.8906 C 295.063 22.8906 293.601 40.4871 293.601 62.1939 C 293.601 83.8999 295.063 101.496 296.866 101.496 C 298.67 101.496 300.132 83.8999 300.132 62.1939 C 300.132 40.4871 298.67 22.8906 296.866 22.8906 Z" stroke-linecap="round"/>
</g>
		<g transform="matrix(1 0 0 1 112.572 0.1583)">
<path style="stroke: none; stroke-width: 1; stroke-dasharray: none; stroke-linecap: butt; stroke-dashoffset: 0; stroke-linejoin: miter; stroke-miterlimit: 4; is-custom-font: none; font-file-url: none; fill: rgb(255,230,169); fill-opacity: 0.3; fill-rule: nonzero; opacity: 1;" transform=" translate(-307.572, -62.6583)" d="M 307.572 20.3555 C 305.769 20.3555 304.307 39.2949 304.307 62.6584 C 304.307 86.021 305.769 104.961 307.572 104.961 C 309.375 104.961 310.837 86.0211 310.837 62.6584 C 310.837 39.2948 309.376 20.3555 307.572 20.3555 Z" stroke-linecap="round"/>
</g>
		<g transform="matrix(1 0 0 1 123.2805 -0.0277)">
<path style="stroke: none; stroke-width: 1; stroke-dasharray: none; stroke-linecap: butt; stroke-dashoffset: 0; stroke-linejoin: miter; stroke-miterlimit: 4; is-custom-font: none; font-file-url: none; fill: rgb(255,230,169); fill-opacity: 0.3; fill-rule: nonzero; opacity: 1;" transform=" translate(-318.2805, -62.4723)" d="M 318.28 22.9525 C 316.477 22.9525 315.015 40.6462 315.015 62.4724 C 315.015 84.298 316.477 101.992 318.28 101.992 C 320.083 101.992 321.546 84.2979 321.546 62.4724 C 321.546 40.646 320.083 22.9525 318.28 22.9525 Z" stroke-linecap="round"/>
</g>
		<g transform="matrix(1 0 0 1 133.986 -0.1871)">
<path style="stroke: none; stroke-width: 1; stroke-dasharray: none; stroke-linecap: butt; stroke-dashoffset: 0; stroke-linejoin: miter; stroke-miterlimit: 4; is-custom-font: none; font-file-url: none; fill: rgb(255,230,169); fill-opacity: 0.3; fill-rule: nonzero; opacity: 1;" transform=" translate(-328.986, -62.3129)" d="M 328.986 22.7998 C 327.183 22.7998 325.721 40.4905 325.721 62.3132 C 325.721 84.1355 327.183 101.826 328.986 101.826 C 330.789 101.826 332.251 84.1355 332.251 62.3132 C 332.251 40.4905 330.789 22.7998 328.986 22.7998 Z" stroke-linecap="round"/>
</g>
		<g transform="matrix(1 0 0 1 144.695 -0.1483)">
<path style="stroke: none; stroke-width: 1; stroke-dasharray: none; stroke-linecap: butt; stroke-dashoffset: 0; stroke-linejoin: miter; stroke-miterlimit: 4; is-custom-font: none; font-file-url: none; fill: rgb(255,230,169); fill-opacity: 0.3; fill-rule: nonzero; opacity: 1;" transform=" translate(-339.695, -62.3517)" d="M 339.694 24.9386 C 337.891 24.9386 336.43 41.689 336.43 62.3519 C 336.43 83.0143 337.891 99.7648 339.694 99.7648 C 341.498 99.7648 342.96 83.0143 342.96 62.3519 C 342.96 41.689 341.498 24.9386 339.694 24.9386 Z" stroke-linecap="round"/>
</g>
		<g transform="matrix(1 0 0 1 155.4025 -0.3518)">
<path style="stroke: none; stroke-width: 1; stroke-dasharray: none; stroke-linecap: butt; stroke-dashoffset: 0; stroke-linejoin: miter; stroke-miterlimit: 4; is-custom-font: none; font-file-url: none; fill: rgb(255,230,169); fill-opacity: 0.3; fill-rule: nonzero; opacity: 1;" transform=" translate(-350.4025, -62.1482)" d="M 350.402 34.5625 C 348.806 34.5625 347.512 46.9131 347.512 62.1486 C 347.512 77.3837 348.806 89.734 350.402 89.734 C 351.999 89.734 353.293 77.3837 353.293 62.1486 C 353.293 46.9133 351.999 34.5625 350.402 34.5625 Z" stroke-linecap="round"/>
</g>
		<g transform="matrix(1 0 0 1 166.185 0.0049)">
<path style="stroke: none; stroke-width: 1; stroke-dasharray: none; stroke-linecap: butt; stroke-dashoffset: 0; stroke-linejoin: miter; stroke-miterlimit: 4; is-custom-font: none; font-file-url: none; fill: rgb(255,230,169); fill-opacity: 0.3; fill-rule: nonzero; opacity: 1;" transform=" translate(-361.185, -62.5049)" d="M 361.185 41.1316 C 359.588 41.1316 358.294 50.7006 358.294 62.5052 C 358.294 74.3089 359.588 83.8781 361.185 83.8781 C 362.781 83.8781 364.076 74.3089 364.076 62.5052 C 364.076 50.7006 362.781 41.1316 361.185 41.1316 Z" stroke-linecap="round"/>
</g>
		<g transform="matrix(1 0 0 1 187.526 -0.5854)">
<path style="stroke: none; stroke-width: 1; stroke-dasharray: none; stroke-linecap: butt; stroke-dashoffset: 0; stroke-linejoin: miter; stroke-miterlimit: 4; is-custom-font: none; font-file-url: none; fill: rgb(255,230,169); fill-opacity: 0.3; fill-rule: nonzero; opacity: 1;" transform=" translate(-382.526, -61.9146)" d="M 382.526 56.314 C 381.941 56.314 381.466 58.8214 381.466 61.9143 C 381.466 65.0079 381.94 67.5152 382.526 67.5152 C 383.111 67.5152 383.586 65.0077 383.586 61.9143 C 383.586 58.8214 383.111 56.314 382.526 56.314 Z" stroke-linecap="round"/>
</g>
		<g transform="matrix(1 0 0 1 176.8175 -0.8211)">
<path style="stroke: none; stroke-width: 1; stroke-dasharray: none; stroke-linecap: butt; stroke-dashoffset: 0; stroke-linejoin: miter; stroke-miterlimit: 4; is-custom-font: none; font-file-url: none; fill: rgb(255,230,169); fill-opacity: 0.3; fill-rule: nonzero; opacity: 1;" transform=" translate(-371.8175, -61.6789)" d="M 371.818 52.7086 C 370.88 52.7086 370.12 56.7248 370.12 61.6788 C 370.12 66.633 370.88 70.6492 371.818 70.6492 C 372.755 70.6492 373.515 66.633 373.515 61.6788 C 373.515 56.7247 372.755 52.7086 371.818 52.7086 Z" stroke-linecap="round"/>
</g>
</g>
</g>
</svg>