<svg width="70" height="95" viewBox="0 0 70 95" fill="none" xmlns="http://www.w3.org/2000/svg">
<path d="M7.46984 0.114389C7.61371 0.225414 7.15513 1.58126 7.8325 1.89919C8.916 2.72515 10.1928 1.29024 9.83166 0C10.7308 1.31884 9.40605 3.52587 7.98986 2.93206C6.91685 2.5788 6.87788 0.977354 7.46984 0.114389Z" fill="#E9BE6E"/>
<path d="M60.1619 0.0722157C60.3018 0.241839 59.8129 1.60554 60.5304 1.92295C61.6211 2.74755 62.8817 1.26629 62.453 0C63.3721 1.27133 62.1717 3.3723 60.7666 2.98435C59.6474 2.64343 59.4338 0.952239 60.1619 0.0722157Z" fill="#E9BE6E"/>
<path d="M8.08526 4.04187C8.37963 6.96986 8.39839 9.94057 8.74327 12.8671C9.86739 13.7567 11.1055 14.9585 10.9424 16.5551C10.6048 18.2915 10.7606 20.0722 10.7693 21.8293C11.4893 21.9177 12.2166 21.8529 12.9381 21.8941C11.8039 22.6541 10.8573 23.8044 10.7087 25.2286C10.6163 29.7075 10.6394 34.204 10.7029 38.6829C11.928 38.6829 13.1532 38.6461 14.3768 38.6947C13.1214 39.9304 11.8977 41.3708 11.5947 43.1854C11.4807 55.0211 11.5182 66.8803 11.5788 78.7175C12.4417 78.7278 13.3119 78.772 14.1734 78.6777C14.3422 77.2609 13.9208 75.8514 14.0954 74.4492C14.3234 72.9543 16.2759 72.8659 16.6106 71.4491C16.8588 70.2016 16.7838 68.9143 16.8992 67.6506C17.2932 68.8716 16.9166 70.2281 17.2932 71.4594C17.7708 72.7187 19.3625 72.9086 19.8849 74.1296C20.2182 74.975 20.0205 75.9059 20.009 76.7896C21.5588 76.1032 21.6641 74.2092 21.6511 72.7422C30.201 67.9496 41.3715 67.633 49.8997 72.645C50.1162 73.9882 49.8867 76.0988 51.5823 76.6938C51.5433 75.8322 51.4062 74.9367 51.7006 74.1046C52.1912 72.8821 53.8507 72.6892 54.1696 71.343C54.3587 70.1265 54.2995 68.8834 54.4135 67.658C54.7815 68.9379 54.4323 70.3297 54.8031 71.6096C55.4842 73.0147 57.7584 73.3711 57.4381 75.3241C57.542 76.4567 56.4179 79.0946 58.2909 78.7499C58.3573 66.8553 58.4222 54.9357 58.2707 43.0455C57.972 41.2943 56.7671 39.9496 55.6285 38.6977C56.8493 38.6373 58.0745 38.6991 59.2967 38.6653C59.3631 34.1908 59.3775 29.7001 59.2895 25.2256C59.1524 23.8206 58.2462 22.6806 57.1697 21.872C57.897 21.8116 58.6271 21.8926 59.3559 21.8425C59.4064 20.1282 59.4958 18.3814 59.0774 16.7038C58.8479 15.1073 60.0427 13.8333 61.1611 12.9157C61.5088 10.0216 61.5204 7.08769 61.7657 4.18474C62.0254 7.07591 62.0327 10.0024 62.4021 12.8818C63.5464 13.7478 64.7297 14.9894 64.5637 16.5727C64.164 18.296 64.2924 20.081 64.3069 21.8367C65.0515 21.9177 65.799 21.8219 66.5436 21.8735C65.33 22.6924 64.3444 23.9929 64.3314 25.5394C64.3242 29.9093 64.304 34.2821 64.3343 38.652C65.6676 38.7271 67.0053 38.6343 68.3401 38.6918C67.0717 39.9746 65.8365 41.4843 65.545 43.34C65.4728 59.8829 65.4555 76.4449 65.5536 92.9834C67.0024 93.5769 68.4483 94.1837 69.8625 94.8598C47.9646 95.1087 26.0336 94.8951 4.12272 94.9658C2.74896 94.9098 1.36077 95.091 0 94.8598C1.43869 94.1543 3.08663 93.6727 4.39978 92.842C4.47481 76.5996 4.39833 60.3498 4.43729 44.1044C4.48203 41.9379 3.05055 40.1528 1.63927 38.6991C2.96397 38.6402 4.29299 38.7035 5.61769 38.6491C5.67829 34.179 5.69994 29.6913 5.60614 25.2212C5.47771 23.8117 4.51666 22.7321 3.47913 21.9C4.20641 21.8543 4.93947 21.9501 5.66242 21.8411C5.63645 20.1311 5.85146 18.3799 5.3666 16.7141C5.08521 15.0675 6.38105 13.7773 7.51238 12.8273C7.83706 9.91111 7.89333 6.96986 8.08526 4.04187ZM7.47774 17.0514C5.34063 17.5964 6.64945 20.2548 6.32188 21.8514C7.48207 21.981 6.68408 20.028 6.91785 19.2121C6.68841 17.4535 9.72309 17.4064 9.45468 19.2121C9.71731 20.0339 8.85006 21.9707 10.0593 21.8646C10.1098 20.5494 10.0968 19.2283 10.1358 17.913C9.54271 17.1133 8.41427 16.7819 7.47774 17.0514ZM61.1539 17.0441C58.9201 17.4977 60.3616 20.2548 60.0139 21.8529C61.1842 22.0237 60.4136 20.1326 60.6214 19.3726C60.2635 18.0544 62.1077 17.2532 62.8292 18.3784C63.2087 19.4845 62.8812 20.7129 63.011 21.8646C64.3025 21.9722 63.3891 19.9205 63.6734 19.0692C64.1943 17.5463 62.3833 16.6434 61.1539 17.0441ZM7.92075 19.1134C7.18625 19.7158 7.51959 21.1194 7.59463 21.8499C9.41428 22.8986 9.41717 18.6892 7.92075 19.1134ZM61.4713 19.1414C60.8566 19.8748 61.2852 20.9603 61.1741 21.8411C63.0139 22.9221 62.9851 18.6377 61.4713 19.1414Z" fill="#E9BE6E"/>
<path d="M37.2384 35.3665C37.8516 36.1791 37.1122 37.5797 36.1561 37.3654C35.3704 37.1808 35.2179 36.0003 35.7533 35.4375C35.0686 37.2244 37.8453 37.0846 37.2384 35.3665Z" fill="#E9BE6E"/>
<path d="M36.0806 39.4084C36.9107 42.6353 35.2595 48.3998 39.4128 50.6922C43.5362 53.2763 47.8585 55.959 50.5028 60.0941C52.815 63.4922 53.4207 68.0393 51.5243 71.7435C42.1767 66.1401 29.7318 66.3882 20.2885 71.6942C17.918 66.9424 19.8204 61.1533 23.374 57.4477C26.1139 54.5371 29.6241 52.4913 33.0386 50.4267C36.9227 48.0617 35.5123 43.1054 36.0806 39.4084Z" fill="#E9BE6E"/>
</svg>
