<svg width="147" height="165" viewBox="0 0 147 165" fill="none" xmlns="http://www.w3.org/2000/svg">
<path d="M44.7313 18.3902V126.853C39.9896 122.805 33.4375 120.302 26.1999 120.302C11.73 120.302 0 130.308 0 142.651C0 154.994 11.73 165 26.1999 165C40.6698 165 52.3997 154.994 52.3997 142.651V47.1674L139.332 31.7902V108.462C134.59 104.415 128.038 101.911 120.8 101.911C106.33 101.911 94.6003 111.917 94.6003 124.26C94.6003 136.603 106.33 146.609 120.8 146.609C135.27 146.609 147 136.603 147 124.26V0L44.7313 18.3902ZM139.331 25.0046L52.3993 40.3818V34.2519L139.331 18.8747V25.0046Z" fill="#FAE6B3"/>
</svg>
