<svg width="81" height="44" viewBox="0 0 81 44" fill="none" xmlns="http://www.w3.org/2000/svg">
<path fill-rule="evenodd" clip-rule="evenodd" d="M40.2102 26.848L7.25571 15.2094L20.7909 0L40.4737 7.5383L40.3421 17.8284L40.2102 26.848ZM23.0073 41.687C26.4109 39.4386 29.8406 37.19 33.2711 34.9419C32.0832 34.4657 28.416 33.0374 27.2287 32.5612C21.9779 36.0524 15.5934 40.4963 10.369 43.9878C15.9623 43.9879 18.9966 44.3057 23.0073 41.687ZM36.859 31.6887C25.2763 27.43 11.5566 22.3773 0.000119459 18.119C0.000119459 20.2879 0.316358 20.4997 1.60955 21.0289C13.7201 25.8694 27.9941 31.5034 40.1044 36.3439C40.1043 33.1696 39.4448 32.6409 36.859 31.6887ZM0 16.7964C13.377 21.7162 26.7533 26.6363 40.1043 31.5562C40.1043 28.3823 39.5237 27.9853 36.991 27.086C26.3583 23.3561 15.7253 19.5738 5.0921 15.8177C8.9706 11.4796 12.8492 7.11543 16.728 2.75096C15.488 2.35425 15.3295 2.56545 14.6961 3.17444C9.78872 7.72382 4.88131 12.2468 0 16.7964ZM58.0195 41.687C54.5895 39.4386 51.1595 37.19 47.756 34.9419C48.9429 34.4657 52.6106 33.0374 53.7977 32.5612C59.0221 36.0524 65.4071 40.4963 70.6579 43.9878C65.0373 43.9879 62.0299 44.3057 58.0195 41.687ZM44.1675 31.6887C55.7239 27.43 69.4436 22.3773 81 18.119C81 20.2879 80.71 20.4997 79.3906 21.0289C67.28 25.8694 53.0065 31.5034 40.8961 36.3439C40.896 33.1696 41.5552 32.6409 44.1675 31.6887ZM81 16.7964C67.6495 21.7162 54.2729 26.6363 40.896 31.5562C40.896 28.3823 41.5025 27.9853 44.0088 27.086C54.6422 23.3561 65.2747 19.5738 75.9344 15.8177C72.0294 11.4796 68.1509 7.11543 64.2722 2.75096C65.5126 2.35425 65.6703 2.56545 66.3302 3.17444C71.2113 7.72382 76.1187 12.2468 81 16.7964ZM40.7905 26.848L73.7709 15.2094L60.2356 0L40.5265 7.5383L40.6582 17.8284L40.7905 26.848Z" fill="#E9BE6E"/>
</svg>
