<svg width="390" height="125" viewBox="0 0 390 125" fill="none" xmlns="http://www.w3.org/2000/svg">
<path d="M7.68663 56.42C7.10148 56.42 6.62695 58.9277 6.62695 62.0207C6.62695 65.1139 7.1012 67.6212 7.68663 67.6212C8.27207 67.6212 8.74659 65.1138 8.74659 62.0207C8.74687 58.9277 8.27235 56.42 7.68663 56.42Z" fill="#FFE6A9" fill-opacity="0.3"/>
<path d="M18.474 53.286C17.5364 53.286 16.7764 57.3021 16.7764 62.2563C16.7764 67.2104 17.5364 71.2266 18.474 71.2266C19.4114 71.2266 20.1716 67.2104 20.1716 62.2563C20.1716 57.3021 19.4114 53.286 18.474 53.286Z" fill="#FFE6A9" fill-opacity="0.3"/>
<path d="M29.1814 83.4479C30.7458 83.4479 32.014 73.908 32.014 62.14C32.014 50.372 30.7458 40.8322 29.1814 40.8322C27.6169 40.8322 26.3486 50.372 26.3486 62.14C26.3486 73.908 27.6169 83.4479 29.1814 83.4479Z" fill="#FFE6A9" fill-opacity="0.3"/>
<path d="M39.89 24.8312C38.3255 24.8312 37.0576 41.6805 37.0576 62.4656C37.0576 83.2502 38.3258 100.1 39.89 100.1C41.4548 100.1 42.7227 83.2502 42.7227 62.4656C42.7227 41.6805 41.4548 24.8312 39.89 24.8312Z" fill="#FFE6A9" fill-opacity="0.3"/>
<path d="M50.5959 16.0881C48.679 16.0881 47.125 36.7336 47.125 62.2014C47.125 87.6682 48.679 108.314 50.5959 108.314C52.5129 108.314 54.0672 87.6684 54.0672 62.2014C54.0674 36.7336 52.5129 16.0881 50.5959 16.0881Z" fill="#FFE6A9" fill-opacity="0.3"/>
<path d="M61.3032 13.449C59.2767 13.449 57.6338 35.2744 57.6338 62.1978C57.6338 89.1203 59.2767 110.946 61.3032 110.946C63.33 110.946 64.9726 89.1203 64.9726 62.1978C64.9726 35.2744 63.33 13.449 61.3032 13.449Z" fill="#FFE6A9" fill-opacity="0.3"/>
<path d="M72.0114 19.7124C70.2353 19.7124 68.7959 38.8359 68.7959 62.4267C68.7959 86.0169 70.2356 105.14 72.0114 105.14C73.7872 105.14 75.2265 86.0167 75.2265 62.4267C75.2265 38.8359 73.7869 19.7124 72.0114 19.7124Z" fill="#FFE6A9" fill-opacity="0.3"/>
<path d="M82.7181 17.8979C80.9423 17.8979 79.5029 37.7699 79.5029 62.2836C79.5029 86.7964 80.9426 106.668 82.7181 106.668C84.4936 106.668 85.9336 86.7964 85.9336 62.2836C85.9338 37.7699 84.4938 17.8979 82.7181 17.8979Z" fill="#FFE6A9" fill-opacity="0.3"/>
<path d="M93.4255 22.0219C91.6501 22.0219 90.2109 40.0471 90.2109 62.2832C90.2109 84.5181 91.6503 102.543 93.4255 102.543C95.2016 102.543 96.641 84.5181 96.641 62.2832C96.641 40.0471 95.2013 22.0219 93.4255 22.0219Z" fill="#FFE6A9" fill-opacity="0.3"/>
<path d="M104.155 18.9701C102.379 18.9701 100.939 38.0204 100.939 61.5209C100.939 85.0208 102.379 104.071 104.155 104.071C105.931 104.071 107.37 85.0206 107.37 61.5209C107.37 38.0206 105.931 18.9701 104.155 18.9701Z" fill="#FFE6A9" fill-opacity="0.3"/>
<path d="M114.841 13.3615C113.065 13.3615 111.626 35.104 111.626 61.9249C111.626 88.7452 113.066 110.487 114.841 110.487C116.617 110.487 118.057 88.7451 118.057 61.9249C118.057 35.104 116.617 13.3615 114.841 13.3615Z" fill="#FFE6A9" fill-opacity="0.3"/>
<path d="M125.548 3.71191C123.772 3.71191 122.333 29.974 122.333 62.3708C122.333 94.7662 123.772 121.028 125.548 121.028C127.323 121.028 128.763 94.7663 128.763 62.3708C128.763 29.974 127.323 3.71191 125.548 3.71191Z" fill="#FFE6A9" fill-opacity="0.3"/>
<path d="M136.255 0C134.363 0 132.829 27.9824 132.829 62.5008C132.829 97.0182 134.363 125 136.255 125C138.146 125 139.681 97.0182 139.681 62.5008C139.681 27.9824 138.147 0 136.255 0Z" fill="#FFE6A9" fill-opacity="0.3"/>
<path d="M146.963 11.7943C145.187 11.7943 143.748 34.3663 143.748 62.2106C143.748 90.0541 145.187 112.626 146.963 112.626C148.739 112.626 150.178 90.054 150.178 62.2106C150.178 34.3663 148.739 11.7943 146.963 11.7943Z" fill="#FFE6A9" fill-opacity="0.3"/>
<path d="M157.67 17.073C155.894 17.073 154.455 37.4031 154.455 62.482C154.455 87.5602 155.895 107.89 157.67 107.89C159.446 107.89 160.886 87.5602 160.886 62.482C160.886 37.4031 159.446 17.073 157.67 17.073Z" fill="#FFE6A9" fill-opacity="0.3"/>
<path d="M168.413 24.8262C166.638 24.8262 165.198 41.8134 165.198 62.7686C165.198 83.7232 166.638 100.71 168.413 100.71C170.189 100.71 171.628 83.723 171.628 62.7686C171.628 41.8132 170.189 24.8262 168.413 24.8262Z" fill="#FFE6A9" fill-opacity="0.3"/>
<path d="M179.04 26.476C177.444 26.476 176.149 42.6835 176.149 62.677C176.149 82.6697 177.444 98.8772 179.04 98.8772C180.637 98.8772 181.932 82.6697 181.932 62.677C181.932 42.6835 180.637 26.476 179.04 26.476Z" fill="#FFE6A9" fill-opacity="0.3"/>
<path d="M189.792 23.259C188.016 23.259 186.577 40.563 186.577 61.9087C186.577 83.2538 188.017 100.557 189.792 100.557C191.568 100.557 193.007 83.2538 193.007 61.9087C193.007 40.563 191.568 23.259 189.792 23.259Z" fill="#FFE6A9" fill-opacity="0.3"/>
<path d="M200.499 23.6714C198.903 23.6714 197.608 40.9516 197.608 62.2679C197.608 83.5834 198.903 100.863 200.499 100.863C202.096 100.863 203.39 83.5834 203.39 62.2679C203.39 40.9516 202.096 23.6714 200.499 23.6714Z" fill="#FFE6A9" fill-opacity="0.3"/>
<path d="M211.207 17.8154C209.431 17.8154 207.992 37.7743 207.992 62.3952C207.992 87.0151 209.432 106.974 211.207 106.974C212.983 106.974 214.422 87.0151 214.422 62.3952C214.422 37.7743 212.983 17.8154 211.207 17.8154Z" fill="#FFE6A9" fill-opacity="0.3"/>
<path d="M221.914 11.2996C220.138 11.2996 218.699 34.1874 218.699 62.4216C218.699 90.6548 220.139 113.542 221.914 113.542C223.69 113.542 225.129 90.6548 225.129 62.4216C225.129 34.1874 223.69 11.2996 221.914 11.2996Z" fill="#FFE6A9" fill-opacity="0.3"/>
<path d="M232.623 19.3828C231.026 19.3828 229.731 38.6145 229.731 62.3385C229.731 86.0617 231.026 105.293 232.623 105.293C234.22 105.293 235.514 86.0617 235.514 62.3385C235.514 38.6145 234.22 19.3828 232.623 19.3828Z" fill="#FFE6A9" fill-opacity="0.3"/>
<path d="M243.329 15.8362C241.732 15.8362 240.438 36.7168 240.438 62.475C240.438 88.2321 241.732 109.113 243.329 109.113C244.925 109.113 246.22 88.2321 246.22 62.475C246.22 36.7168 244.925 15.8362 243.329 15.8362Z" fill="#FFE6A9" fill-opacity="0.3"/>
<path d="M254.089 19.5919C252.493 19.5919 251.198 38.5921 251.198 62.0308C251.198 85.4687 252.493 104.469 254.089 104.469C255.686 104.469 256.98 85.4687 256.98 62.0308C256.98 38.5921 255.686 19.5919 254.089 19.5919Z" fill="#FFE6A9" fill-opacity="0.3"/>
<path d="M264.744 23.5505C263.148 23.5505 261.854 40.8232 261.854 62.1307C261.854 83.4374 263.148 100.71 264.744 100.71C266.341 100.71 267.635 83.4374 267.635 62.1307C267.635 40.8232 266.341 23.5505 264.744 23.5505Z" fill="#FFE6A9" fill-opacity="0.3"/>
<path d="M275.45 26.0251C273.854 26.0251 272.56 42.2994 272.56 62.3753C272.56 82.4504 273.854 98.7245 275.45 98.7245C277.047 98.7245 278.341 82.4504 278.341 62.3753C278.341 42.2993 277.047 26.0251 275.45 26.0251Z" fill="#FFE6A9" fill-opacity="0.3"/>
<path d="M286.157 27.757C284.56 27.757 283.266 43.3359 283.266 62.5536C283.266 81.7707 284.56 97.3496 286.157 97.3496C287.753 97.3496 289.047 81.7707 289.047 62.5536C289.048 43.3359 287.753 27.757 286.157 27.757Z" fill="#FFE6A9" fill-opacity="0.3"/>
<path d="M296.866 22.8906C295.063 22.8906 293.601 40.4871 293.601 62.1939C293.601 83.8999 295.063 101.496 296.866 101.496C298.67 101.496 300.132 83.8999 300.132 62.1939C300.132 40.4871 298.67 22.8906 296.866 22.8906Z" fill="#FFE6A9" fill-opacity="0.3"/>
<path d="M307.572 20.3555C305.769 20.3555 304.307 39.2949 304.307 62.6584C304.307 86.021 305.769 104.961 307.572 104.961C309.375 104.961 310.837 86.0211 310.837 62.6584C310.837 39.2948 309.376 20.3555 307.572 20.3555Z" fill="#FFE6A9" fill-opacity="0.3"/>
<path d="M318.28 22.9525C316.477 22.9525 315.015 40.6462 315.015 62.4724C315.015 84.298 316.477 101.992 318.28 101.992C320.083 101.992 321.546 84.2979 321.546 62.4724C321.546 40.646 320.083 22.9525 318.28 22.9525Z" fill="#FFE6A9" fill-opacity="0.3"/>
<path d="M328.986 22.7998C327.183 22.7998 325.721 40.4905 325.721 62.3132C325.721 84.1355 327.183 101.826 328.986 101.826C330.789 101.826 332.251 84.1355 332.251 62.3132C332.251 40.4905 330.789 22.7998 328.986 22.7998Z" fill="#FFE6A9" fill-opacity="0.3"/>
<path d="M339.694 24.9386C337.891 24.9386 336.43 41.689 336.43 62.3519C336.43 83.0143 337.891 99.7648 339.694 99.7648C341.498 99.7648 342.96 83.0143 342.96 62.3519C342.96 41.689 341.498 24.9386 339.694 24.9386Z" fill="#FFE6A9" fill-opacity="0.3"/>
<path d="M350.402 34.5625C348.806 34.5625 347.512 46.9131 347.512 62.1486C347.512 77.3837 348.806 89.734 350.402 89.734C351.999 89.734 353.293 77.3837 353.293 62.1486C353.293 46.9133 351.999 34.5625 350.402 34.5625Z" fill="#FFE6A9" fill-opacity="0.3"/>
<path d="M361.185 41.1316C359.588 41.1316 358.294 50.7006 358.294 62.5052C358.294 74.3089 359.588 83.8781 361.185 83.8781C362.781 83.8781 364.076 74.3089 364.076 62.5052C364.076 50.7006 362.781 41.1316 361.185 41.1316Z" fill="#FFE6A9" fill-opacity="0.3"/>
<path d="M382.526 56.314C381.941 56.314 381.466 58.8214 381.466 61.9143C381.466 65.0079 381.94 67.5152 382.526 67.5152C383.111 67.5152 383.586 65.0077 383.586 61.9143C383.586 58.8214 383.111 56.314 382.526 56.314Z" fill="#FFE6A9" fill-opacity="0.3"/>
<path d="M371.818 52.7086C370.88 52.7086 370.12 56.7248 370.12 61.6788C370.12 66.633 370.88 70.6492 371.818 70.6492C372.755 70.6492 373.515 66.633 373.515 61.6788C373.515 56.7247 372.755 52.7086 371.818 52.7086Z" fill="#FFE6A9" fill-opacity="0.3"/>
</svg>
