<svg width="61" height="78" viewBox="0 0 61 78" fill="none" xmlns="http://www.w3.org/2000/svg">
<path d="M60.0154 74.538C60.0154 76.443 58.4581 78 56.5519 78H3.46119C1.55873 78 0 76.443 0 74.538V3.46376C0 1.55959 1.55873 0 3.46119 0H56.5519C58.4581 0 60.0154 1.55959 60.0154 3.46376V74.538Z" fill="#E9BE6E"/>
<path d="M54.1966 6.63672H5.81934V71.3645H54.1966V6.63672Z" fill="#F2F2F2"/>
<path d="M30.7785 3.559C30.7785 3.98424 30.431 4.32824 30.0084 4.32824C29.5834 4.32824 29.2383 3.98424 29.2383 3.559C29.2383 3.13405 29.5834 2.79004 30.0084 2.79004C30.431 2.79004 30.7785 3.13405 30.7785 3.559Z" fill="#87888A"/>
<path d="M31.3539 74.4424C31.3539 75.1848 30.752 75.7891 30.009 75.7891C29.2637 75.7891 28.6611 75.1848 28.6611 74.4424C28.6611 73.6976 29.2639 73.0957 30.009 73.0957C30.752 73.0957 31.3539 73.6976 31.3539 74.4424Z" fill="#87888A"/>
</svg>
